/* XPM */
static char *xpm_[] = {
/* columns rows colors chars-per-pixel */
"32 32 200 2 ",
"   c #67502C",
".  c #67512C",
"X  c #67502D",
"o  c #67512D",
"O  c #68512D",
"+  c #69522D",
"@  c #69522E",
"#  c #6A522E",
"$  c #6B542F",
"%  c #6D552F",
"&  c #705731",
"*  c #725932",
"=  c #755B33",
"-  c #775D34",
";  c #7B6036",
":  c #7D6237",
">  c #7E6237",
",  c #7F6237",
"<  c #7E6337",
"1  c #7F6337",
"2  c #7E6238",
"3  c #7E6338",
"4  c #B36511",
"5  c #BB6D18",
"6  c #B96E1A",
"7  c #805723",
"8  c #88612D",
"9  c #806338",
"0  c #826639",
"q  c #82673B",
"w  c #83673B",
"e  c #8B713F",
"r  c #9C763E",
"t  c #B77623",
"y  c #B57D2D",
"u  c #A67937",
"i  c #AC7B33",
"p  c #A0783C",
"a  c #C46C0E",
"s  c #C86A08",
"d  c #CB6D08",
"f  c #CD6F08",
"g  c #CD7008",
"h  c #D07308",
"j  c #D77B08",
"k  c #8B7041",
"l  c #8B7042",
"z  c #917443",
"x  c #967441",
"c  c #967541",
"v  c #967442",
"b  c #967542",
"n  c #977542",
"m  c #977643",
"M  c #907246",
"N  c #907346",
"B  c #917347",
"V  c #987541",
"C  c #9A7640",
"Z  c #987643",
"A  c #977946",
"S  c #967947",
"D  c #977947",
"F  c #977A46",
"G  c #987947",
"H  c #9D7B47",
"J  c #987C46",
"K  c #997D47",
"L  c #987E47",
"P  c #987F47",
"I  c #957748",
"U  c #97784A",
"Y  c #997A49",
"T  c #9B7B4B",
"R  c #987E48",
"E  c #987F48",
"W  c #9B7C4B",
"Q  c #9E7D48",
"!  c #9F7C49",
"~  c #9F7D49",
"^  c #9F7E4B",
"/  c #BF8025",
"(  c #DC8008",
")  c #DD8108",
"_  c #CE851B",
"`  c #DE8910",
"'  c #DC931F",
"]  c #E38708",
"[  c #E78C09",
"{  c #E88C08",
"}  c #E98E09",
"|  c #EB910C",
" . c #EC920D",
".. c #EC930D",
"X. c #ED940D",
"o. c #EE950E",
"O. c #EE960E",
"+. c #EE960F",
"@. c #EF9810",
"#. c #F09911",
"$. c #F49F15",
"%. c #F5A216",
"&. c #F7A518",
"*. c #F9A91B",
"=. c #F9AA1B",
"-. c #FAAB1C",
";. c #C08228",
":. c #FBAF24",
">. c #FCB42B",
",. c #FCB731",
"<. c #FDBC3C",
"1. c #FEBE3D",
"2. c #9B8049",
"3. c #9A804A",
"4. c #9E834B",
"5. c #A28040",
"6. c #A0804D",
"7. c #A0844D",
"8. c #A1854D",
"9. c #A0844E",
"0. c #A3864E",
"q. c #A3874E",
"w. c #A3864F",
"e. c #B9914E",
"r. c #A78451",
"t. c #A78551",
"y. c #A98650",
"u. c #AA8653",
"i. c #AF8F55",
"p. c #AF8F56",
"a. c #AF9055",
"s. c #AF9056",
"d. c #AF9057",
"f. c #AC905B",
"g. c #B09056",
"h. c #B09057",
"j. c #B19057",
"k. c #B19157",
"l. c #B19158",
"z. c #B29158",
"x. c #B29159",
"c. c #B3925A",
"v. c #B4925B",
"b. c #B5925B",
"n. c #B4935B",
"m. c #B7955A",
"M. c #B7955B",
"N. c #B6935D",
"B. c #B7935D",
"V. c #B7945D",
"C. c #B7945E",
"Z. c #BA945D",
"A. c #BA975D",
"S. c #B8945F",
"D. c #B8955F",
"F. c #958E7F",
"G. c #9A8F7D",
"H. c #A68F64",
"J. c #AB926D",
"K. c #B39365",
"L. c #B29366",
"P. c #B39465",
"I. c #B89460",
"U. c #B89560",
"Y. c #B99560",
"T. c #B99660",
"R. c #BA9660",
"E. c #BB9760",
"W. c #BC9861",
"Q. c #BD9961",
"!. c #BE9961",
"~. c #BF9A62",
"^. c #A69172",
"/. c #A19077",
"(. c #B19870",
"). c #C99242",
"_. c #C99B55",
"`. c #E5BB5B",
"'. c #C09C62",
"]. c #C19C62",
"[. c #C29D62",
"{. c #C29E62",
"}. c #D9BD6A",
"|. c #FEC041",
" X c #FACA5E",
".X c #FFCE5D",
"XX c #FFCF5D",
"oX c #FFD060",
"OX c #FFD466",
"+X c #FFD76A",
"@X c #FFD96E",
"#X c #E6CB71",
"$X c #FFE47F",
"%X c #8C8B8A",
"&X c #8B8C8B",
"*X c #8D8C89",
"=X c #8E8C88",
"-X c #8C8C8A",
";X c #8C8C8B",
":X c #908C87",
/* pixels */
"u.S.T.[.[.[.[.[.].[.[.[.[.[.[.[.[.[.[.[.[.[.[.[.~.C.S.S.S.T.C.x ",
"b S.S.i.s.s.s.S.T.I.T.T.I.C.C.S.T.C.C.T.S.S.S.s.s.s.s.i.g.T.r.b ",
"b C.S.g.i.i.s.g.T.I.C.T.C.C.I.I.C.T.T.T.C.S.C.s.s.s.i.s.T.S.r.b ",
"b C.S.T.g.s.g.g.i.j.c.C.T.I.I.C.T.C.I.C.C.c.i.g.s.s.s.S.C.S.r.b ",
"b S.S.S.S.T.i.i.s.s.i.s.i.I.C.T.C.T.S.g.i.g.s.g.S.S.S.S.T.C.r.b ",
"b S.T.S.T.C.T.p.i.s.i.i.i.T.I.C.I.I.b.i.i.s.s.S.S.S.S.S.C.T.r.x ",
"o o O ; 3 - X X O O O 2 2 2 1 o o o o O ; 9 3 1 + o X o o o o o ",
"o 4 s s s h h g h h h h h h h h h h h h h h h h h g h h h f 7 o ",
". b s s s { { #.-.:.=.+. .=.=.-.=.*.{ [ ] j } %.-.-.-.-...d 8 o ",
"o b b 5 s s j } ] ` [ [ { }  .+.} { { ] s 5 t y _ | -.+.g s 2 o ",
". b b b x b x b b b b b b V i y u b b x x x v b r r =./ b b 3 o ",
"O x b b x b b b x z r b b b b b x b b b b b x x z r =.' b b 3 o ",
"9 S.C.T.C.T.! b i.i.i.i.s.i.i.i.i.s.i.i.i.i.g.I.7.K ).C.T.S.R & ",
"1 S.T.C.T.C.! x i.i.i.i.i.s.i.i.i.i.s.s.s.g.T.T.7.K C.T.K.S.T 9 ",
"1 T.&X:XI.C.9.b i.i.g.s.s.i.I.I.T.T.T.I.[.[.[.[.q.R T.K.%X;XT 2 ",
"1 C.G.^.C.T.9.R i.f.i.g.c.T.T.I.I.T.C.~.[.{.[.[.q.K C.T.;X/.T 2 ",
"; T.S.S.T.S.4.P T.n.M.T.D.D.T.M.~.[.[.[.[.{.[.[.q.K T.C.I.C.T 2 ",
"o T.S.S.C.I.9.P T.T.T.n.D.D.T.{.[.[.[.[.{.[.[.[.8.3.C.T.C.T.Y ; ",
"X ! ! ! 9.9.2.P 4.4.4.4.4.4.4.4.q.7.7.q.7.q.q.7.2.P 4.! ! ! w & ",
"& b b x b K P 2.E 3.3.3.3.3.3.3.2.P P 3.P 3.K 2.3.P P P Z b 2 o ",
"; [.[.[.[.[.[.[.~.[.b r [ $.=.>.XXXXXXXXx b [.[.[.[.[.[.[.[.U o ",
"9 [.[.[.[.{.[.[.[.[.V V [ ` O.@.:.oX$X`.b y.[.{.[.[.[.[.[.[.4.. ",
"3 7.q.q.8.7.7.7.7.7.2.P N 3.3.B |.@X$X}.J q.7.7.7.q.8.8.q.7.z 2 ",
"2 P K K P 2.2.2.3.P P P 3.3.3.3.XX+X$X#XK K 3.2.K 2.2.2.K 2.k ; ",
"- S.C.S.{.[.[.[.[.[.[.[.[.[.8./ 1.XXOX X[.[.[.[.{.{.{.T.A.T.R 2 ",
"O S.P.A.~.[.{.[.[.~.[.A.M.M.4.3.=.,.<.&.[.[.[.[.'._.[.C.J.T.B 2 ",
"O (.&X:XC.T.C.C.I.T.v.i.s.s.4.P _.+.@.{ ~.T.W.W.W.T.c.H.;X;Xz X ",
"= s.;X:XC.T.C.T.T.I.I.C.s.s.H 3.C.C.e.s.s.g.g.C.P.c.s.s.%Xf.l X ",
"2 i.i.i.s.C.T.C.C.T.C.I.s.s.! v S.S.s.i.s.i.s.i.p.i.i.i.i.i.U o ",
"2 i.i.i.s.c.C.T.T.T.T.I.g.s.H b S.g.i.i.i.i.i.s.s.i.i.s.i.j.J ; ",
"2 k k z F U z B ! W W ! Y l 9 9 z l l z Y J J k l U F F l l 9 9 ",
"o O % 9 ; o o 2 3 ; 3 ; o . o X o o o o - ; 2 ; o o 1 9 ; o O * "
};
