/* XPM */
static char *ed6fab0d6921458395609dbc13cf6c323kceT1qYn56x1pjG[] = {
/* columns rows colors chars-per-pixel */
"64 64 219 2 ",
"   c #48371F",
".  c #4E3D22",
"X  c #564426",
"o  c #5C4724",
"O  c #574529",
"+  c #594629",
"@  c #5B492B",
"#  c #5D4927",
"$  c #644C24",
"%  c #634D2B",
"&  c #67502C",
"*  c #6B532D",
"=  c #7D5A26",
"-  c #73572C",
";  c #7B5C2B",
":  c #73572B",
">  c #6E5630",
",  c #6F5934",
"<  c #705731",
"1  c #735A33",
"2  c #795E35",
"3  c #7C6136",
"4  c #7E6439",
"5  c #7F693D",
"6  c #605F5E",
"7  c #796645",
"8  c #69635A",
"9  c #746B5B",
"0  c #7E735D",
"q  c #6B6966",
"w  c #6D6C6B",
"e  c #656462",
"r  c #746E62",
"t  c #7A7263",
"y  c #7A756E",
"u  c #7C7873",
"i  c #9B560C",
"p  c #97560F",
"a  c #965A14",
"s  c #A25C0B",
"d  c #A45A08",
"f  c #986518",
"g  c #AD6A0D",
"h  c #AA650B",
"j  c #B46F0B",
"k  c #B56B07",
"l  c #B8720B",
"z  c #AC6D11",
"x  c #AB6D1C",
"c  c #A16713",
"v  c #B66C19",
"b  c #BA6B14",
"n  c #AC751D",
"m  c #B57515",
"M  c #B97A1B",
"N  c #835E25",
"B  c #855C24",
"V  c #88642B",
"C  c #9D6C2B",
"Z  c #9C6823",
"A  c #826334",
"S  c #82663A",
"D  c #85693C",
"F  c #8A6C3D",
"G  c #8A6834",
"H  c #936C34",
"J  c #906F3D",
"K  c #996C31",
"L  c #8E703F",
"P  c #92713E",
"I  c #9C7538",
"U  c #A76B24",
"Y  c #B56F22",
"T  c #A5732D",
"R  c #AA792C",
"E  c #A97724",
"W  c #BA7E23",
"Q  c #B57E2C",
"!  c #B47A26",
"~  c #AA7C33",
"^  c #A27C3C",
"/  c #A57736",
"(  c #B07E34",
")  c #C46B0C",
"_  c #C96C09",
"`  c #C7780D",
"'  c #D3790A",
"]  c #C57A15",
"[  c #D17D10",
"{  c #866D43",
"}  c #8B6F40",
"|  c #8D7142",
" . c #947543",
".. c #997743",
"X. c #957946",
"o. c #9B7A45",
"O. c #967B49",
"+. c #9B7E4A",
"@. c #8B7A59",
"#. c #937D59",
"$. c #947E51",
"%. c #846F51",
"&. c #A37A43",
"*. c #A07F4A",
"=. c #877A64",
"-. c #BC821B",
";. c #BD8023",
":. c #BD8429",
">. c #AB833C",
",. c #BB8A33",
"<. c #B1833A",
"1. c #B78737",
"2. c #D7840F",
"3. c #DB840C",
"4. c #DE890C",
"5. c #C78119",
"6. c #CB831D",
"7. c #CA8317",
"8. c #D48412",
"9. c #DC8B13",
"0. c #D48D1D",
"q. c #D98813",
"w. c #DF971B",
"e. c #E48B0B",
"r. c #E88D09",
"t. c #E28709",
"y. c #E39113",
"u. c #E99513",
"i. c #EA9D1C",
"p. c #E99A18",
"a. c #E58F0F",
"s. c #EEA31E",
"d. c #F2A41C",
"f. c #F6A81C",
"g. c #C48422",
"h. c #CB8924",
"j. c #C98725",
"k. c #DC9A25",
"l. c #D2942B",
"z. c #D99729",
"x. c #C58E36",
"c. c #CC9A3D",
"v. c #CB9338",
"b. c #D59A36",
"n. c #D68F26",
"m. c #E49E22",
"M. c #DCA23B",
"N. c #E6A022",
"B. c #EBA221",
"V. c #FAB32D",
"C. c #E5A939",
"Z. c #F2AB31",
"A. c #FCBD3D",
"S. c #FAAF23",
"D. c #9E814C",
"F. c #9E824C",
"G. c #9C8255",
"H. c #9A845B",
"J. c #A2844E",
"K. c #A6894F",
"L. c #AA8748",
"P. c #B38E4B",
"I. c #B58C47",
"U. c #BC9243",
"Y. c #BA914B",
"T. c #A68751",
"R. c #A58651",
"E. c #A98751",
"W. c #A68952",
"Q. c #A68951",
"!. c #A98A52",
"~. c #AB8B54",
"^. c #A98A54",
"/. c #AC8B55",
"(. c #AB8C55",
"). c #AE8D55",
"_. c #AC8C54",
"`. c #AF8E58",
"'. c #A3885A",
"]. c #B08F56",
"[. c #B18E58",
"{. c #B18E59",
"}. c #AF9057",
"|. c #B19057",
" X c #BC9254",
".X c #B29059",
"XX c #B6935D",
"oX c #B7945E",
"OX c #B4925B",
"+X c #B8945F",
"@X c #B9955D",
"#X c #BD995F",
"$X c #BF9952",
"%X c #998463",
"&X c #BB9760",
"*X c #BF9A60",
"=X c #B09260",
"-X c #C69645",
";X c #C09250",
":X c #CFA247",
">X c #DBA843",
",X c #CBA85C",
"<X c #E4AE43",
"1X c #ECB649",
"2X c #F5BC49",
"3X c #EAB952",
"4X c #C19C61",
"5X c #CAA461",
"6X c #D1B464",
"7X c #F8C14D",
"8X c #F4C253",
"9X c #FCC955",
"0X c #FCCC5D",
"qX c #F4CB65",
"wX c #FED96E",
"eX c #FDD365",
"rX c #FDDC73",
"tX c #FDDE78",
"yX c #E4C168",
/* pixels */
"D 4 3 2 S S S S S S 4 3 2 1 1 1 1 1 3 4 S D D D F  ................... .F D S 3 1 1 1 1 3 3 4 3 1 1 1 > < 1 > * > > > 1 1 1 2 3 ",
"+.O. .} F F F F F F F } D S 4 4 4 4 S S F }  . .o.o.o.o.+.o.o.o.o.o.o.o.X. .} F D S 4 4 D D F D S 4 3 2 3 3 3 3 3 3 4 4 D D D F ",
"`.{./.W.J.F.+.F.F.F.D.J.D.J.J.J.R.R.R.W.R.J.J.R.^.^.W.J.J.J.*.o.^./.(.(././.~.~.W.J.J.J.J.J.D.F.F.+.+.+.+.+.D.F.+.+.+.D.D.D.o.O.",
"{.XXXX.X(.(.W.W.W.R.W.W.^.^.(.[.|..XOX.X.X.X|.|.|.(.(.^.^././.E.{.XXXX@XXXXXXXXXOX.X.X[.(._.^.W.W.W.W.W.W.(.(.(.^.W.W.W.W.J.+.o.",
"{.XXXXXXOX.X(.^.^.W.W.^.W.^.^.(.(.(.(./.~.~././.(.(.(.~././.{.OXXX@XoXoXoX@XoXoXXXXX.X.X[.(.(.^.^.^.^.^.(.(.[.(.(.(.(.~.W.D.+.o.",
"{.XXXXXXXXOX.X(.~.~.~.~.~.^.^.^.^.^.J.E.E.^./././.(.(.~././.{.XXXXXX@X@X@X@XoXoXXXOX.X.X[.(.(.(.(.(.`.`.`..X.X.X.X{.(./.W.F.+.+.",
"{.XXOXOXOX.X.X.X`.(.(.~.~.(.(.^.^.J.J.R.^./.(././.^.(.(./.~.(.{.XXXXXX@X@XXXXXOX.X.X|.|.[.(.(.(.(.[..XXX.XOXOXOXOXOX.X(.^.J.F.F.",
"{.XX.X|.|..XOXXX.X.X{.{.`.`.{.(.E.J.J.(.(.(.(.^.^./.(.(.(.(.(.{.{.XXXXXXXXOX.X.X.X|.|.|.[.(.(.(.[..XOXXXXXXXXXXXXXXX.X(.~.D.+.+.",
"{.XX|.|.(..XXXXXXXXXXXoXXXXXXX{.^.^.(.(.(.(.(.(.~.(.(.(.(.[.[.{.{.{.{.(.(.(.(.~.~.~.(.[.(.[.(.(.(..X.XXXXXXXXXXXoXXX.X{.(.R.o.o.",
"[..X(.(.(..X@X@XoXXXXXXXXXXXXX{./.[.[.(.(.(.(.(.(.(.(.(.(.(.(.(.~.~.^.R.W.^.W.W.W.^.).(.|.[.(.(.(.[..XOXOXXXoXoX@X.X{..X{.(.X.X.",
"(.(.(.(.(.{..X.XOX.X`.{..X.X{.(.{.[.[.(.(.(.[.[.[.(.(.^._.^.J.J.J.W.W.R.W.W.^.^.W.^.^.(.(.(.).).).).).(.[..XOX.X(.^.~.`.(.(.X.o.",
"J.J.J.J.J.R.R.R.R.R.J.J.J.R.R.R.R.R.R.R.R.J.J.^.^.J.J.J.J.J.o.o.J.R.J.J.R.R.R.R.J.J.J.J.J.J.J.J.J.D.D.J.J.J.J.J.+.+.D.J.J.D. .X.",
"1 1 3 4 D D F F F F D D D 4 3 3 3 3 3 4 D F | | L F F  . . .F  ... . .| | | F F D 4 3 4 S D D D S 4 3 2 3 2 3 2 2 2 2 3 2 1 1 1 ",
"& & & * 3 3 3 3 3 2 2 1 1 * * * & - 1 2 3 S 3 3 1 1 1 1 3 3 2 3 S S 3 3 3 4 3 2 1 * > 1 1 2 2 2 1 * & & & & & & & & & & & & & & ",
"  . % @ @ @ @ @ @ @ @ @ @ % % % % % % @ + + O X X o o X o $ $ $ # $ $ $ @ + + + X X X X + @ @ @ @ @ + + O O + + @ @ @ + + @ .   ",
"# & 3 B a p i p i i d a h k j z n E ! -.-.E n M z f f c j k l l ` 5.-.M m j g g h d i d d k j m M E E M l j z g g s p p ; 1 & # ",
"% * G Z v b ) ) _ _ _ ' 3.2.2.e.p.i.s.m.s.N.m.d.9.W R M 8.2.4.4.u.f.s.i.u.4.4.[ ` ) _ _ ' 3.8.0.k.m.d.d.r.e.r.t.3.` x U Z 4 > % ",
"& > D H U x v b _ _ _ ) [ 7.7.9.p.f.d.N.s.d.s.d.e.;.~ W 5.7.4.4.u.d.d.i.y.8.2.[ ] ) _ _ ' t.q.h.k.N.f.f.u.e.r.e.' v K H V 4 > & ",
"> 1 D D C C U v ) ) ) v M W W j.0.i.d.s.d.B.N.m.y.Q / Q ;.7.3.4.y.p.d.i.6.g.8.] Y b ) ) 8.t.4.j.k.N.B.s.y.e.r.3.) U F D 4 4 1 < ",
"1 1 D D F F J C U v v Y E ~ ..( <.,.k.l.,.^ ^ >.h.~ / / I M ] ] 0.p.N.l.( Q 6.Q / Y Y R 6.6.~ ^ 1.l.l.l.0.e.e.2.v F F F 5 D 2 1 ",
"2 4 { { | | | | L I T T / ^ +.+.+.o.<.>.O.O.O.O.>.o.o.O.o.R Z V :.l.v.<.o.<.:.*.+.&.&.o.Q <.o.O.o.<.,.,.6.e.t.] I |  .| { } 4 3 ",
"S D } } } } { | |  .X...X.O.X.O.+.+.+.O.O.X. . . .| | |  .K N : R ,.<.O. .o.o.X.O.X.X.X.I o. . . . .^ ~ 6.t.4.;.^  .X.| } } D D ",
"D D S 2 1 * > 1 1 1 > & % % % % & 1 D F D S S 3 1 1 1 > > - * % - V A 1 1 3 3 2 2 3 2 1 * & % % % % * N ] 3.8.] D S D S 3 S D D ",
"D D S 1 & * 1 1 2 1 1 1 1 % 1 1 1 2 D D S 3 2 1 - * & % % % % % % % % % & & & & < 1 1 2 2 1 1 < < < & V ] 8.M H D D 3 3 1 D F F ",
" ...J.+.R.E.~./.(.~.R.J.O.* 2 O.J.J.E.R.J.R.J.F.O.O.J.J.J.J.R.R.^.^.^.~.~.~.~.(.(.[.(./.J.J.J.F.X.1 * o.j.j.I.E.E.~.E.R.J.J.P P ",
"..o.~.[.#X4X4X4X*X#XOX(.D.3 D J.|.|.OXOX[.[.(.(.(.(.|.OX@X#X#X#X#X#X@X@XXXOXOX@X#X#X@X@X@X|.|.(.J.S 2 F.P.Y.OX@X@XXXXX{.^.R. . .",
"..O.(..X@X4X4X4X4X#XXX(.J.F F F.|.[.[.[.(.(.(.(.(.(.|..XOXXX@X@X.X(.(.(.(.(.(.}.XXXXXX@X@X|.|.(.+.F F F.(.{.oX@X@X@X.XW.J.R... .",
" .+.{.OX#X4X4X#X#X@XOX(.J.P  .+.).(.[.[.(.(.|.|..X.XOXOXXXXXXX}.W.Q.W.W.R.W.W.^.(.}.|.|.|.|.(.).o.P P D.~.`.XX@X@X.XW.J.D.R...P ",
"F O.{.OXoX@X@X@XXXOX{.~.J.....J._.).|..X.X.XXX@XXXXXXXXXXXOX.XW.F.J.J.J.J.J.K.W.^.^._._._.).).^.+...P D.W.(..XOX.XW.D.D.D.J. .F ",
"D %.t r r =.`.|.|.|.{.~.D.P o.J.^.).(.(.{.OXXX@X@X@X@X@XXXXX.XW.F.F.J.J.J.J.K.^._.(.(._._.).).^.F. .J F.R.~.(.(.R.$.t r 8 t { S ",
"7 q 6 q q q #.(.[.|.(.W.F.P ..J.^.).).^.(.{.XXXX@X@XXXXXXXOX(.J.F.F.J.J.F.J.J.^.).).(._.^.^._.^.J. .P +.J.R.R.R.J.=.6 w w w 9 3 ",
"4 9 q q 8 y '.(.(.[.(.J.+.L  .F.W.^.^.J.^.(..XXXXX.X{.{.{.(.^.J.F.J.J.J.J.J.K.^.).).).).(._.^.W.J.F F +.J.J.J.J.F.$.8 y 8 r { 3 ",
"1 { #.@.%X%XOX.X|.|.^.J.o.F F +.^._.^.J.W.(.{..X{.(.^.(.^.W.J.F.J.J.K.J.W._.(.(.(.(.(.(.(.).^.^.F.F S  .J.J.J.J.J.W.'.G.O.D.D 1 ",
"1 F ^./.OX@X@X@XOX.X^.W.+.F | F.(.(.).K.^.(.`..X{.(.W.W.J.J.J.J.J.W._._.).(.(.(.(.(.(.(.).(.(.^.+.F S | R.^.^.~./.{..X~.D.D.S 1 ",
"1 F R.^.XX@X*X#X@X.X^.W.+.F  .J.(.[.(.(.(.(.{..X[./.W.R.F.J.W.W.W._._.(.).).^.^.(.).(.(.(.|.|.(.J.| D X.~..X.X.X.XXXOX(.J.F.4 1 ",
"1 S D.J.E./.(.(.[./.D.F.o.}  .J.^.~./.~.~.~.~.R.R.J.D.J.D.+.D.R.W.W.J.J.J.J.J.J.^.^.^.^.J.J.^.J.+.| S  .D.R.+.+.R.R.J.D.+.O.2 < ",
"< 3 o. . .F F F F F D F F D F ..o.o.o.X.F F D S 1 1 3 4 4 S S D D } } |  . .| F 4 4 3 4 D D F D 4 1 1 1 1 1 2 3 S D D S S | 1 * ",
"- 2 O.P F D S S D D D F F F F  ... .P F D S 3 2 * < 4 D D F } | | | } F F F D 3 1 1 1 2 3 4 S 2 > * & & * < 1 1 3 3 3 3 3 | 1 * ",
"< 4 R.R.(.{.[.(.(.(.J.D.J.J.^.OX@XOXOX|.~.E.(./.^.R.R.J.J.J.J.J.D.+.O.O.X.J.^././././././.E.R.^.R.J.D.J.J.^.^.^.^.W.J.+.O.D.4 * ",
"1 S ^.(.@X@XOX.X.X.X(.W.^.(..X@X#X@X@XOX|./.^.R.J.+.O.O.X. . .X.O.O.X.X.X.+.J.J.J.J.J.J.E.T.J.T.^.R.W.^..XXX@XoXOXOX|.W.D.J.S 1 ",
"1 S R./.OX}.}.(.(.(.(.~.~.(..X@X@X[.^.J.*.o...J D S 3 3 3 3 3 4 4 4 3 3 4 4 S D D D F | ..o.o.F.J.^.(.{.XX@X@X@X@X#X@X(.J.J.S 2 ",
"1 S R.~.|.|.}.(.(.(.(.(.(.`..XXX{.R.+.o...P H G A ; : : = N = = : : = N ; ; ; A A 1 2 S F  ...+.J.^.(.OXXX@X@X@X@X#XXX(.J.J.4 1 ",
"> S R.^.(.|.(.}.(.(.`..X.X.XXX.X~.J.+.o...I C T n x x m M m m ] 5.5.0.w.m.k.b.c.1.P 2 S F  .o.+.J.E.(.XX@XXXXXoX@X@XOX).J.J.4 > ",
"> S J.W.).}.(.(.(.[..X.XXXXXXX{.~.R.J.*.+.o.I T 5.8.t.e.4.4.e.u.d.d.d.f.V.A.7X8X3XL.D | X.o.+.J.J.^.{.XX@XXXOXOXXXXX.X_.J.F.4 > ",
"> 4 J.J.).(.(.(.^.^.^.^.~.(.`.{.(.^.^.^.^.R.J.L.:.g.4.t.q.q.9.y.d.f.f.S.A.9X0X0X;X+.+.J.J.R.E.T.^.^.{.OXXXXX.XOXOXXX.X^.F.+.4 > ",
"> 4 J.J._.(.(._.J.J.J.D.F.D.J.J.J.J.).[.{.[.(.].I.,.h.j.j.j.0.p.N.V.V.A.9X0XeXqXR.J.R.R.E.^.^./.^.^.(..X{..X|.|.|..X|.K.F.+.4 > ",
"2 4 | 4 1 1 1 1 4 F | } S 3 4 S 3 S S D F F F D A V ; 1 ; C M 0.z.7X7X9XwXwXrX6X . . .| } F F D 3 1 1 3 3 3 3 2 1 1 2 1 3 F 3 1 ",
"1 2 D 1 1 1 1 1 3 S S D | } F D D S D D D D S 3 2 1 & & & N ! x.3X0X8X8XrXrXrX,XL F F F D D A 3 2 1 1 1 3 4 3 2 1 & & * 1 S 2 1 ",
"1 4 +.J././.R.+.+.+.+.+.R.R.J.J.R./.[.{.(.~.R.+.R.R.R.R.R.L.1.-X8X7X1X8XwXrXtXyX|.OX{.[.^.R.J.F.+.+.D.R.J.D.J.R.R.R.^.^.D.+.S 1 ",
"1 S J.(.#X#X.XQ.J.F.J.W.(.(.[.XX#X#X*X*X*X&X@XoXoXXXXXoX@X|.I.:X3X1XC.2XeXwXrXqX4X4X*X#X@XOX|.(.^.W.(.(.(..XoX@XXXoX#X@X(.R.D 1 ",
"1 S R.(.@X@X^.J.J.J.J.W.(..XXX#X4X4X*X4X4X*X&X@X@XoXXXOX.X|.Y.:X3X<XM.<X0X0XeXqX5X4X#X#X@X@X|.|.(.K.R.W.(.XX@X@X@X@X*X@X(.R.S 1 ",
"< 4 R.(.@XXX^.W.W.R.R.W.(..XXX&X*X*X4X4X4X*X&X@XXX.X(.(.(.P.U.:X>XC.c.<X7X2X2XqX5X*X#X@X@X.X(.(.(.^.^.(.OX@X@X@X@XXX=XOX'.G.4 > ",
"> 7 =.=.=.#.^._.^.W.^.~.(.(.OX@X&X@XOXOX.X.X.X`.(.^.^.^.^.L.U.-XC.C.U.>X1XZ.Z.1X,X@XXXOX(.^.^.(.|.[.{.OX@X@X@X@XOX%X9 t r 9 7 , ",
"1 8 w q e r H.(.(.(.(.(.(.`..XXXOX(.~.W.W.W.W.W.W.^.W.W.W.K.U.c.C.c.I.c.C.i.u.z.;XOXOX.X.X{.(.|.|.|..XXXXXoX@X@XOX=.u q 8 q 8 , ",
"> 7 9 r r @.(.(.(.(.`..X.X.XXXXX`.(.W.W.W.W.W.W.W.W.K.K.K.J.I.c.-XP.L.-Xb.k.9.x.Y.OXoXoX@XXX.X|.|.[..XXXoXXXXXoXoX`.@.0 =.@.7 > ",
"> 4 G.G.R.(.(.(.(.[..XXXXXXXXXXX.X(.(.^.(.(.(.^.^._.K.J.K.J.L.1.L.K._.Y.c.z.n.x.Y..X.XOXOX.X|.(.(.[..XXXoXXXOXOXXXXX.X_.J.F.4 > ",
"> 4 J.J.).(.(.(.^.^.~.^.~.(.`.{.[.[.|..X.X.X.X{.(.(.^.R.J.F.o.o.J.~..X X-Xv.v. X XOX.X.X.X|.(.(.(.(..XXXXXOX.XOXOXXX.X^.F.+.4 > ",
"> 4 J.J._.(.(._.J.J.J.J.J.W.~.(.(.(.|..XXXOXOXOX.X.X(.^.J.J.o.o.R.OXXXoX-X-X;X@XOXOX.X.X.X[.(.(.~.(.`..X{..X|.|.|..X|.W.F.+.4 > ",
"> S J.J._.(._.W.J.F.F.J.R.W.^.(.(.(..XXXXXXXOXOX.X.X[.^.J.J.o...^.@X@X@X X;X@XoXXXXXXX.X|.(.(.^.^.W.~.~.(.(.}.(.(.(.).W.F.+.S > ",
"1 D J.J.^.^.J.D.F.F.F.J.J.J.W.^.(.(..X.X.X{.{.(.(.(.^.J.D.J.....E.XXXXXXXXXXXXXX.X.X(.(.).^.W.J.J.F.D.D.J.^.^.^.K.J.J.J.+.+.S 1 ",
"1 F J.+.J.D.+.+.+.F.+.F.F.F.D.J.J.^.~.R.R.R.R.W.^.R.J.J.F.+.....J.`.{.{.`.`.(./.^.W.J.J.J.F.F.+.+.O.O.O.+.F.D.D.+.+.+.O.O.D.F 1 ",
"1 S +.F.+.O.O.O.O.+.+.+.+.+.+.+.D.J.J.D.D.+.+.J.J.J.J.F.F.+.....R.~.~./.~.E.^.R.J.D.F.+.+.+.+.O.O.X.X.X.X.X.X.O.O.X.X.X.o.+.S 1 ",
"& 1 3 3 3 4 S S S S 4 S 4 2 < 1 1 1 1 1 3 S D F ........................| F D D 4 2 1 1 2 3 4 4 2 1 1 > 1 1 1 1 1 1 1 1 1 3 > & ",
"& & 1 < 2 3 3 3 3 2 2 1 1 * & & & * 1 1 2 3 S 3 F P .............. . .J D 4 2 1 1 * * 1 1 1 2 1 1 * & & & & & & & & & & & > & & "
};
