/* XPM */
static char *xpm_[] = {
/* columns rows colors chars-per-pixel */
"32 32 42 1 ",
"  c gray2",
". c #060606",
"X c #070707",
"o c gray3",
"O c #090909",
"+ c gray4",
"@ c #0B0B0B",
"# c #0C0C0C",
"$ c gray5",
"% c #0E0E0E",
"& c gray6",
"* c #101010",
"= c #111111",
"- c gray7",
"; c #131313",
": c gray8",
"> c #151414",
", c #151515",
"< c #161515",
"1 c #161616",
"2 c gray9",
"3 c #181717",
"4 c #181818",
"5 c #191818",
"6 c #191919",
"7 c #1A1919",
"8 c gray10",
"9 c #1B1A1A",
"0 c #1B1B1B",
"q c #1C1B1B",
"w c #1D1C1C",
"e c #1D1D1D",
"r c #1E1D1D",
"t c #1F1E1E",
"y c #212020",
"u c #222121",
"i c #232323",
"p c #252424",
"a c #262525",
"s c #272626",
"d c #282727",
"f c #292828",
/* pixels */
"tttt92;;#&22:::  2:::;#     &&49",
"ttt92:2&:2:::;@  ;:2;#@    9tttt",
"2;2;2:&;::;#&@   &:2&&    tttttt",
"22;2;;@22:#@      ::#    ;:9tt9:",
"2&&    22&@#&2;22;o     2:::::2:",
"#         #&2;2;::2:;  @::222:::",
"        #&tptq;222::2o *:2::&#o@",
"     &#&2ifptq2;:::2:* 2::2##   ",
"    @#;9tttt2;:22::#   :2:&#    ",
"    &;:9tt:22;2;:*      ;o ooo  ",
":@ @&;;22;2;;2:          ##:2:2:",
"2  #tt2;;2;22;@      o###&2:::2:",
"  #ttt;22;;&@@    ##&*:2:22::2:;",
"  ;tt22:2&#&  @@#&:yfp9::::::## ",
"  2;;2;;*@  o#&224tfffut2::;&#  ",
" o:22;2;&  #&;2ttttifft:2::#o   ",
" *:2#&&##o##*:tttt::2::*&#      ",
"  *#######&&9ttt922:::&@@24*    ",
"   o&##&&&:4tt2:::;;&  &ttt2    ",
"::##&##&#::922::&&#    ttt::o &;",
":::&##&#::2:::2&#o    #:22&@&*:2",
"4::;&##:2:::&##*&o    *:; &;:2::",
"te::&# 22:&##*2:::&o    @;;2;2tt",
"tt22#o:::#&#*9tt4::o  &#;ttt22tt",
"9### *:2;###ttfft92 @#&2ttt92;22",
"     &####&tppffp;  #;tttt92;22@",
"     o&#;2tfff2:@  @29t9:2;;@&  ",
"    #&::tttpf9&   @@229;2;2&&   ",
"   #&*24tt22&     &@;2;2;2;&    ",
" @&#*::9t2:&#&@&&#&;2;2;&@&@    ",
"#:te4::22;;@&#&@&@2;;22;&@     @",
"tttte2:::&#&@&@&@;;22;2@@    @@;"
};
