/* XPM */
static char *result[] = {
/* columns rows colors chars-per-pixel */
"64 64 237 2 ",
"   c #19191E",
".  c #1F1F25",
"X  c #1E2C2C",
"o  c #26262C",
"O  c #2A292E",
"+  c #242729",
"@  c #362D28",
"#  c #38352C",
"$  c #2C2C33",
"%  c #292C33",
"&  c #312F33",
"*  c #2C3234",
"=  c #2B3B3B",
"-  c #2B3738",
";  c #323236",
":  c #34353B",
">  c #35393B",
",  c #3A3A3D",
"<  c #383935",
"1  c #2E302D",
"2  c #48352A",
"3  c #563429",
"4  c #453B38",
"5  c #533F33",
"6  c #573C33",
"7  c #442D21",
"8  c #773B2E",
"9  c #683F32",
"0  c #29453D",
"q  c #37433B",
"w  c #474439",
"e  c #594439",
"r  c #674B39",
"t  c #7B4839",
"y  c #263C42",
"u  c #373941",
"i  c #3D3D42",
"p  c #353741",
"a  c #433F43",
"s  c #2C4444",
"d  c #294849",
"f  c #344643",
"g  c #3D4243",
"h  c #394A48",
"j  c #3C534D",
"k  c #274A52",
"l  c #2C5758",
"z  c #385757",
"x  c #334F51",
"c  c #345E60",
"v  c #386A64",
"b  c #2E6A6C",
"n  c #34645A",
"m  c #424345",
"M  c #4B4643",
"N  c #45454A",
"B  c #46494B",
"V  c #4B4B4D",
"C  c #4B4749",
"Z  c #554A47",
"A  c #47544E",
"S  c #5B544A",
"D  c #4D4D52",
"F  c #474851",
"G  c #4D5254",
"H  c #495B57",
"J  c #535354",
"K  c #555659",
"L  c #56595B",
"P  c #5B5B5C",
"I  c #5A5856",
"U  c #744E45",
"Y  c #685749",
"T  c #785747",
"R  c #645956",
"E  c #795C54",
"W  c #624F44",
"Q  c #48665D",
"!  c #5A645A",
"~  c #67645A",
"^  c #78675B",
"/  c #7C6B55",
"(  c #5D5E61",
")  c #575960",
"_  c #5E6162",
"`  c #586A66",
"'  c #46766C",
"]  c #5A766B",
"[  c #50746E",
"{  c #636363",
"}  c #6C6B63",
"|  c #65666A",
" . c #666A6B",
".. c #6B6B6C",
"X. c #676863",
"o. c #736B66",
"O. c #766A66",
"+. c #6C746D",
"@. c #667568",
"#. c #7C7264",
"$. c #74736B",
"%. c #7B726B",
"&. c #737B6D",
"*. c #757766",
"=. c #6D6E72",
"-. c #676E73",
";. c #6D7272",
":. c #647B73",
">. c #6B7976",
",. c #737374",
"<. c #747B75",
"1. c #7D7C73",
"2. c #767778",
"3. c #767B7A",
"4. c #7B7B7B",
"5. c #797575",
"6. c #706F70",
"7. c #8B4634",
"8. c #AB563D",
"9. c #875A48",
"0. c #955948",
"q. c #885C52",
"w. c #9D5B52",
"e. c #A45B49",
"r. c #B95C47",
"t. c #89654D",
"y. c #99644A",
"u. c #876658",
"i. c #936254",
"p. c #946B5D",
"a. c #9B6D5C",
"s. c #996855",
"d. c #89735B",
"f. c #9A735B",
"g. c #A7664C",
"h. c #B96648",
"j. c #A76A56",
"k. c #B56C55",
"l. c #AB735C",
"z. c #A8765C",
"x. c #B47355",
"c. c #B5735B",
"v. c #B9775C",
"b. c #866D62",
"n. c #966E62",
"m. c #837365",
"M. c #82726A",
"N. c #8B7B6B",
"B. c #8A7966",
"V. c #977966",
"C. c #857C78",
"Z. c #957E73",
"A. c #A37463",
"S. c #A47C63",
"D. c #AA7A65",
"F. c #BB7E62",
"G. c #B47963",
"H. c #A47D72",
"J. c #C66848",
"K. c #C4745B",
"L. c #C37B5D",
"P. c #CB7559",
"I. c #D5775A",
"U. c #CF6C51",
"Y. c #C37C62",
"T. c #CA7A64",
"R. c #D17B64",
"E. c #37827B",
"W. c #49887B",
"Q. c #5B837C",
"!. c #57857B",
"~. c #5C967C",
"^. c #79846A",
"/. c #6C8175",
"(. c #66877A",
"). c #788577",
"_. c #68957C",
"`. c #7B947B",
"'. c #76987B",
"]. c #69886B",
"[. c #77A47E",
"{. c #B8805E",
"}. c #8A856B",
"|. c #99856B",
" X c #848C74",
".X c #888477",
"XX c #958776",
"oX c #8C9677",
"OX c #879779",
"+X c #959776",
"@X c #A38A6D",
"#X c #A9856A",
"$X c #B78767",
"%X c #A7936E",
"&X c #AD936E",
"*X c #8AA37C",
"=X c #9CA67A",
"-X c #9BB67E",
";X c #B5A572",
":X c #AFAA76",
">X c #C7835D",
",X c #C28763",
"<X c #7E7E80",
"1X c #817E80",
"2X c #4B8884",
"3X c #548C83",
"4X c #5A8E82",
"5X c #4C978A",
"6X c #5A9984",
"7X c #7B8181",
"8X c #768886",
"9X c #659881",
"0X c #789B82",
"qX c #658E80",
"wX c #4DA38D",
"eX c #5BB68D",
"rX c #55B893",
"tX c #54AE90",
"yX c #6AA787",
"uX c #75A683",
"iX c #69B88C",
"pX c #77B785",
"aX c #77C98A",
"sX c #64C390",
"dX c #838383",
"fX c #8B8684",
"gX c #8C8C8C",
"hX c #868A89",
"jX c #958B87",
"kX c #89918E",
"lX c #939392",
"zX c #9A9898",
"xX c #8E9690",
"cX c #A98E87",
"vX c #86A881",
"bX c #8FB882",
"nX c #8CC486",
/* pixels */
"....gXgXdX4.,.L I J V g < < N L { J V V 4 , m i , C D % ; D i M J L 2.2..XdX4.4.2.,...P ~ { ~ { K V C B a u i i N D I _ X._ P ,.",
",.dXgX<X2.$.L C C m w m J P { { P J J q : g N K | G a $ , { m D K { ,.,.<XdXdX4.4.,.X.P ( { I D M g m C a i F F : N Z J P _ <.dX",
"dX4.2.K V D K V V C P _ K L P R L C i i m K =.-.) ; : ; $ P K J I ~ X.{ { <XdX,.J P P { P , N V N , > : p ) F % , N D I J V P 4.",
"| -.w , J K I ( _ > , P P | | L D $ i J  .| N ; : N F p & J P N D D V _ L V K K N L ..| D N V D C B D K ( G o : a D V m m N P { ",
"V , : : D K I P K I > A K V * $ : B D F i : $ : ) ( D u $ i P i < C _ ,.P ( G N > ; , (  .R K g D K L | ) $ $ a C m i g , N J D ",
": : u : i V F K J P i + + X X     . : u i K N < : : a F a : J : m { { { { ~ L V m : ; 4 : q V C g g N F i p : N K i m D L G u : ",
": i V P J m , , : : % d d d l l q ; & K N ( { L a : ; ; i i $ : P P K I L { L D P J ; # 2 2 + O 1 % o % p K F F K D _ | K p : : ",
"N I ( I N I | ,.=._ j q d n E.W.].X.V I K N L _ ( K i % $ $ $ a C B N V R P J X.X.N 2 2 8 7.8.t.t 6 6 4 $ i a a { P ) F p : : N ",
"D V J m J P | <Xo.z d S B._._.~.^.@.P <.P q V C V K I K i $ o $ ; B { { | L ( =.K & 8 / c.k.K.j.h.y.9.9.T , : F | L N u p : : F ",
"P J C m D { 6.R Z c v 1.v.$X+X@.~ ] dXX.P m N , & a i V K N u $ O : : $ ; O a N a a s.oX%X@XY.$X$X}.s.y.8.7.$ p F g u p p : i I ",
"L K i u { =.C A ' 2X(.G.K.G.d.^ u.8X,.I K > * * : , u i F p $ o O + $ % % + a F J u i.A.>X*X=XkXoXj.s.h.8.e.6 i F $ ; : , i m D ",
"Z D : I { V 4 ' V.C.A.l.j.y.p.+.+.D J D - s d y y = o u $ o o a D C N i V 6.dX{ =.gXC.i.l.#X$X0X#Xf.t.j.0.e.Z.hXgXK a i : : : i ",
"B B : K i : { ^ n.#.^ E b.C.).| K J ; + d k y y s x z - O , N G V V D C 2.4...6.2.hXzXcXp.j.}.B.8.V.jXm.u.B.zX2...5.4.P m , $ : ",
"; $ O , : m V R ..+.5.C.3.o.Z N w < + = x F ` :./.2X).] z > > w C V N 6.4.} P I ( 4.dXhXC.u.e.n.Y.lXdXC.jXlXdXP { { ..4...( N & ",
"; O : , ; ; a m P ..X...L V N > O + * g U m.3XqXV.4X1.B.~ Q H H H A N J L ( 6.6...P ,.4.2.lXjXlXfX7X{ 2...2.I , P L K I ,.{ K u ",
"$ u N J J N O < K P X.D m & + * 0 l j R V.9XyX|.@X0X}.p.[ :.:.(.qX4X3X] H G P ,.4.{ P K K 1XlXhX2.| R ..2.,.,.C I J P I X.L N i ",
"i ; , a ) =.( a i F G m + = d k z v [ }.D.wXXX#XOXD.Y.#XuXwX6X2X).).3XOX9XQ R 4.....2.{ J 3.lXdXL L P P { | ....D M P ..{ K N ; ",
"V N u D ) { -.=.J N F , h y p c ' !.yX0XF.0X#XF.P.K.XX@X$XXX0X X#X.XqXXX3X3XO.hX.X,.{ J 4.gXhX,.L P ( ~ +.{ P K M L | { K D p a ",
"G F m a : : F G J g u A x Y p.N.Z.`.vX$XXXY.T.P.P.G.D.G.x.N.V.l.f.|. XoX(.*.fX<XJ g N 4.lX,.2.K { ( -.,.I m m m _ ..P ( F N F G ",
"L { V m a , F | D u 4 E 9.j.l.3.A.@X+X@X&XG.T.K.v.K.T.U.>X$Xv.c.k.z.f.d.*.hXxXP P | ,.4.4.( _ | 2.4.{ , < , , K { L G D F F K I ",
"4.2.2.,.( K 4.2.I V R 0.#./.vXwXXX@XG.T.I.T.R.T.R.I.P.P.U.A.j.s.n.n.m.N.8XxX4.,.=.L I m J P ..,.=.i > N m ; a _ | N F ) D K K ..",
"2.4.fXhXdX6.( 2.,.I O.%.|._.yXhXkXoX,XI.I.R.R.T.K.k.w.w.w.V.Z.fXfXfX.XgXgX,.K I J V J V , ~ _ ( i , C ( J 1 V | G F G ( { ( $.2.",
"4.4.fXhX4.P ..6.| 2.4.$.}.0X&XF.L.,XT.I.I.c.p.i.i.e.n.Z.H.jX.X,.{ P ,.,.R K A Z C N N V m , q @ < ; O q J V N P ) G D N J { ,.,.",
"1XhXgX1XP P { ,.gXgXhXgX#.}.F.#XL.P.U.k.A.1XZ.a.w.n.C.2.{ N D { { ..;.V , ; g D V J K J < @ 2 e 6 e < > m > O N F N , : N ~ { 2.",
"dXgXgX_ J $.4.dX4.P ;.fXlXZ.V.V.k.k.A.cXjX1X| O.O.<X) ; , ; a | ,.{ L K V V L | ! J C 4 2 7 7 # 3 w f q f g * 1 > u N m N C { <.",
"2.fX4.{ { 4.4.{ L P X. .6.gXjXfXC.jXjXC.| D a F F ( ) i , , N N P P L G g - > < 1 # # # @ 7 3 r T / @.! Q H Q * m F K V N L P X.",
"2.2.( G | ,.{ } ....=.{ G J I { =.6...D : % i V J J D K F i p : i ( ( > f d 0 < # q # # 7 7.g.f.J.|.+X#.!.] Q B G L J V V ..( { ",
"6.,.X.K V { { ,.,.{ ( { =.K D ) ) N u i : < J P P G C P ( ) a , J J N > 0 k k 8 7.T / ! t y.g.}.J.{.&X*X~.~.] Q m ` P B D 3.R ..",
"K } X.P J J V J ..P F | | F p u : ; : F V : : N ( J m J V { hXdX{ V i q d n B.OX%X'.}.^.z.g.{.}.;X+X>X-XsX*X]./ ! , Z S { =.I { ",
"N P ! I J , V D K ( K K p p : % % ; : N F ; u i J D m L | dXgX<X{ dX..j x ^ f.D.|.OX*X'.*Xv.,XyXnXsX:X=X].|.}.#X] ] x.f.E } | ,.",
"V V I P J , D F N J K ; $ * y - % O O G D : F , & i V P C.gXhX=.P ..3. .Q } d.%. X~.[.tX=X>X-XrXaXsXsX-XiX[.+X{.oX|.x.S.k.M.dXP ",
"J m V P D m u , o % i : : y * d u m e ; D J F : $ a C L ..hXgX6.G ,...;.<X,.] m.).] `.~.;X;XnXrXaX[.&X;X-XiXuX%X>Xv.v.H.j.cX.XD ",
"D M , J G , : > < q > 0 * > 3 Z U S < o B F * ; i i i F | gXdX4.K K { {  .3.).:.} :.N.6XnX;X;XyX%X+X&X,Xv.OXG.>X$X&XP.G.H.Z.P G ",
"V D D B , ; * O + + 0 q h h *.3X).m.j.# , w O q ) ( D i {  .4.4.,.D | I I P -.3.+.+.a.).bXpX;XyX`. XD._..X|.x.U.K.@XF.j.i.O.R D ",
"V J N , $ - 0 0 0 d d w e.oXtX5X~.m.t.U 4 Z Y w : D | P <.2.2.gX.X3.{ P Z V K _ ,._ T &.=XpXuX5XqX}.p.Q./.B.^.g.x.h.h.T Z.#.E V ",
"C q , + * - 0 l l E.} |.oXoX=XwX~.@.}.g.i./ y.y.q.m , ..dX,.C.4.D ..,.| G N N B  .} h ~ $X[.6XwXXXn.d.^ m.b.>.j.h.y.y./ C.O.J V ",
", , ; y < k l v '.|.#X*XsXbX-XrXeXwXB.|.j.t.}.f.h./ m C P ,.4.P V M ..,.{ m , < F _ C H B.3XQ._.M.u.w.q.E ] { i.e.t.0.Z.C.K D F ",
", : * h s k j $XL.XX*XaXaXaXnXrXiX[.+Xz.z.^.|.f.{.x.R $.dXC...P V N N } _ , > w L ` G l ` <.N.;.u.5.1X3.<X8X8X<XB.t.V.Z.R u a D ",
"i V > f y z #.+XpX5XyXpXpXbX*X0XOX|.#XV.)._._.}.h.e.} dX{ P P P V m i N J D B P =.,.( z A ! ^ ~ 2.<X .K F ) ( >.~ Z 6.| N a F a ",
"{ _ Z , h [ Q.Q.'.wXyX_.yX X[.). X XN.f.z.V.S.n.h.b.5.2.K V V G P J N u N J | L ) | K ] 3.$.O.4.).=.F p - p D ( 2.6.<XlXgXhXgX1X",
"4.dX{ E E } +.<.:.5X3X(.>.(.Q.(.*.u.i.n.A.N.n.b.b.o.| m , , u , N K G F i p : i a i F D | | | dX,.V $ , K R I K 4.gXlXlXgXdX4.1X",
"4.2.| $.6.b.q.u.[ <XqX>.(...u.u.a.A.n.A.q.X.( R P V u , i N a i , : : $ % % o % % % ; a i F D ) K m m { P J J { P fXgXgX4.....4.",
"..{ L V 2.dX,.u.u.] %.Q.$.p.a.%.M.M.O.P a a D { N K {  .{ J ..K , a u : a , : ; $ $ o % ; $ p : ; N P V B G { ,.{ ..,.7X.X| ..,.",
"~ ( L P | 2.=.hXjX6.u.^ } $.o.~ ~ 5.6., : & K 4.,..XdXfX{ | V I N , , N : , , a a a : % o $ & o , P C V { ..P m | ..4._ =.....{ ",
"{ ( J ~ { =.6.P 4.>.>.{ E q.X.=.{ m N L ( L 4.dXxXfX<. .~ e e e e 4 ; A D L K J { G a , O : % % u D P { D V L { ..4.,.{ 2.X. .{ ",
"{ { J P ~ | 2.{ V I  .>.7X7X2.) , > V _ ..,.2.dX/.! w e r r 7.r 5 6 4 < , V ( 6...( F a $ m o o ; D I N ( X.{ X.4.{ 2...,.| { { ",
"( 6.{ K _ R ....m , M D L ( | i : , P J ` ! ) G q j w Y / t.y.t.t./ 9.t W Z M : : J D L ( | F % ; : D -...P ..X.{ ,.6.X.,.{ ( { ",
"{ { +.K _ D J X.J u g u p F a : K K F h i b b G Q Q ^.f.g.t.s.j.y.0.T U Z 5 Z t.Y a P 4.( N K J % i 6.| P P .. ...2.2.6...{ { { ",
"~ _ ....L D J L P N V g u N p N I , h 0 v ~.yX9XuXXXv.D.j.j.y.q.t.7.T t.s.s.f.t.k.O.=.( a u ; F u 2.,.p g C q J _ I J D J I P { ",
"( {  .,.L V 4 ; = f ; V K : : i ; q n ' oX'.yXyXOX$X$X}.l.G.K.c.P.x.|.z.z.j.J.x.J.Z.K ( : o : F ( =.: a Z j G +.{ ..| P D m V D ",
"P ..P { ~ B 1 0 d n j h ; % $ + & f v #X|.2X3X+XL.$X+XoXyXoX@XY.P.x.}. Xf.h.J.p.5.4.,.K p u K =.N a p A z j M } 3...{ ;...K _ P ",
"{ P I K +.B 0 - v wX-XS , $ 6 5 e H M.|.3X<X(.V.XXiXiXyXOX'.S.x.J.v.z.}.z.k.h.O.C.).=.p i | { i $ O h c W.6X*X XR ;._ V J $.X.P ",
"P P K G ) i s v yXeX$X$Xg.8 6 6 r 7.B.(.(.!.1.).~.iXaX6X}.}.x.l.g.x.c._./.e.b.3.7X .F ; N D D N %   z [ '.9X X'._.m ^ +.h m J P ",
", m N i , u x '.#X`.%X).i.9 3 6 r t.d.u.M.] X.$.&.]._.hXV.Z.1.(.z.z.1.Q.%.C.gX7X;.G ; ; : , a J $ o V ;.A.Z.F.uX~.OXoX+.&.J i , ",
", ; ; > G , 4 z.V.4XOX1.n A r Y #.d.E i.jXfXC.%.b.j.k.M.1.<.:.Q.(.N.B. .C.2.6.D : ; p p : % % g K { C.1Xn.&.D..X9X*X@XyX$XC.P a ",
"1X=.( | 6.<XO.M.*.@.u.^.] W.].).d.q.U a m { 4.1X.XM.j.6.%.` o.} N.$.m.5.<X) G J ( P F i i u u F K G N =.dXC.a.1.}.#XOX/.|.lXdX=.",
"4.dXdXhX,.2.zXzXgX.Xj.q.} @.d./ t.u.3.V $ ; i G { =.;.{ } ;.3.<X<.3.$.3.,.( <X2.4..._ K V , m V ( , G V 3.lXA.<..X_.+./.xXgXdX4.",
"2.<XdXgXlXdX4.4.<XlXxXfX1.O.n..XjXgX..J D i : < i J J =.>.-.=.3.8XhX2.=.| ,.dX<X;.~ K K N , N P =.; m N K 8X8X8X*.+.0XkXgX7X4.2.",
"2.2.3.dXgXgX6.4.| D ,.,.6.fXgX1X1.{ J > m V C , u : , u ; : : : N ) { { dX4.4.{ P B C V J K V ,.) ; p ; , K dX4.dXdXdX,...2.{ X.",
"..4.,.{ dXlXgXdX2.J B J { 2.| { ,...P N ; > N N > , G N p ; $ N m i K K hXdX2. ._ ..{ { } { 6.{ u N  .R X.2.,.} $.| { { ,...J { ",
"X.| ( R 2.zXlXdX{ J I ,.C._ I hX..{ ~ J J i , m C P K N > $ ; _ D N M K 6.fX4.,.} ..{ ,.;.4...i N _ B K V m V { { _ _ { } K P } ",
"| { ( ..gXzXgX=.J { 4.4.) V ..,.4.6.| K { X.X.L ..J a g > $ : { V V J 2.dXdX4.2.{ ,.2...{ { V g ( V , g B i J K K ~ { | P J { { ",
"P { K 7XlXgX4.{ P { ..6.V } ( J { ,.R { ..P B B ( w , m : $ B I M I K dXhX4.4.2.{ P L G V J R P { K ( { _ V V J P { ~ _ J P { { ",
"P K 4.gXgX4.;.2.X.{ | P J V , ; > L ,.L J V C N m , m , $ $ L V V V ( <XdX.X2.2...I L I P { { { } { { J M m , g C P _ I K { { { "
};
