/* XPM */
static char *_59f0e592eeb4fefe00dcb6d82e549a7kx8PghyD7pfGIyzu[] = {
/* columns rows colors chars-per-pixel */
"128 128 62 1 ",
"  c black",
". c #050000",
"X c #0B0000",
"o c #0E0000",
"O c #100000",
"+ c #160000",
"@ c #180000",
"# c #1E0000",
"$ c #200000",
"% c #240000",
"& c #280000",
"* c #2F0000",
"= c #330000",
"- c #370000",
"; c #3A0000",
": c #3D0000",
"> c #430000",
", c #450000",
"< c #4B0000",
"1 c #4E0000",
"2 c #520000",
"3 c #570000",
"4 c #5A0000",
"5 c #5E0000",
"6 c #630000",
"7 c #660000",
"8 c #6B0000",
"9 c #6D0000",
"0 c #720000",
"q c #760000",
"w c #7B0000",
"e c #7E0000",
"r c #830000",
"t c #860000",
"y c #880000",
"u c #8F0000",
"i c #900000",
"p c #950000",
"a c #990000",
"s c #9C0000",
"d c #A10000",
"f c #A50000",
"g c #A90000",
"h c #AF0000",
"j c #B30000",
"k c #B60000",
"l c #B90000",
"z c #BD0000",
"x c #C30000",
"c c #C60000",
"v c #C90000",
"b c #CD0000",
"n c #D10000",
"m c #D40000",
"M c #DB0000",
"N c #DE0000",
"B c #E20000",
"V c #E70000",
"C c #EA0000",
"Z c #EC0000",
"A c #F20000",
"S c #F70000",
/* pixels */
"1<221<,>,,<<<<<122<1<;$*xSSSSSZ*+:,1<1221<:-&jSSSSSSSAly2:12211,;#$qSSSSSSf@&;><<1111111222221<112111<;i>NSSSSSS9&-><11211212212",
"1<121<,,,<<<,<,<11<1,;@:mSSSSSm=+=,:<22221>-&fSSSSSSSSSh>=22211,-#=iSSSSSSx-=:,<1111<1<<22221<<<12121<:t:NSSSSSS4&-><11212222211",
"11<11<,,<<<<,,,<<<<1,&O>MSSSSSk=@*>>122221,;%sSSSSSSSSSk%*<<<>,>=@>xSSSSSSN:=>,1111<,1<><2221<<<11<<<<,1>vSSSSSZt&=:,<<,,2122112",
"11<12<,>,,1<,,,<<<<<>&@5mSSSSSs<$-,<222221,:*9NSSSSSSSSv=>2;;;;;&+3ASSSSSAv-&:,111111<<,2222111<<11<><,:-aSSSSSSh**;>,,>>2,12112",
"211221,,,<<1,,<<<<<,:#o7ASSSSSy3-=<1222222<,=%1sSSSSSSSSx52%#&%*%+7SSSSSSSp%&->111<<1,,<12222221<221,<,-*tZSSSSSd*&=>>,<,1>,1112",
"211<22<,,<<1,,<<<<<,-+orSSSSSSa7:;<12222221<;*,7kSSSSSSSSVy&Ooo%$@3SSSSSSi4%=;>11111<,,<<222222<<221,1,--iSSSSSSk-&=,<12,<,>><11",
"1111221<,<121<<<<<<>&XOgSSSSSSh:*:,<1222112<>;114nSSSSSSSSSu-X %oXwSSSSSB;#&;:><2111,,,<<222222,<121,<<-;iSSSSSSB<*=,122,,,:>111",
"1122221<,<22111<<,,:$X#kSSSSSS9&*;,,1222<121<,:;*7NSSSSSSSSce# o.#dSSSSSb$+*:>,2211,,>><<222222,1121<1,-*eSSSSSSS2*->122<>,,><11",
"2112222<,<2222<<<<>-$o<NSSSSSZ>%=;><1222222221>=%;tSSSSSSSSSM2X++>vSSSSSv%@=><12211>,,<1122222222121<<:=&2ASSSSSc:#=:1221>,,<122",
"2112222<,12222<<<>;=$$sSSSSSSm*$-:<<1122222222<;&*9ASSSSSSSSAc<-2cSSSSSSi%@=>122112,<,12211111222221,,>-**lSSSSSh1%*:<22,,<<1222",
"2122222<<122221,,;**,7VSSSSSSc$#-,1211222222221:=*8NSSSSSSSSSSBnVSSSSSSA2##=>12211111,1121<<1,122221,:>:;-5BSSSSh4=*;<21,1<,,222",
"22222221112221<>:*#*0lSSSSSSSm$$;,1212222212221<:-3aNbSSSSSSSSSSSSSSSSSM:+$=>11221121<<122<<<>122221<::,;;<vSSSSn8>*;,1>,1>,<222",
"22222222<<111<,-=#O-dCSSSSSSSN&&;<11222222122221,>>,93hASSSSSSSSSSSSSSSa&O%-,112112121,112<,,,112222<:>,;:;sSSSSCw5=:,<,,<,><222",
"22222221>,<1<>:&#oo9VSSSSSSSSn$*:<12222122212222211,:*&rSSSSSSSSSSSSSSS0o@=:,112112,,<,<221,,1211222,>,,:--wSSSSAue-:,1<1,,,2222",
"222222221,1<,:=$O+,MSSSSSSSSSy$-,122122212222222211<:*#,VSSSSSSSSSSSSSS1o&::,<11211>,,,<222<122211221,,,:==7ASSSSxw;:,11221<2222",
"12222221,,,>:;*$#8BSSSSSSSSSS2*><2221122122222222211,;&:eMSSSSSSSSSSSSS1O=>>,,12211,,,,,<22<1222222111<,:--5ZSSSSA5%-:1222212221",
"122221<<>::;:-*6hASSSSSSSSSZZ<:<122221222211222222221,:>>1xSSSSSSSSSSSS6@=>,1112111,<<,<122<1222222111,,:-*3ZSSSSS0O*;1222222221",
"12221<,:-=&&=>fASSSSSSSSSSSSk<<1222222222222222222221<,>-%4SSSSSSSSSSSSd$=:,11221<<,11<1221,1222222111,,:-%-nSSSSSy$%-<222222221",
",2211<>;&#%;7bSSSSSSSSSSSScd6,<22222222222222222222211<,;*-7MSSSSSSSSSS9$=:,1221<,,>1,<122<,<22222221<<<>=%$aSSSSSl@$=,12211222<",
",221<>=*;=,tASSSSSSSSSSSSm9;4,<2222221222222221222221221,>-:dSSSSSSSSSSp&=:<121<,>>><,,<22<1<22222211,<<:=%#qSSSSSn%#*><1222221,",
",111,8rd0ylCSSSSSSSSSSSSSSi;92<222222222222222<222222221<,>,qVSSSSSSSSSv&=:11221,>>>,,,<22>,<2122221<,1<,-&#4ASSSSZ9@$->,<12121,",
"><<,8NSSZSSSSSSSSSSSSSSSSSj:41<2222222222222222222222222232>1cSSSSSSSSSm*-,1122<,>,<<,,122::,<<22222<>1<,;*#<ZSSSSSa&o$=;:,111,:",
";;;qSSSSSSSSSSSSSSSSSSSSSSc33,<122222222222221222222222222<:-dSSSSSSSSSh&;><1211<,<1<,,122::,>,122222<<1,-*$6SSSSSSx2XX@%*<6gs<-",
"#&5mSSSSSSSSSSSSSSSSSSSSSSNqe1,<122222222222211222222222221,;5xabSSSSSS0$-:<1111<<11<,<11<>>,>,,<1221121,;=&6SSSSSSCp&Oo@$zSSAu#",
";rBSSSSSSSSSSSCbASSSSSSSSSVq8=:,1222222222222122222222222221>>2#4ASSSSS<O*:<1<111<11<,21<,<<,>>,<2221<1<,>;*<ZSSSSSSZu4qslSSSSC<",
"vASSSSSSSSSSSAp1rdSSSSSSSSCw*$-><122222222222112222222222221,;*#=jSSSSS4o$;,12222121,,22,,12<>,<<<11111<,>;=>cSSSSSSSSSSSSSSSSSm",
"SSSSSSSSSSSNAxq&:>kSSSSSSSSg-+%:,112222222222112222222122222<>-$=wSSSSS0o@-,1212211<<122,,11<<<<<,,<<<<<,>:--4ASSSSSSSSSSSSSSSSS",
"SSSSSSSSSBhtvp6$%+iSSSSSSSSV2+@*,<12222222222<<22222222222221<:-<3ZSSSSu++-,1222211<1221<,121111<,,<<,<<<>:-=2SSSSSSSSSSSSSSSSSS",
"SSSSSSSSAw:;rw2&+OlSSSSSSSSSy*O$:,12222222221<1222222222222211<:-4VSSSSz-+=>112221<12222<,21121<1121<<<1<,:-&<NSSSSSSSSSSSSSSSSS",
"SSSSSSSSx,&=24,*+@vSSSSSSSSSVq%%-:<1222222221<12222222222222211>&5BSSSSSi#*>112222212221111<12<<11221111,>:-=hSSSSSSSSSSSSSSSSSS",
"SSSSSSSSq$#=,,:=$%VSSSSSSSSSSBw,%*,1122122221,<2222222222222221,=<VSSSSSC7=:<12222221121121<<21,<122<11<,::<gSSSSSSSSSSSSSSSSSSS",
"SSSSSSSSg2#-:>>;&=ASSSSSSSSSSSn0&$:112222222<,<2222222222222221<>>nSSSSSSn**;<122221<<11111<<<<<<122111<>-5rSSSSSSSSSSSSSSSSSSSS",
"NSSSSSSSmq;;:,<>;=uSSSSSSSSSSSSp=#-,121122221<<1222222222212221<,:xSSSSSSc##=<1122221<11112<<<<<1122211,:;1dSSSSSSSSSSSAzpupwzjx",
"4cSSSSSSSu3=;,<<,-*6BgmASSSSSSSn1#*>,11112221<<11222222221222211<;9SSSSSSA>O&><<<1222<<11221,<<<<122211,-:5cSSSSSSSSCjgr2:=%&eq5",
"+7ZSSSSSSlq&;,111>-&,534hSSSSSSSf;=:>,1112221<<<12222222212222211,>vSSSSSS9+#:,,,<2222112221<<11<<12221:&&rNSSSSSSSSg*::;;:-;65&",
"O%sSSSSSSCd@-><11<>;=-&@:mSSSSSSSh<->,,<12221<<<1222222222222221<,;<fSSSSSN5%=:,,<221221122<<1<1<<2222,-@$gSSSSSSSSSa-;:;;:>><<$",
"+X7SSSSSSSf@=:<121,,:-&#@4SSSSSSSZe-:>,,11221<1112222222222222211,;&3CSSSSSB8%#-,<12<<11121,<1<<<,1221:&@6ZSSSSSSSZAi=:>>::,,>;%",
"@X2CSSSSSSd+*:,121<,>:;*#$BSSSSSSSZl2>><,1222<1<22222222222222211,;$%tSSSSSSA6o$:<1111<112<<<1111<<2<:=%&dSSSSSSSSff5;>,>::,<>:*",
"$o:mSSSSSSi#&;,1211,:>>:&%gBSSSSSSSSj3:>>,121<1<22222222212122221,;$o*jSSSSSSdX@-<12111112<<12211<<<>-$-4BSSSSSSSb6>>,<<<>>,<,>=",
"&+=nSSSSSSf$&;>1221,;>,>-=8hSSSSSSSSSSy,;,<121112222222222212222<,:&+@6ZSSSSSC<&;,11221111<,<222221>-&#1kSSSSSSSj5:><11<,>>>>,,;",
"*#&gSSSSSSc*&;><111::,1<>;40SSSSSSSSSSM5*>,1111112222322222122211<,=$%2BSSSSSSm44><12221<<<,<122221:-$@wSSSSSSSk&#>11<1,>,,,>,,:",
"-%#1NSSSSSV>&;><11,::>1<<,22xvSSSSSSSSSu#;,<<,<111222222222122111<<:=**uSSSSSSSzf,><1<22<<<,<22222<;=$$dSSSSSSSr@&>11<<<,<<>,,<>",
":=$@aSSSSSSv,=><1<>::><<<<,-29BSSSSSSSSn$-,<,,<1<222222222222222111<;=&4CSSSSSSSSu<:,>11,,,,<22221<;*%,xSSSSSSs%*-,<<<1,>,<,,,<,",
",:*$0SSSSSSSi$:111,::>,,,,,:1<fCSSSSSSSS7-:,,<222222222222222222112<>-%;xSSSSSSSSZt,;;<<<<,><22<11<:*&rZSSSSSm7&:,<1<<<<>,<<,,<1",
"<,-$,ZSSSSSSw#>111<::>>,<<<>>=7vSSSSSSSSA7=:>,1122222222222222222121>;%&aSSSSSSSSSn1&=,,,,,><11<<1<>=;kSSSSSAg,=,11111<<><1<,<<1",
"1,;*;CSSSSSS6#,11<,:;>,<11<>-&<eASSSSSSSSb%=:><122222222221222222221<:*%<ASSSSSSSSA6$=>>>:,,<1<,<1><2rZSSSSSC9;-,<<<11,,,<1<,<<1",
"1<::*kSSSSSS1#>111,>:,<<<1<<:*-:eVSSSSSSSS=*;><1222223222222222222221<,=;8VSSSSSSSSa*<::;=;:><,,,:*4NSSSSSSSB4&-<1<<1<,,><1<<,<1",
"<<>;$6SSSSSS1#>1222>:>,,><11>-&#2kSSSSSSSS4&=:><12222222222222222222221,>-uSSSSSSSSZlCy<=*=-:,>>>-&2ASSSSSSSm2=:<1111<,>><11<,<1",
"1<>-$4SSSSSS5#;12221,:,>><12<:=$7lSSSSSSSSCq%=:,<1222222222222222122221<,->uASSSSSSSSSN7*#$&-:::-=&6SSSSSSSme--,1122<1<,,111<<<1",
"2,:*#5SSSSSSq%=<2222<>:>>,<1<>&=0vSSSSSSSSSm%*->,,122222222222222122122<,>>=zSSSSSSSSSZs-++$*-;;***wSSSSSSBk@#=<2221,<,<,11<<1<2",
"2>-&$tSSSSSZ4-=>22222<;>,<<<<>&;imSSSSSSSSSS8&=:>,,122222222222212222221<,>;wnSSSSSSSSSC0-@@%=-*&=:gSSSSSSgt+%;12211<<,<<11<1122",
"1:=$OwSSSSSb3*=>12221,>,,<<<<:=4MSSSSSSSSSSSCu;;;:>,<12222222222122222211<,>*=pZSSSSSSSSAg3-%*=*&6uNSSSSSSw*#=>222211<,<<1211112",
"<>=#+8SSSSSk2*->12221<<,,11<>*=dSSSSSSSSSSSSSAvt21=;,11222222222222222221<,>;#+7SSSSSSSSSSVj2=*&*xSSSSSSSn>+&-,12222<<<,<2221111",
",>;%+6SSSSSd=%->12222111121<:#2ZSSSSSSSSSSSSSSSSmq%*:<12222222322222222221,,>*@:NmSSSSSSSSSSNk2<uSSSSSSSn7+#=:<122221<11122<,<<1",
",::&+5SSSSSj$$-,1222221<11<<;$bSSSSSSSSSSSSSSSSSSd%%=,11222222222121122211<<,;**:>tlSSSSSSSSSSASSSSSSSSS5#@&;>12222211<111<<<<<<",
">:;&+9SSSSSc$%-,1222221<<1<,*=SSSSSSSSSSSSSSSSSSSb;#&><122222222211<<11111<1<,>::=&>vSSSSSSSSSSSSSSSSSSn-#&=><1222221111,<<<<<1<",
">::&O5SSSSSB=&-,122222111<<>#5SSSSSSSSSSSSSSSSSSSSt@&:<<22222222211<<1<11111<1<,>-&=qNSSSSSSSSSSSSSSSSSd##=:<11222221221,<,<<<2<",
">:;%o9SSSSSZ3&-,122222211<>-#gSSSSSSSAmBSSSSSSSSSSC,$-,,12222222221<<1111122111<<>-*:59fSSSSSSSSSSSSSSC1+@-,11111212111,>,,<112<",
",:-$XySSSSSZ<$*,<222222<<:&$,SSSSSSSSk&&10CSSSSSSSSl2*;>,122222222<<<<<111221221<<>;>:=-8MSSSSSSSSSSSSf%@&:<211<1111<21,,,<,1221",
",>-$XwSSSSSV*#*,<222121<>*+&gSSSSSSSSp=*$+xSSSSSSSSSV<;:>112222222<11<11112211211111<,:-&8CSSSSSSSSSSB8#-:,1111<1212221,,<,,1121",
",>;%OiSSSSSB&+*>1222211,;$@3SSSSSSSSM2;-*@iSSSSSSSSSSa2:><<1112222<<,<<111211<221221<,<>;1xSSSSSSSSSSp;%:,<11211221112<<,<<<1211",
",>:=+qSSSSSV;@=>121211,:=@-kSSSSSSSv5:;:;*tSSSSSSSSSSAv>;:::,<222211<<11122111122221111<>1wCSSSSSSSSm4@&>,<12221121112<<<11<<1<1",
",>:=$3SSSSSA:@=>1111,,>;**yASSSSSSZ6=::>>-7VSSSSSSSSSSSnk8#*:,12211<,<222222211222221211<<2pcSSSSSSSd>@-,,<12221122111<<<<<,,,,<",
",:;=$3SSSSSS,+=><1<<<<:-%<nSSSSSSSq=-::,>>,wzSSSSSSSSSSSSl@@&-1121<,<12212211112122222121,&&8SSSSSSSs:#><<<1222212211111<<<<,,,<",
">;;*@1VSSSSS1o%:<1,,,,=%#8CSSSSSSb**->,<>,:;7BSSSSSSSSSSSN=o+*,<11,,<12112211<12222221122,*:2nSSSSSAt-%,<1<1222222212221<<<<,,,<",
">:;&@2BSSSSA-o#:<<,,,:%@#jSSSSSSA7$*;,<<<11,-<cSSSSSSSSSSSg=@&:,,<,,12211221<<12122221222,%-2mSSSSSc5==<111122222212222<<<<,,,,<",
",>;$$6CSSSSC=o$>11,,>-#+=CSSSSSZe=%=:,<1,111<>:3gNSSSSSSSSSj5>=-;>,<<2222221,1<2222221221>$,rSSSSSS7+&>111<122222222212<<<<<,,>,",
">:-%#wSSSSSZ5#%,1<<<:-@#9SSSSSSl%$$;><1111221,>=&3ZSSSSSSSSSNq*%&=;:,122222<<<<1222211221>#6bSSSSSC;+*,1111222222222112<<<,<,<>>",
">:=$OqSSSSSAq:*,,,<<;&@2nSSSSSSrO%&:,<2122221<>-*&6aCSSSSSSSSSx-#&*=:,21122111<1222211111:#jSSSSSSx%#-<111<222222222122<<,,,,<,>",
">:=*$aSSSSSSl>*,,,<,==,jSSSSSSA5+#-:<,11122221,:=&$&tASSSSSSSSS9###$*:<<121<11<122221<,<<,$cSSSSSSp@$;<2211222222222122,,,,,><<>",
">;*&<jSSSSSSC:%-:>>-=tvSSSSSSSN1#&:,1,12222222<,:-*$=hSSSSSSSSSBr-#O@*:,<11111<12222221<,>1ASSSSSA4@&:122112222221111<1,,,::><<>",
",;&>tmSSSSSSC##&=;-*=sCSSSSSSSs-%-;,211222222221,>;&$0ASSSSSSSSSSnlf9,=:>,<122<<2222222<<;0SSSSSSN>$;,121122222221111<<,<,>;>,<,",
",,%wSSSSSSSSV;##&*&%*lASSSSSSc;#&-:,1112222222221<,:*<lSSSSSSSSSSSSSBi:,;;:,11112222222<,,rSSSSSSv;&:<222122222222111<<<<,::,<<,",
"<>$3SSSSSSSSSg@O@#@+;fSSSSSSc1#$=;:,11112222222221<,;>rmidVSSSSSSSSSSB63*&=><1112222221<,8fSSSSSSk-*:<2222222222221111<,<<>:,>,,",
"1:#;ZSSSSSSSSA#.XOoX2zSSSSSSy$+*;>><1111222122222221>><1-*<pSSSSSSSSSSzh,$%-><<12222221,,rkSSSSSS7$=>1222222222222111<1<<,>:>>><",
"<;$$xSSSSSSSSSeOXoO*kASSSSSC1O#=:>><1<12222112222222<,:--%#%cSSSSSSSSSSAw*@&;,11222221,;15dSSSSSS-O;,1222222232222<11<<<<,>>>>:<",
"1>%$gSSSSSSSSSSz850xSSSSSSSg$+&-:>>,212222212222222211,::-$O>BSSSSSSSSSSM4#%*;,222222<;%><gSSSSSZ&+><2222222222222111<,,,,,>>,:<",
"1>=$5BSSSSSSSSSSSSSSSSSSSSC5+@-:>>><2222222<12222222121,>:*##wlvZSSSSSSSSc3%&::122222>*@%<BSSSSSz=$,12222222222221221<<,,,<<,<>1",
"1,;&$-dSSSSSSSSSSSSSSSSSSSn=X$;><,><21112221122222221221<,;*%**<eASSSSSSSSy,42>>><11,-$+%wSSSSSSi,*<12222222222221222<<,<,<1,<,1",
"1<>*#O&wSSSSSSSSSSSSSSSSSSm=o&:,<<,<<,<<122122222222122221>;-===<gSSSSSSSSVui6>*&=;;-%#-9BSSSSSSw,=<12222222222222122<<<<<<111<1",
"11,;*@X&xSSSSSSSSSSSSSSSSSN*X&:,,111<<,,<221122222222222221,,>;--3xCSSSSSSSSBe-%$&&&$@#qbSSSSSSA-:>12222222222222212211111112111",
"21<:=#.OySSSSSSSSSSSSSSSSSc#X%;>,<1<,,,,,22112222222222222221<>;*&:8dZSSSSSSSb5*%&*%#@1VSSSSSSSg$:,122222222222222222222112111,1",
"22<:&@.XrSSSSSSSSSSSSSSSSSv*@&*;:><<,,<,,211122221122222222221<:-&$%>pSSSSSSSSVf1>*&#$uSSSSSSSn%*>,122222222222222222222122121>1",
"22<:*@..tSSSSSSSSSSSSSSSSSSblg;*-:><<11<,2112222211111222222222<>=%$#4SSSSSSSSSSch06<9MSSSSSSSf@=>,122222222222222222222222221><",
"21>=&+.&vSSSSSSSSSSSSSSSSSSSSV4@&-:,<1<<<22112222111112222222222<>-*#:ivSSSSSSSSSSSSBASSSSSSSSv$=>,12222222222222222222<22222<>1",
"1,-&$+=jSSSSSSSSSAAASSSSSSSSSS0+#*;><<<<,,111222211111222222221211<>-:,qSSSSSSSSSSSSSSSSSSSSSSN$->,12222222222222222222<12221<;<",
"<;&%%:gSSSSSSSSAzq0rjZSSSSSSSSc;#&-:,,<<,,<1222211111,12222221122<221,:>xSSSSSSSSSSSSSSSSSSSSSA5-:,<12222222222222122221222111,<",
":*$#;xSSSSSSSSB5&::1qiSSSSSSSSSa&%*:>>,<,,1122221111<,<1222211222<22221,2BSSSSSSSSSSSSSSSSSSSSSSs1><1222222222222222222122211<<<",
"=%#-uSSSSSSSSC5#@##&24sMSSSSSSSAt=&:>><<<<1212222<11<<<1122121222112221<>5jSSSSSSSSSSSSSSSSSSSSSSb2=,112222222222222222222211<>;",
"%$=kSSSSSSSSSz$@#%%&-=&4CSSSSSSSAr;-::,,,<1112222221<<<1222211222212221<>=*wlSSSSSSSSSSSSSSSSSSSSSg$&><111222222222222222221,>;*",
"$<gSSSSSSSSSN0$#&-=--=--eczZSSSSSV9#%-:>,11222222221<<<<122212222222221<,-$;nSSSSSSSSSSSSSSSSSSSSSb-%*,<<112222222222211111<,:=&",
";vSSSSSSSSSx5=%=-:::;-;=&#o2BSSSSSf=@*;><11<1222222<<1<1222211222222221<,*@,CSSSSSSSSSSSSSSSSSSSSSZd,;><<11122222222221111<<,:*&",
"cSSSSSSSSSm8=&=;:>:,:;::=@.+hSSSSSB3$%->,,1,<122212<<111222212222222221<>&+rSSSSSSSSSSSSCNSSSSSSSSSSAB<>,1111122222222<11<<<,;=3",
"SSSSSSSSSg-;==:>>>>,>:::-%X 5SSSSSSy*@*;>>,<2<12<<1<<11222222222222222<,:*,xSSSSSSSSSSSn9=gSSSSSSSSSSSd>:,111122222221,<<,,,4yxB",
"SSSSSSSmf;==;:>>>>>>:::;=$OX:bSSSSSg;O%-;:>22122<<1<<1222221112222221<>3uznSSSSSSSSSZch6#X:eykZSSSSSSSSw:;<11<<12221<,:-=2pbSSSS",
"SSSSSSZ7:-::<,,,>>>>>;:;=#O#4bSSSSSl,o#*-,,22121<<<<<1122221<<<<11211>:iSSSSSSSSSSSbq,1:;*$##&2MSSSSSSSSnf<,,,,<112<>;*&>NSSSSSS",
"SSSSZy<$%->><,,>>>>:>;;-=++2nSSSSSSZa$#*-,,221121<<<<1112221<11<1111,--zSSSSSSSSSSc4;-:,,>;%+oO<MSSSSSSSSS8::>,,<11>:=$#9SSSSSSS",
"SSSSz%o@&;>,<,,>,,>::;-*&+<xSSSSSSSSM-#%->,221<11<<1<1112221<1111211>&-cSSSSSSSSSM4*=;>,,<<>%@o+7mSSSSSSSSVy;::>,<1:-&@%hSSSSSSS",
"SSSSh+o#*:,1<<,>,,>,:--=&;sSSSSSSSSSSxa5,:,111<<<,<11111221<11122211;#<ASSSSSSSSvw;--:,<,<1,;*$@=9mSSSSSSSSVp>=;>,<:=%&5BSSSSSSS",
"SSSSf@o@=>,<,,>:>,>>>;-*&6CSSSSSSSSSSSSm7-><<1<11,,<1111221<121221,;=&eSSSSSSSSj>$-:>,11<11<,-=%$:ySSSSSSSSSSq:=-:,;=*>eASSSSSSS",
"SSSSv=o@*:,,>>>:>>:::;;==lSSSSSSSSSSSSSSa:;>,1<<1<,<111121<<1111<>;*,jASSSSSSSV$+$=:<1111121<>:-#O*tZSSSSSSSSb8>*>:=*>iNSSSSSSSS",
"SSSSSd:9tw:>>:>::>:::;--2ZSSSSSSSSSSSSSSN1=:>1<,<21<<<11111121<<::;-rSSSSSSSSAa#%*-,1221122221<>*@o=jSSSSSSSSSu,%>*;>4VSSSSSSSSS",
"SSSSSSBSSV7;>:;;::;:;->gASSSSSSSSSSSSSSSA<*;>>,<<111121<<11<<11,;213nSSSSSSSN0;-:;>122221122221<;*Oo:gVSSSSSSSb>:*&dNNSSSSSSSSSS",
"SSSSSSSSSSu-:;;;;;;;;&eSSSSSSSSSSSSSSSSSZ-*-::,,<122221<<11111<:;9tkSSSSSSSB8;;:<112222112222221,;%O=9zSSSSSSSSu4*1SSSSSSSSSSZBZ",
"ZSSSSSSSSSt-:;;-----*$lSSSSSSSSSSSSSSSSSS6&%%=,,,1222221<111<<>::qcSSSSSSSB6*-:>1122222122222222<>-%-2pSSSSSSSSSBpfSSSSSSSSSa,&4",
"tBSSSSSSSSa::5;-==*&$-VSSSSSSSSSmdebSSSSSBw#+&;,><122222<121<>;:,qASSSSSSN9*&-:,11222222222222221<,-=:6ZSSSSSSSSSSSSSSSSSSSl&. o",
"1xSSSSSSSSb1-8=%$#+@;hSSSSSSSSAd&+@5ASSSSSC0;*&*=;<11222<<2<<:-;3kSSSSSSSt&$%-><12222222212222222<1>==>cSSSSSSSSSSSSSSSSSSSqX .X",
";zSSSSSSSSSa<6,@OXX%aSSSSSSSbr5>%@o$mSSSSSSAvp:$%;,11222<<1<>:->eZSSSSSSB4&%&;<122221122212222222111,=#1zSSSSSSSSSSSSSSSSSS6Xo++",
":kVASSSSSSSVzu5$. o<NSSSSSSA6>**&$++zSSSSSSSSSr*$=><2221<<<<,:-;iSSSSSSSp,&*->12222211222122222222121;#=6NSSSSSSSSSSSSSSSSh>%%&&",
";6::bSSSSSSSSxw=. =hSSSSSSSm:=;;-=&=nSSSSSSSSSn5$=><22222122<>;;uSSSSSSC=$&-><12222212222222222222221>*=*9VSSSSSSSSSSSSSSA<*:-:;",
"><-+eSSSSSSSSAg2%:pASSSSSSSk=;,<,>:3vSSSSSSSSSSj&*><22222211<,;*1NSSSSSuo@=:,<12222112222222222222221,:>##eBSSSSSSSSSSSSSC3->:<,",
",>=#5SASSSSSSSZbdNSSSSSSSSm:&><1221<4NSSSSSSSSSV;=>,12222221<,;%-lSSSSSyO+=:><112222111122222222222221,*$OO$jSSSSSSSSSSSSb2->><,",
",,;&1xxSSSSSSSSSSSSSSSSSSS0&*><2221<>2mSSSSSSSSS8&><1212221<<,:$+ySSSSSu#+*::,<<2222221112222222222222<*&+X &nSSSSSSSSSSSz2:>:<<",
">,,--7kSSSSSSSSSSSSSSSSSSSq%=,122221<:pSSSSSSSSSa&><<11222<11,:&X;ASSSSj;@*;:,<<12222111222222222222221;-#o @vSSSSSSSSSSh9<>>:<<",
",<,>--6ZSSSSSSSSSSSSSSSSSSM*=>122221<;18nSSSSSSSZ7;<<11121<<,,;*O=CSSSSm2#*;:>,<<1222111112222222222222,;$o OxSSSSSSSnpi1<<,,><<",
",,1>:;=9SSSSSSSSSSSSSSSSSSSy*:<22221<>;-6nSSSSSSSg%,<11<<1,,,>;&@>BSSSSV5%&-;>,<<1122211112222222222221:-$X.-bSSSSSSb5-:<<11,,<<",
",<1>:;--VSSSSSSSSSSSSSSSSSSm1,,222211,:==6bSSSSSSh@:<1221,<,,,:=#>nSSSSA6#%-;>,<<1111112222222222222221>=$o:zSSSSSSZ,$;:<<11,>,<",
",<<>;;-%rVSSSSSSSSSSSSSSSSSv0w;122222<:-*%;mSSSSSk+=:<12211<<,>-$&dSSSSSt+#&->,<<1111211222222222222221>-$@dSSSSSSAp$&;:<<11,>>,",
"<,,,::-%=3NSSSSSSSSSSSSSSSSkd5&,122221>;=%%9ASSSSm*=;,<2221<<<,;%+3ZSSSSh$@$-:,<11111112222222222222221,-$&vSSSSSSv1+-:><11<<>>>",
",<<<::;&&@uBBkaae8aZSSSSSSSNh;%>12<122<:;*&&sSSSSS1=;>112211<<,>&+%cSSSSj&@$->,<<<<12122221222222222221<-$4ASSSSSSl=@:>,1111<>,>",
",,<,:::==#;::*%@%$@pmSSSSSSAy$&,<111221<:=&OsSSSSS2=->122221<<<,=@@fSSSSx-@%->,<1<<11122222222222222111,-;kSSSSSSSf$%,<<112<1,1,",
">,<,>>>:--@oOO++%&%%1hSSSSSSj--,,<112221,;*OeSSSSSq*=:<1222211<,-$+rSSSSm5$*;:,<11111122221122222221<11,*5SSSSSSSC,$=,1111211<1>",
",<<,>>:>::=$$%%&===*&%jSSSSSA8:,,<,,2222<>-+dSSSSSu**;>12222221,-%#0SSSSZ0&*=:,<1212122222222222222<11<;*uSSSSSSSh@%:<11222122<<",
"12<,,,<,,,,:-;;;:>>>:&4cSSSSSj,,,<<,22221,=+MSSSSSj%&;>12222221<:*$9SSSSSd=%*:,11212212222222221222121,;=zSSSSSSS9+&>121122221<<",
"1111<11<,<<,,,>,<<,>:*;aSSSSSB4;-,,,22221,-:ZSSSSSAf;->122222211:**5SSSSSZ5$*;,111122222222222<112122<>,=nSSSSSSc*O*><21111222<1",
"1221<<<<,<<<<<<<12,,>*$1CSSSSSt&&,<,22221>:2VSSSSSSSk73222222221>&&1CSSSSz%@&-,<111122222222221<11<211;t1BSSSSSSe++=><12,<222221",
"1222<<,<,<11,<1122<,>-@$MSSSSSk=$><,2122<,:>qSSSSSSSSsw73222222<:%@<NSSSSb$O%-,<222222222222221111111,-d<CSSSSSS1@#;,<11,<<12221",
"22221<,>,<<<,<<122<1<-##mSSSSSb=@>,>11221<:==MSSSSSSSMpr312221<,:$+5ASSSSS4o$->1111111122222221121112<-41VSSSSSS1$*:<121,,<12221"
};
