/* XPM */
static char *_d8d15b60bf649b4bfd38ff7d784e4c3CUyHZh0n011NtvG7[] = {
/* columns rows colors chars-per-pixel */
"128 128 29 1 ",
"  c #8D0000",
". c #910000",
"X c #960000",
"o c #980000",
"O c #9C0000",
"+ c #A10000",
"@ c #A50000",
"# c #AA0000",
"$ c #AE0000",
"% c #B30000",
"& c #B70000",
"* c #BA0000",
"= c #BF0000",
"- c #C20000",
"; c #C70000",
": c #CA0000",
"> c #CE0000",
", c #D20000",
"< c #D50000",
"1 c #DA0000",
"2 c #DC0000",
"3 c #E00000",
"4 c #E50000",
"5 c #EA0000",
"6 c #EC0000",
"7 c #F10000",
"8 c #F70000",
"9 c #F80000",
"0 c red",
/* pixels */
"00>                                               700000000000000000000:          6000000000000O           X0000           30000",
"&                                                  #00000000000000000000               .*60000.            00000@           0000",
"                       .,#                           4000000000000000000                   .*             9000000            O  ",
"                     %0000                            X00000000000000000                                 10000000;              ",
"                   -000000.                             500000000000000=                                O000000000.             ",
"                X400000000#                              -7-.                                           00000000000             ",
"             $600000000000&          2>                                                                900000000000$            ",
"          -000000000000000-         60000,                                                            -0000000000000            ",
"        ;00000000000000000*         70000000#                                                         #0000000000000#           ",
"      -0000000000000000000*         7000000000                                                         70000000000000           ",
"   .3000000000000000000000*         70000000000>                                 *$#X                   0000000000000$          ",
".2000000000000000000000000;         3000000000000                               00000000&                000000000000>          ",
"000000000000000000000000003         =0000000000003                              000000000005<O            000000000004         O",
"000000000000000000000000009          000000000000:                              80000000000000            O00000000007         *",
"000000000000000000000000000          000000000000                               >00000000000008            *0000000000         *",
"000000000000000000000000000          000000000000           ,000000000=         o00000000000000=            ,000000007         *",
"000000000000000000000000000#         ,00000000000          400000000000          000000000000000O            000000007         %",
",000000000000000000000000003         %00000000000          400000000000          O000000000000000.            00000003          ",
"   4000000000000000000000000         O00000000000           00000000000+          3000000000000000            &0000003          ",
"     <0000000000000000000000          00000000000-          800000000007           0000000000000000            100000=          ",
"       900000000000000000000          000000000000          #00000000000           .0000000000000008            >000>           ",
"        *0000000000000000000          000000000000+          000000000003           :0000000000000003            X%@            ",
"          000000000000000000         o0000000000000          000000000000.           0000000000000000O                          ",
"           ;0000000000000001         %0000000000000          0000000000000           +000000000000000%                          ",
"             5000000000000#          ;0000000000000          0000000000000,           000000000000002                           ",
"               &00000000$             0000000000006         .00000000000000X          ,00000000007#                             ",
"                  <000,                70000000000&         =000000000000000          $0000000>.                                ",
"                    #                   &000000000          8000000000000000>          00007X                              1000%",
"0%                                        00000000          00000000000000000          007                                 00000",
"009                                        200000o          00000000000000000                                             +00000",
"0000$                                       O*.             .,900000000000003                                             ,00000",
"000007                                                            $200000000;                                             000000",
"0000000%                                                              *00000;                              %8001          000000",
"000000000@                    50.                                        =97                            *0000000         X000000",
"000000000001                <0000*                                                                   o6000000000         O000000",
"0000000000000<            %00000008                                                               &8000000000000          000000",
"00000000000000          .00000000000+                                                          +0000000000000000          900000",
"00000000000002          00000000000002                                                         00000000000000000          O00000",
"0000000000000=         @00000000000000@                                                        00000000000000000;          90000",
"0000000000000#         900000000000000O          +,00005*                                      o20000000000000000           0000",
"0000000000000#         000000000000000          0000000000008,$                                    10000000000000.          :000",
"0000000000000=         400000000000000          000000000000000000<.                                 -000000000006           000",
"00000000000002         ,00000000000000          000000000000000000000>                                 60000000000           #00",
"00000000000008         *00000000000000          0000000000000000000000007=                              %0000000008           00",
"00000000000000         @00000000000000+         *00000000000000000000000000$                             .000000000+          40",
"00000000000000          00000000000000<          00000000000000000000000000<                               900000000          %0",
"00000000000000          000000000000000          00000000000000000000000000%                                90000000<          0",
"00000000000000          000000000000000          40000000000000000000000000o         6002                    00000000          0",
"00000000000000X         000000000000000=         +0000000000000000000000000          0000002O                 0000000          0",
"00000000000000=         3000000000000008          0000000000000000000000000          0000000000=              o000000          0",
"000000000000001         <000000000000000          0000000000000000000000000          000000000000>              70000          0",
"000000000000003         ;000000000000000X         ,000000000000000000000000          00000000000009               >0<          0",
"000000000000002         <000000000000000,          000000000000000000000000          000000000000000X                          0",
"00000000000000%         40000000000000000          000000000000000000000000          0000000000000000O                         0",
"00000000000000          00000000000000000          O00000000000000000000000          00000000000000000                         0",
"00000000000000          00000000000000000%          00000000000000000000000          000000000000000000                        0",
"00000000000000          000000000000000000          20000000000000000000000          0000000000000000009                       2",
"00000000000000         O000000000000000000.         +0000000000000000000000          00000000000000000000                      @",
"00000000000004         *0000000000000000006          0000000000000000000000          000000000000000000000#                     ",
"3000000000000&         10000000000000000000          0000000000000000000007         X00000000000000000000000@                   ",
" 000000000000          90000000000000000000          000000000000000000000%         -0000000000000000000000000:                 ",
" 000000000000          00000000000000000000          000000000000000000000          70000000000000000000000000009$              ",
" :0000000000&          00000000000000000002         .00000000000000000005O          00000000000000000000000000000007+           ",
"  0000000000          ;0000000000000000000+         -000000000000000<$              00000000000000000000000000000000003         ",
"  0000000002          00000000000000000000          000000000002+                   000000000000000000000000000000000000        ",
"  800000000           00000000000000000000          00000000>                        90000000000000000000000000000000000        ",
"  o0007,$            ,00000000000000000000          60002$                            :000000000000000000000000000000000$       ",
"                     000000000000000000000                                             #000000000000000000000000000000004       ",
"                     000000000000000000000                                              #00000000000000000000000000000000       ",
"                      >0000000000000000000                                               :0000000000000000000000000000000       ",
"                        >0000000000000000:                                                9000000000000000000000000000000$      ",
"                          <0000000000002                                                   000000000000000000000000000000;      ",
"                            300000000-                                  .-9009             ;00000000000000000000000000000.      ",
"                              7008%                                O:7000000000+            0000000000000000000000000000%       ",
"                                                                =0000000000000003           -00000000000000000000000000:        ",
"            O.                                              .:00000000000000000005           0000000000000000000000000%         ",
"     #=29000006                                         &4000000000000000000000000%          &00000000000000000000000.          ",
" O00000000000000,                                      0000000000000000000000000000           8000000000000000000004            ",
" 00000000000000000;                                    0000000000000000000000000000;           0000000000000000000*             ",
"90000000000000000000;                                  ;0000000000000000000000000000           .00000000000000000+              ",
"0000000000000000000000*                                 9000000000000000000000000000>           O000000000000000O              4",
"000000000000000000000000$                ,&              0000000000000000000000000000            O0000000000000+              40",
"00000000000000000000000000o           <0000,             70000000000000000000000000007            X00000000000*              500",
"000000000000000000000000000          70000009             0000000000000000000000000000%             000000000*              9000",
"000000000000000000000000000#         000000000>           70000000000000000000000000000              0000000O             O00000",
"000000000000000000000000000#         00000000006           00000000000000000000000000000              00000              <000000",
"000000000000000000000000000          00000000000o          #00000000000000000000000000009              007              80000000",
"000000000000000000000000000          000000000000           %00000000000000000000000000009                             900000000",
"00000000000000000000000000%          000000000000X           ,00000000000000000000000000009                           7000000000",
"00000000000000000000000000          %0000000000009            900000000000000000000000000000                         40000000000",
"00000000000000000000000008          00000000000000@            000000000000000000000000000000                       600000000000",
"0000000000000000000000000*          000000000000000            >000000000000000000000000000000                     8000000000000",
"0000000000000000000000000X         ,0000000000000009            000000000000000000000000000000                    90000000000000",
"0000000000000000000000000          000000000000000006           :00000000000000000000000000001                    00000000000000",
"0000000000000000000000000+         :000000000000000002           000000000000000000000000009                      %0000000000000",
"0000000000000000000000000=          000000000000000000@          9000000000000000000000000>                          #3000000000",
"00000000000000000000000000          0000000000000000000          %00000000000000000000000#                               :000000",
"00000000000000000000000000          >000000000000000000&          0000000000000000000000#                                   1000",
"00000000000000000000000000=         +0000000000000000000          000000000000000000000o                                      &0",
"%00000000000000000000000000          0000000000000000000          X0000000000000000007                                          ",
"  %000000000000000000000000          0000000000000000000:          ,0000000000000000+                                           ",
"    =0000000000000000000000          00000000000000000000           800000000000007                %006                         ",
"      100000000000000000000          00000000000000000000.           000000000000;               $00000                         ",
"       .0000000000000000000@         300000000000000000007            8000000000@               5000000.                        ",
"         ,00000000000000000>         O00000000000000000000o            >0000000.               900000002                        ",
"          +00000000000000009          000000000000000000000             o00009                9000000000             #          ",
"            0000000000000000          0000000000000000000006              903                000000000005           0000=       ",
"             <00000000000000o         4000000000000000000000O                              *0000000000000@          0000002     ",
"              o0000000000000,         <000000000000000000000O                             0000000000000000          000000002   ",
"                O000000000003         ;0000000000000000082>$                            -00000000000000000#         40000000002 ",
">                 O0000000003         +00000000000008$                                 5000000000000000000<         <00000000000",
"00+                 O0000000-                                                         000000000000000000003         ;00000000000",
"0004                  #00000.                                                       X0000000000000000000007         *00000000000",
"00000                   .<05                                                       #00000000000000000000006         +00000000000",
"000000+                                                                           <00000000000000000000000           00000000000",
"00000002                                                                         000000000000000000000000.           o0000000000",
"000000000X                                                                     %000000000000000000000000O             9000000000",
"00000000007                                                                   9000000000000000000000000&              +000000000",
"0000000000007.                                                               ;0000000000000000000000005                000000000",
"000000000000007                                         X<700000000o         &000000000000000000000000                 200000000",
"00000000000000006                                   X*70000000000000          00000000000000000000000+                 .00000000",
"00000000000000000#                   8000000000000000000000000000000          @0000000000000000000006                   00000000",
"00000000000000000                    0000000000000000000000000000000           400000000000000000000                    30000000",
"000000000000000,                     6000000000000000000000000000000,           0000000000000000000.                    #0000000",
"0000000000009$                         -00000000000000000000000000000           #00000000000000000$                      0000000",
"000000000>.                               -00000000000000000000000000>           0000000000000000,                       1000000",
"000000<                                      =000000000000000000000000           >000000000000000            >1           000000",
"0000>                                           30000000000000000000000          .00000000000000            ;00,          o00000"
};
