/* XPM */
static char *xpm_[] = {
/* columns rows colors chars-per-pixel */
"32 32 116 2 ",
"   c #2F2F37",
".  c #313037",
"X  c #3E3734",
"o  c #33333B",
"O  c #38383F",
"+  c #443933",
"@  c #4A3C31",
"#  c #5A442E",
"$  c #53463B",
"%  c #554A3C",
"&  c #714F29",
"*  c #7D5527",
"=  c #775228",
"-  c #7E582B",
";  c #604B37",
":  c #644F39",
">  c #695536",
",  c #715330",
"<  c #7E612F",
"1  c #7E613E",
"2  c #3D3D43",
"3  c #413E41",
"4  c #424145",
"5  c #4E4945",
"6  c #454549",
"7  c #4B4B4D",
"8  c #5A544D",
"9  c #4D4D50",
"0  c #525252",
"q  c #5B5B5C",
"w  c #65605A",
"e  c #6A645D",
"r  c #746754",
"t  c #646464",
"y  c #686661",
"u  c #6C6C6C",
"i  c #7D766E",
"p  c #7E786C",
"a  c #747474",
"s  c #7C7976",
"d  c #797979",
"f  c #A66B1E",
"g  c #AD741C",
"h  c #B6771A",
"j  c #BD7C18",
"k  c #8F5F25",
"l  c #825A2A",
"z  c #8B5F2B",
"x  c #84642E",
"c  c #946022",
"v  c #9C6420",
"b  c #966428",
"n  c #9C7226",
"m  c #C17F18",
"M  c #8F6C41",
"N  c #8D6F4A",
"B  c #97774A",
"V  c #85725C",
"C  c #957E53",
"Z  c #837360",
"A  c #8B7D64",
"S  c #877E6D",
"D  c #827C71",
"F  c #BC8625",
"G  c #B78C3D",
"H  c #BD8E3A",
"J  c #C68216",
"K  c #CC8715",
"L  c #C1851A",
"P  c #CC8C1E",
"I  c #D48C13",
"U  c #D39016",
"Y  c #DC9312",
"T  c #E79A0F",
"R  c #EB9D0E",
"E  c #E29710",
"W  c #E49A13",
"Q  c #E99D10",
"!  c #EDA615",
"~  c #EDA817",
"^  c #EFB11C",
"/  c #F0B31E",
"(  c #CF9429",
")  c #D69722",
"_  c #C79230",
"`  c #F0B621",
"'  c #F2BE27",
"]  c #F3C32B",
"[  c #F4C82F",
"{  c #F6D135",
"}  c #F8DC3D",
"|  c #9B8459",
" . c #A6874F",
".. c #B38C42",
"X. c #A48751",
"o. c #AB9052",
"O. c #928967",
"+. c #9A966E",
"@. c #C3BB5F",
"#. c #D7CD58",
"$. c #FAE443",
"%. c #FBE947",
"&. c #F4E74E",
"*. c #F6E94D",
"=. c #FCED4B",
"-. c #FDF15D",
";. c #FDF262",
":. c #FDF46E",
">. c #FDF369",
",. c #FDF470",
"<. c #FDF67D",
"1. c #FEF780",
"2. c #FFFCA5",
"3. c #FFFEB0",
"4. c #FFFFB3",
"5. c #FFFFB5",
/* pixels */
"t u t 0 0 0 0 0 0 0 0 0 6 2 2 7 8 t t t t t q 0 0 4 0 0 9 0 0 t ",
"0 0 0 0 0 0 0 0 0 0 9 4 2 2 2 0 q t t t t t 0 0 4 2 0 0 0 0 0 0 ",
"0 0 0 7 2 O 0 v J j 0 6 2 2 2 4 7 0 q q q 9 9 6 2 2 0 9     2 4 ",
"2 2 2 2 O 7 8 K R ( d q 4 2 3 % 2 6 6 7 7 7 2 2 2 o     + = 2 2 ",
"4 t t d d t t t i d t 0 2 3 v v 2         2 2 2   . # v f < 2 2 ",
"6 t t d d t t q u 0 0 0 2 v W v 2 2 2 6 7 q q . X v W R Q > 2 2 ",
"4 q q t t t 0 0 0 7 6 3 4 h R R v w t t d d a   v Y R R Q n 2 6 ",
"O 0 0 t t q 0 0 3 2 2 k v R Q R R v t t t u   + I R R R R Y 2 6 ",
"  7 0 0 0 0 0 4 2 2 3 f Q R %.' ! b t t t t d ..R R R G s d u 3 ",
"4 9 q t q q 9 5 - f I R R ` =.=.R r t t w q a d T W d d u q 2 3 ",
"d d d d d t t W R R %.=.;.<.>.=.R t t q 0 0 q d | d a 0 7 2 t t ",
"a d d a t t u ..H W R %.5.:.=.] R F t 0 0 6 7 a d 7 6 4 2 0 q t ",
"t t t t t t u d d d ~ =.-.%.R R R v t 9 2 2 2 2         6 0 0 q ",
"t t 0 0 0 0 0 7 7 d X./ } R R Y v D s q 4 2 2 2       . 2 2 4 t ",
"t 0 0 0 2 2 2 2 2 6 d R R R s d d s t t t 0 4 2     g U v x q t ",
"t 0 0 6 4 v v U 2 2 d P R R d d t t t t t t 0 o O T R W s d d t ",
"0 0 0 2 - R R R 3 2 a Z j N d a t t q 0 0 0 0 6 2 2 9 d a 9 0 q ",
"4 2 2 4 v R R R G u 9 d V s d u t 0 0 9 0 0 4 0 2 2 6 2 2 2 4 7 ",
"2 2 2 f R R } &.s q 0 0 d d t q 0 0 0 7 2 . o 2 2 2 O .     2 2 ",
"7 7 2 x R ] =.d a 0 0 0 0 0 0 0 6 2 O     = v % 2 2 O   2 4 9 9 ",
"t t 0 7 d d d d 2 0 0 0 0 6 6 2 2 2     v E R R R L 2 2 2 d d d ",
"t t t u a q 0 6 0 u d d d d d 0 7 2   v m R R R R R R l 3 2 d a ",
"t t t t 0 0 7 9 9 u d d u t 2 4 2   & f R R R R R [ =.*.c $ 2 t ",
"t t t 0 .       . d d a t e $ 3 9 3 v R R R R ! %.=.*.#.O.d d t ",
"t t 0 2   * v v f A d t t Q j Y C t t Q R } =.4.:.+.d d a u t t ",
"9 .     k J R R R R o.d t Q ..d d u 2 L R { =.<.=.d q 9 0 0 0 0 ",
"2 3 v h Y R R ^ $.=.%.#.a d d t 0 0 2 $ R R Q Q O.d   o 2 2 2 2 ",
"2 : ) _ G R ^ =.4.2.=.&.d q 7 6 6 2 2 m R R T d a 2 2 0 2 2 2 0 ",
"u d d d d R R =.*.@.d s d 2   o 2 2 1 M x C O.d 0 9 0 F Q Q d d ",
"d d d d d s  .( d d t t 6 2   o 3 u d d d d d q 0 q A ..) d d u ",
"d d d d u a d d a t 0 0 0 7     0 d d a t t t q 0 0 a d d d t a ",
"d d d t q 0 0 q q q 0 0 0 6 2 2 0 d d t t t t 0 0 0 0 0 9 t t a "
};
