/* XPM */
static char *result[] = {
/* columns rows colors chars-per-pixel */
"64 64 221 2 ",
"   c #07070F",
".  c #09090D",
"X  c #070710",
"o  c #080712",
"O  c #0D0C14",
"+  c #0F0D1A",
"@  c #100F17",
"#  c #110E1B",
"$  c #101015",
"%  c #12111B",
"&  c #18131F",
"*  c #140D23",
"=  c #180D26",
"-  c #150C2A",
";  c #1A0E2C",
":  c #161222",
">  c #1A1525",
",  c #1B1826",
"<  c #171129",
"1  c #1B132B",
"2  c #1D1829",
"3  c #160A31",
"4  c #1B0D34",
"5  c #1C0D3A",
"6  c #1D1333",
"7  c #1E1A30",
"8  c #1E123A",
"9  c #20152F",
"0  c #211C2D",
"q  c #230F3D",
"w  c #211435",
"e  c #231C33",
"r  c #24133C",
"t  c #29153E",
"y  c #261B3B",
"u  c #281C3A",
"i  c #262035",
"p  c #272038",
"a  c #2A233C",
"s  c #1E0C42",
"d  c #1F0A4B",
"f  c #1F1042",
"g  c #240D43",
"h  c #280D45",
"j  c #210E49",
"k  c #2D0C4B",
"l  c #241343",
"z  c #2A1344",
"x  c #261943",
"c  c #2B1B44",
"v  c #24114C",
"b  c #2D134B",
"n  c #2D1C4B",
"m  c #301F46",
"M  c #31144E",
"N  c #321B4C",
"B  c #240C54",
"V  c #2C0F55",
"C  c #260B5A",
"Z  c #2B0D5C",
"A  c #350D59",
"S  c #261152",
"D  c #2B1454",
"F  c #2F1B54",
"G  c #2B125B",
"H  c #2E1958",
"J  c #321454",
"K  c #351C54",
"L  c #381C57",
"P  c #34145B",
"I  c #38145C",
"U  c #331C5C",
"Y  c #3A1B5C",
"T  c #2D2443",
"R  c #2E2149",
"E  c #302746",
"W  c #312945",
"Q  c #32244B",
"!  c #342B4C",
"~  c #382E4E",
"^  c #342552",
"/  c #3A2157",
"(  c #362B50",
")  c #3A2F52",
"_  c #3B215C",
"`  c #3C2B5B",
"'  c #3C3153",
"]  c #3E305B",
"[  c #2B0E62",
"{  c #2E0F69",
"}  c #330D61",
"|  c #360D69",
" . c #3A0E6D",
".. c #2D1264",
"X. c #2E126A",
"o. c #321364",
"O. c #3B1464",
"+. c #351C65",
"@. c #3C1B62",
"#. c #33146B",
"$. c #3C146C",
"%. c #361B6B",
"&. c #3A0E72",
"*. c #361573",
"=. c #3B1473",
"-. c #371970",
";. c #3A1B75",
":. c #3B1679",
">. c #3C1B7B",
",. c #3A2367",
"<. c #3D2B64",
"1. c #3D2075",
"2. c #412F5E",
"3. c #403657",
"4. c #413659",
"5. c #453A5E",
"6. c #421C67",
"7. c #41166D",
"8. c #441D6C",
"9. c #460F77",
"0. c #441574",
"q. c #491677",
"w. c #441973",
"e. c #481E73",
"r. c #44137A",
"t. c #4A147D",
"y. c #421C7D",
"u. c #4B1B7C",
"i. c #422C64",
"p. c #432569",
"a. c #423262",
"s. c #473C60",
"d. c #46316C",
"f. c #4B3B6B",
"g. c #422A72",
"h. c #462877",
"j. c #4D247B",
"k. c #462C7B",
"l. c #4C3474",
"z. c #4A3278",
"x. c #54387B",
"c. c #4D0F89",
"v. c #461681",
"b. c #4D1583",
"n. c #441C82",
"m. c #4D1983",
"M. c #4E1589",
"N. c #4D1A8A",
"B. c #511A86",
"V. c #51158A",
"C. c #541789",
"Z. c #531A8C",
"A. c #551492",
"S. c #591693",
"D. c #561A92",
"F. c #591B94",
"G. c #5C149C",
"H. c #5C1D9A",
"J. c #601A9E",
"K. c #442182",
"L. c #492685",
"P. c #4B2C84",
"I. c #4B238C",
"U. c #4C2A8B",
"Y. c #522285",
"T. c #532E86",
"R. c #55228C",
"E. c #59238E",
"W. c #5C2C8C",
"Q. c #4F3288",
"!. c #573789",
"~. c #4E2997",
"^. c #562392",
"/. c #5C2294",
"(. c #522D93",
"). c #582A95",
"_. c #5C239B",
"`. c #532C9C",
"'. c #55329A",
"]. c #5A339D",
"[. c #5A389B",
"{. c #64348E",
"}. c #61239E",
"|. c #622C9C",
" X c #6214A5",
".X c #631BA4",
"XX c #6719AB",
"oX c #6B1CB2",
"OX c #6F1FBA",
"+X c #731EBD",
"@X c #572EA2",
"#X c #5B35A3",
"$X c #5A32A4",
"%X c #6424A3",
"&X c #6827A6",
"*X c #6921AB",
"=X c #652DA9",
"-X c #6828A9",
";X c #6634A1",
":X c #6530AD",
">X c #6C33A9",
",X c #7332A7",
"<X c #6D25B2",
"1X c #6B2AB4",
"2X c #7422BB",
"3X c #7228BA",
"4X c #6B34B5",
"5X c #7332BA",
"6X c #7835B9",
"7X c #7540B6",
"8X c #751EC1",
"9X c #7922C5",
"0X c #7A2AC6",
"qX c #7934C3",
"wX c #7F42C3",
"eX c #8040AD",
"rX c #873AC7",
"tX c #913FCF",
"yX c #892FD2",
"uX c #8D33D3",
"iX c #9744D3",
/* pixels */
"! ! ~ 2 , > & & z 7.t @ $ $ 7.q.-.X.8 6 6 > : % $ O O O + @ + + + + : % O O . O > & % , % # O + + + * 3 * + O O O $ % , E W ! ! ",
"! e 0 0 > : & % z r + + O @ 8 $.-.X.[ ..S 8 : % % O O   .   . @ % + % % . . , : 4.) W a e e w = # * * ; * + O o + , % % , e E ! ",
"0 0 0 0 2 > : % @ O o + + @ + S ..X.X.X.+.H f % O O % O .   O O $ % @ % > , 5.5.) ) ) W W ! ` x.L w b 1 * : & $ % , % @ + , ! T ",
", 0 0 0 > , : + O . $ + @ + + - S X.X...6 6 7 6 < * +   . : .   % % O % ' ' ' ~ ! ~ ~ ! ( ( ` T.}.Z.q.; , 2 i a a a i # % ! W a ",
"$ > 2 0 , : % # : : % & % @ % % % ..X...*.-.o.D S S 8 6 < ' ! + $ $ % a ! W ~ e 0 m }.E 0 9 t z F.m.I # 2 u a 0 > # : 0 @ ' ! T ",
"0 % > , : > # > ' ! W a > % % % : > S H ..K.;.;.....X.P.'.$XT e % @ % 2 W ! 0 , : u.%XZ.N t y L H.t.q @ , a i > , > 0 ~ 0 + T 0 ",
"O $ & : , > > ! ' ! e a T @ % % : : < 6 7 x 1.+.+.*.'.~.'.~.-., $ O + , a 0 , : > 6.J.}.}.Y y B.Z.u.q O , p e > & : : 0 , > > : ",
"O . @ % , 5.) ) ! 2 2 2 i & : % % : : : : < c u T ! ` k.P.F x 6 $ @ + % 2 a 2 > & y J.}..XN 9XXX.XB.w . @ e 0 & % . , > : : $ > ",
".   2 ~ ] ) ' ~ 2 2 0 0 + , , & & % % @ % < 0 W T T a E 6 ; 6 : % $ % % , : 2 2 , 1 H.*XoX9X8X8X+XJ._ * & a > & & . . : < : O + ",
".   7 E ' ~ T e 2 2 , 0 & O > > > % @ O O : a a a a e % , 6 ' , % @ % + % @ % % > : 1 .X8X8X8X8Xw.c N ) ' a p a % @ * j 4 % + . ",
". . a ! W E T p 2 2 0 2 . : O , % % @ . O > W a e u % , 5.s.E , % % % $ % O O o O % Y uX8X8X+X7.1 2 u T a a , e e # q V j @ + . ",
"  O T T p e e 2 2 2 2 % O O O , % % @ O @ 9 a a a , : ] ) ! 0 : $ % $ O + % . . . 2 eXuXyXyXJ.9 > 9 e 0 0 0 > # w q b Z Z @ . . ",
"+ - F R n e 2 , , 2 0 + . O @ % @ $ @ . @ y u a 0 9 w Q E 0 , % % $ O O $ . . o o t {.uXyX+XL 0 9 9 m N Y 6.b J P o.[ o.o.w + o ",
"S ..1.y.;.G l 2 2 2 % O O O $ % % % + . # r 6.K E.D.Z.7.q.w # % % O O O . $ % o > i.,X<XOX6.9 0 , L e.u.H.B.B.7.O.7.o.o.o.o.C @ ",
"[ 3 y y r D F 6 i & % % @ @ % % $ % + . o A =.y.y.v.V.Z.V.D.w $ $ O O O $ $ $ : u.rX+X2X8.9 0 0 9 6.e.}.}..XB.0.$.0.o.o.$.5 6 2 ",
"+ + , , , 2 1 x T % O % % O % % % % o o ; 7.0.*.$.=.=.D.Z.Z.7.* % O O . O $ % z oX0X2X8.c w 9 0 0 u m 6.b.C.Z.=.r.r.b o.7.: ! e ",
"o o O , > , # >.I.H x < > % % % % % < C *.r.*.o.#.#.=.Z.Z.D.V.P k ; & & t z h G.A.yX+X0 9 0 > 0 0 , 9 > O C.B.$.P b I J z ; ~ 9 ",
"O o   > > O 2 K.>.*.X.H l < * + * l :.:.*.n.#.G w.b c J w.V.Z.$.7.A. XJ.C.I A. XG.C.8., , 9 0 0 , @ @ # $ C.C.0.I D h o.P M ; : ",
"+   o O > + + { *.K.R.n.N.O.$.M.v.*.>.>.>.>.o.v r , % : b O.0.q.7.k k J. XJ.I  X9.9.e 9 0 , > , 0 0 @ $ @ t.b.b. .0.7.q G h w = ",
"O o   @ @ + O - n 1.r.Z.H.@XM.b.&.[ :.:.G 8 8 1 : % % + : w l M S.*XXXS.C.J.oX Xc.# . , 0 > 0 > $ $ $ $ @ M &.=.b.b.r.b.} 4 ; # ",
"@ @ . @ @ $ % + , > A V.b.b.9.t.r.$.U % O : 6 2 % + @ + + * ; # $ M 6.I q.B.b.t.h @ . . , , , @ $ @ @ @ @ = Z  .t.y.r.o.$.g * O ",
"O @ O # + + ; O.A.2XXXt.9.O.I O.I r : % + 2 7 + O + O @ @ + * e O & & w I = t.t.= @ O . $ $ . O . @ O O o + 5 B 0.%Xu.$.l 1 * O ",
"O @ # # # ; t.oXoXrXt.q.; * # : c w : % O , , O % # # * % o : Q & . @ # % # > 9 @ $ $ $ $ @ @ @ o + # # @ + 3 I a.P.;.5 ; + + o ",
"# # # # ; k t.8XiX{.Q # O o % $ # > : % O & , % * W 4.4.1 @ , Q e 9 O O @ & & $ @ $ $ $ $ $ $ . . = w = O =  .).'.(.h.P * o * * ",
"I w.F.m.q.q.J.iX{.~ a 0 , O . # # % % % @ # 0 2 W ` d.z.!.z.h.,.c , 2 , & % $ $ $ $ $ $ % $ $ % O 4 A A &.O.w.5.] #X@XU.y y y l ",
"|.Z.F.B.S.XX.X|.a a a W ~ > @ # # % # % @ # > 0 W ] z.].$X$X(.^.N.r : % % , $ $ $ $ $ % : & > l 7.b.9.v.0.Y.x.' a.g.1.U.U.1.<.Q.",
"/.u.q.m.u.S. X7.w 0 ~ W E a # @ # @ # @ O # % > a Q P.$X=X$X$XR.y.#.r & $ $ $ $ . $ # 6 r P 7.q.t.V.D.W.J t s.' ) y i T ^ ,.g.+.",
"B.6.z r = = t q = 9 W a a 0 & % @ # O O O @ # 1 u U `.4X5X_.^.I.y.D.m.*., $ $ $ $ $ @ : I F.Z.Z.V.S.rXj.@ > s.) ! e , 2 , , , w ",
"> > > @ @ @ @ & 9 0 E 0 0 0 @ # # @ @ O O O * h O.m.>X3X%X<X<Xn.>.:.*.:.6 @ O $ $ $ $ * b.b.Z.Z.B.qX>X/ 2 , 5.) ! 0 > 0 , > > > ",
": : , % $ $ . . > , 0 > , 0 , O O O # # t k r.0.F.qXqX<Xu.E.*Xy.>.>.*.&.+ O O $ @ @ > k | t.9.q.Z.wXx.a > 5.) ) ! 0 0 > : , < * ",
": : : % $ % . . O > > & > > . @ . . 9 r l.tXoXXX XrX,XW.> r u.D.D.D.N.5 O + % $ @ q | t.9.9.b.q.q.M 4.T e 5.) ! 0 0 > : > 9 > > ",
": > : % % % % . O O & = : O . . O > 3.T.:X5X5X0.M S.2.u 0 9 c L S n.*.f % : : , S.b.Z b.t.G.H.k # # + E > e ) ~ 0 , , & > > > > ",
"> : : % % $ @ @ O + : : * o .   o 8 P.`.uXuXW.3.b.M > : O O * > , x X.X.f 8 N.A.v.&.9.F.D.iX;Xe O O @ @ 2 > 0 ) 0 0 > : > > > 0 ",
"2 > , % % % O O @ % % > % # . o 5 @X~.~.uX*X! u XXq @ > O O + # : : 4 C X.*.r.:.r.9.m.6X7X'.m > 2 : @ O O . > 0 0 , > : : : > > ",
"2 2 , % O $ O @ # * : # % 6 s B [ 0X0Xw._.n.e N *X: @ + . O O @ % + + 8 { *.=.&. .r.;XW.z.Q w 1 , % + O @ + % , > > > : : : > > ",
"8 6 , % % + @ @ ; 1 # D Z.D.v.C 3 R 0 R 0X/./ Y z O ; * # > O + + O O + Z #.Z =.*.N.=XW.@.c 2 2 + $ + $ % % % % 9 9 : r M 0.#.D ",
"F x : : # # # 4 b J $.0.M.S.9.o   2 p / 9X%XY r w q.V.V.b.N.g O # O @ . @ b V $.r.D.:X&XR.Y 6 + $ # @ % , % 0 u Y @.$.=.=.*.*...",
"o.%.G S G [ Z A 0.0.0.=.9.c.+ o X 0 t +X+X+XL 9 J.S.A.b.q.b # O $ O # O @ # w I b.M.F.&XY.U 8 : % % % : , T Y.}.j.n n o.*.:.:.#.",
"1.>.-.[ 4 :.O.|  .0.b.b.Z 3 o o o 6.2X+X8X+XJ J ; b.0.q + o O O @ . > * @ # = = x J c r r , < % % * % % , j._.T g.).N.N.;.:.;.c ",
">.-...X.* q h 4 4 | =.=.v.3 o * c.H.oX9X8XJ.b A z ; O O O o O + 6 w l 4 + @ @ @ + % : & % % : % % < r 6 > R.}.-X}.Y.h._ y 6 6 < ",
"< S S X.G S ..d 3 [ { { C.9.c.c.G.c.XXF.k  XA & O O + 2 o - s ..X.o.F 2 $ $ O $ $ $ % % % & % % + # I B.D.}.@X=X}.L < > % & % : ",
"< > < ..G [ ..B C C { { V.b.Z.G.G.c.V.c J.h # o O > c n H X.*.#...G % $ $ $ $ $ $ % % % % % % % + b $.0.6.q.K T m Q 2 % % % % % ",
": : % : d G C d 5 B [ ..V.D.D.A.O.g M S.q.# * + , c P G G ..[ ..8 % $ $ $ $ $ % $ % % % % % % + + # ; t w < 2 < @ # > % : + % % ",
"% % % + % - 3 3 6 + v ..H.Z.:.F.:.9.t.*.@ o = I m.$.w.w G o.X.< @ $ $ % $ $ % % % O % % % + $ $ + @ @ # # % 2 : @ # O : : : : : ",
"4 % % + + % o 6 f.: * ..*.o.8 f 4 + - r.t.; K H.F.F.J < % 6 6 $ $ @ @ % + O O $ O O O O % + + O + @ O $ O % : > + : 6 ..S l l S ",
"S < %   + o : ' ' Q o s o.8 T n 1.+.;.t.k 0.n.N.1XF.K < % + # % % $ % + + : , , i 2 > O o % $ $ $ O @ @ O + < S [ >.>.*.X.X.....",
"S f : X $ , ] a e ,   6 ` ` ( x L.K.;.U K $.n.=X&X-X}.> + $ $ $ @ + + O + 2 7 i ' ] s.7 > , $ % @ @ + O + d [ [ >.@XI.v X.*.X.X.",
"6 8 * O . , ] a % 2 , s.] ' a % 2 ).^.I $.N._.%X^.I.Z.> O + O @ O + O + + > ] ] ~ ' ' f.!.f.> % $ @ O @ + [ *.>.<.) ^ x f < : 6 ",
"% + O O , 5.~ e 2 s.s.' ' ! , # % R 1.=.*.:.h.y.K.+.c : + O . . : : : , & e ! ) ' ' ' d.!.;X)., 6 X.X.[ -.`.`.'.<.U.R : % + % + ",
"+ O O . , 5.~ e 4.' ' ! ~ , % , e R :.#.=.} G h.g.y , : O . > : s.s.s.s., 0 E ) ( ^ 6X5X6X>X&Xe T ..[ *.~.#X@X(.<.T 2 > % % $ O ",
"$ O . . > 3.! 4.' ' ! W , % % # 2 G +...y...5 x T w * + % 5.5.s.) ' ' s.5.' 4.i.g.|.>XqXE./ -X0 2 -.d l.'.'.k.c 8 2 7 > & + O @ ",
"$ @ . , : W i 5.' ! R 2 , @ % : 8 #.#.y.=.P ; * % # : % 3.' ' ' ! ! ! ~ ! Q Y._.qX>X5X&X_ R.R.y.x 6 n [.'.k.c 7 2 2 > 2 2 , O O ",
"+ . . > ' 0 0 ' ~ W 0 > , , > 4 O.b.Z.M.t.7.8 % # + : ] ! ~ 0 0 0 0 0 0 e 2 m.D.&X%XR.p.L.w.U x X...*.'.k.T 2 2 2 2 2 , & $ $ % ",
"$ $   : 3.0 i 0 a 9 > > 2 1 w M P $.r.M.Z.x < % # o > ! ~ 2 2 2 2 2 2 2 , 2 7.r u.v./.^.u.U +.%.X.*.7XQ.<.7 2 > , , 2 0 $ O O $ ",
"$ @ . . 2 a i 0 0 > : > > 9 c @.0.q.:.0.P ; % + + : W ! , 2 > , 2 2 > 0 > 8 w q.u.b.V.u.y.;.*.-.;.#X!.<.p 7 , 2 , > , % O $ $ % ",
"%   . . > 0 ! 0 > > : > 9 : E D.H.b.$.b 6 # @ % $ % W 2 2 2 2 0 2 2 e 9 6 r 7.q.b.B.I b n -.>.n.'.#XP.^ 6 , 2 2 , , % + . O % O ",
"$ $ . . . : i 0 0 w > ; w z 6.|.E.H.Z.@ @ @ @ $ + % 2 2 , 2 2 , 9 , 2 5 b o.r.t.Z.=.1 ; 1 %.;.>.K.U.%.y , , , , , @ @ + . % @ @ ",
"O O % . . > 0 2 : 9 1 = M I u.F.Z.E.z + @ @ % @ % + , , 2 2 , , 0 > 1 P b :.=.o.Z.O.@ @ # z ;.:.>.%.D 6 < , , , : @ O   . . O O ",
"O O + .   . : , > = > w I w.F.J.H.m.9 , : @ + % @ O . , 2 , , , > # J z $.:.o.b >.P % $ # 8 z ;.:.X.D 8 < % : , + O O O O O % + ",
"O O 2 O & + % , : > z 6.7.u.F./.H.O., % % @ % % @ @ O > < , , : * q =.#.=.=...z S < + $ * % * z *...G v l % + : : < < + O O O $ ",
"O + a % . $ % @ : < P S.B.Z.H.S.r.w % % & : $ % @ @ O O : : % + + 8 G G X.8 - ..S % + % O % : 6 8 B S [ G 3 6 < S -.x O % + % % ",
"O , a a > O + @ # t F.C.m.Z.H.Z.r % : + , , & % % @ O O % % % + * 5 l 8 8 G [ ..< % + O % : : % % : 8 ....G G 3 O D 7 % % W ' ' ",
"W W a i , , > @ % J u.q.$.0.S.b.2 % < % , , : O % % O + % + % + - d X.X.....B s + O O + % : : < + + + S G ..X.C 8 : 2 0 W ~ ' ' ",
"~ ! a 2 , & % % = 7.u.M t b V.m...< % : : , , O O $ O + + + + % + S #...G D s + O O O : % % + + + + : f l S S : O + , 2 W ' ' ' "
};
