/* XPM */
static char *xpm_[] = {
/* columns rows colors chars-per-pixel */
"32 32 253 2 ",
"   c #1F0A1A",
".  c #1F0A1B",
"X  c #1B0A1F",
"o  c #1D0A1D",
"O  c #1E0A1C",
"+  c #1F0A1C",
"@  c #1C0A1E",
"#  c #1D0A1E",
"$  c #1C0A1F",
"%  c #1E0A1F",
"&  c #1E0B1F",
"*  c #390A0F",
"=  c #3A0A0F",
"-  c #3B0A0F",
";  c #3D0A0D",
":  c #3E0A0D",
">  c #3F0A0D",
",  c #3C0A0E",
"<  c #3D0A0E",
"1  c #3C0A0F",
"2  c #3D0A0F",
"3  c #3F0A0E",
"4  c #3F0A0F",
"5  c #270A17",
"6  c #280A17",
"7  c #290A17",
"8  c #2A0A16",
"9  c #2B0A16",
"0  c #2A0A17",
"q  c #2C0A15",
"w  c #2D0A15",
"e  c #2E0A14",
"r  c #2F0A14",
"t  c #2C0A16",
"y  c #2F0A17",
"u  c #220A19",
"i  c #200A1A",
"p  c #210A1A",
"a  c #200A1B",
"s  c #220A1A",
"d  c #240A19",
"f  c #250A19",
"g  c #260A18",
"h  c #270A18",
"j  c #260A19",
"k  c #240A1B",
"l  c #270A1A",
"z  c #250A1D",
"x  c #260A1C",
"c  c #260A1D",
"v  c #250A1F",
"b  c #2A0A1B",
"n  c #2C0A19",
"m  c #2A0A1D",
"M  c #280A1E",
"N  c #2F0A1F",
"B  c #310A13",
"V  c #320A12",
"C  c #330A12",
"Z  c #320A13",
"A  c #340A11",
"S  c #350A11",
"D  c #370A10",
"F  c #360A11",
"G  c #370A11",
"H  c #340A12",
"J  c #350A12",
"K  c #330A16",
"L  c #320A17",
"P  c #390A10",
"I  c #300A18",
"U  c #330B1A",
"Y  c #0F0A2B",
"T  c #0F0A2C",
"R  c #0F0A2D",
"E  c #0F0A2E",
"W  c #0F0A2F",
"Q  c #170A23",
"!  c #130A27",
"~  c #150A25",
"^  c #170A24",
"/  c #160A25",
"(  c #150A26",
")  c #140A27",
"_  c #150A27",
"`  c #160A26",
"'  c #160A27",
"]  c #190A21",
"[  c #1A0A20",
"{  c #1B0A20",
"}  c #1A0A21",
"|  c #180A22",
" . c #190A22",
".. c #180A23",
"X. c #1B0A22",
"o. c #1A0A23",
"O. c #1D0A21",
"+. c #1C0A22",
"@. c #1D0A23",
"#. c #1F0A22",
"$. c #1F0A23",
"%. c #180A24",
"&. c #180A25",
"*. c #1B0A24",
"=. c #1B0A25",
"-. c #180A26",
";. c #1C0A24",
":. c #110A29",
">. c #120A28",
",. c #130A28",
"<. c #120A29",
"1. c #130A29",
"2. c #100A2A",
"3. c #100A2B",
"4. c #110A2B",
"5. c #120A2A",
"6. c #120A2B",
"7. c #140A28",
"8. c #150A28",
"9. c #140A2B",
"0. c #100A2D",
"q. c #100A2F",
"w. c #140A2D",
"e. c #180A28",
"r. c #1B0A2B",
"t. c #1B0B2B",
"y. c #1C0B2A",
"u. c #1E0A2B",
"i. c #1F0A2D",
"p. c #1F0A2F",
"a. c #0F0A30",
"s. c #0F0A31",
"d. c #0F0A32",
"f. c #0F0A33",
"g. c #0E0A34",
"h. c #0E0A35",
"j. c #0E0A38",
"k. c #0E0A39",
"l. c #0D0A3A",
"z. c #0E0A3A",
"x. c #0E0A3B",
"c. c #0F0A3B",
"v. c #0D0A3C",
"b. c #0C0A3F",
"n. c #0D0A3F",
"m. c #140A30",
"M. c #150A30",
"N. c #140A32",
"B. c #120A36",
"V. c #160A35",
"C. c #1A0A32",
"Z. c #1F0A30",
"A. c #180A34",
"S. c #130A39",
"D. c #120A3A",
"F. c #160A38",
"G. c #100A3C",
"H. c #210A20",
"J. c #200A21",
"K. c #210A21",
"L. c #250A20",
"P. c #2A0A27",
"I. c #200A2B",
"U. c #270B2B",
"Y. c #210B2C",
"T. c #290A28",
"R. c #250B3B",
"E. c #4B0A07",
"W. c #4E0A05",
"Q. c #4F0A05",
"!. c #4D0A06",
"~. c #4C0A07",
"^. c #4E0A06",
"/. c #4F0A06",
"(. c #420A0B",
"). c #430A0B",
"_. c #470A09",
"`. c #460A0A",
"'. c #400A0C",
"]. c #410A0C",
"[. c #400A0D",
"{. c #420A0C",
"}. c #410A0E",
"|. c #400B0E",
" X c #440B0C",
".X c #490A08",
"XX c #4A0A08",
"oX c #530A03",
"OX c #570A00",
"+X c #570A01",
"@X c #540A02",
"#X c #500A04",
"$X c #510A04",
"%X c #530A04",
"&X c #580D0D",
"*X c #590D15",
"=X c #6D0F11",
"-X c #790F18",
";X c #65101A",
":X c #6F111F",
">X c #460D27",
",X c #641121",
"<X c #861211",
"1X c #8A1012",
"2X c #8B1215",
"3X c #951313",
"4X c #921317",
"5X c #9F1313",
"6X c #9F1114",
"7X c #A20E1E",
"8X c #A61315",
"9X c #A71516",
"0X c #AA1217",
"qX c #AC1514",
"wX c #AE1514",
"eX c #A2151C",
"rX c #A81518",
"tX c #B21617",
"yX c #B91316",
"uX c #B81615",
"iX c #B91615",
"pX c #BD1615",
"aX c #BD1715",
"sX c #BF1616",
"dX c #B61914",
"fX c #B71915",
"gX c #B91815",
"hX c #B81915",
"jX c #B91915",
"kX c #BB1815",
"lX c #BA1915",
"zX c #BA1816",
"xX c #BC1815",
"cX c #900E26",
"vX c #991221",
"bX c #C50E0E",
"nX c #CF0E19",
"mX c #CE0F19",
"MX c #C31316",
"NX c #C41316",
"BX c #C41317",
"VX c #C01516",
"CX c #C21416",
"ZX c #C31416",
"AX c #C11616",
"SX c #C71018",
"DX c #C71218",
"FX c #C91118",
"GX c #CB1018",
"HX c #CA1019",
"JX c #C81218",
"KX c #CC1019",
"LX c #CD1019",
/* pixels */
": _.: 8                 ] Y Y X g '.; ; : : V     !         u * ",
"  g               o / 5.Y Y R   9 ; ; ; : *     1.Y           u ",
"      X M.c.b.h.R Y Y Y Y Y Y     s r V 8     1.Y Y       Q Y ~ ",
"Y Y T Y F.C.i.i.x x J./ ! Y Y Y Y ! Q ] [ Q 1.Y Y Y Y Y Y Y Y T ",
"1.: : OXOX'.: : ; ; g o % X B.v.b.b.b.b.b.Y T Y Y T b.m.Y Y Y Y ",
"*.* : OXOX: * e g R E E T T b.v.b.G.A.i.T.I K K K K I.r.~ 0.Y Y ",
"Y e H : : #.1.1.5.R nXnXnXnXnXnXR =.=.=.M OXOXOXOX~.: * : P   Q ",
"h.  g : 8.t.U.U.U.7XnXBXCXCXBXCX>XU.U.U.r.J.~.OXOX_.: : : u   ~ ",
"b.%       mXHXmXSXHXBXBXCXCXCXBXBXSXHXSX: * : OXOX: : * 8   % Y ",
"t.P.H H V *XCXCXCXiXdXdXdXdXdXCXCXCX5X(.: e : : : * : V     Y Y ",
"OXOXOXOXoX: : CXCXBXBXlXdXdXBXyX(.(.(.*     8 8XCXCXsX1X'.~ ; ; ",
"oXOXOX#X: : : 8 0XCXBXCXBXCXBX(.: H e   % [ [ % 5XqX3X(.;.  e ; ",
": : : * : : V   e (.(.(.(.(.(.(.u u   [ T T Y '.'.'.(.i.[     H ",
"* : g         X [ ~ 8.*.#.: ~.~.: * : n 1.T Y Y n.b.v.b.    u : ",
": g 1.1.1.c.c.l.T Y Y 0.V .XOXOX: n c c c #.h.h.n.n.h.h.*.~ % : ",
": T Y.U.U.U.R.R.D.0.Y ~ e _.OXOX#.T 0.0.T T T b.b.b.b.v.s.T T P ",
"  T nXGXHXHXHX'.: Y 1.~ 8 '.OXOX: : nXnXCXCXCXCXCXBXCXCXsX<X(.e ",
"~ Y sXdXdXxX(.: 1.Y !     : ~.'.: u U -XtXsXiXlXdXdXdXlXqX(.#.% ",
"Y Y sXdXdX&X: b.%         : : V u     [ [   4XsXlXdXlXsX_.P.Y Y ",
"#.#.2XsXxX).N.c.                ~ T s.T s.T   ;X6XqXqX X'.Z.J.a ",
": '.(.(.(.(.  % Y u %   u *.~ 1.T Y c.b.b.b.s.: (.(.(.(.OXOXOXOX",
"* : : : :     ! u .XOXOXOXOXOX% % Y T b.b.b.Y Y       OXOXOXOX~.",
"* : : * [ 1.w.0.*.L.b b b L.b ! Q Y Y Y Y Y Y Y Q     OXOXOXOX: ",
"; : : % T m.b.h.T s.T T T T T T T ~       Y Y Y Y     V : : : : ",
"; ; g % T cXnXHXmXSXmXSXSXGXGXnX* :       CXCXCXbXBX  u : : * ; ",
"  u   Q s.b.vXdXdXdXdXlXsXsXuX=X: P     % :X9XsXsX,X    %     u ",
"Y Y Y Y 0.G.n.eXdXdXlXiX(.H e b u     ! Y Y Y Y Y c.b.b.Y Y Y Y ",
"b b c #.*.N.D.b.qXiXsX(.*   #.[ ~ 1.Y Y D.~ ! ! 0.M.i.i.a b b b ",
"OXOXOXOX: : : J.(.(.(.(.T T v.h.Y Q OXOX; ; :       : : : : #XOX",
"OXOXOXOX.X: : : : * 8   ! T b.h.1.* OXOX; ; : 5     V : : * : ~.",
"OXOXOXOX: : * : : :       [ b.c.  OXOX~.; ; : V       H : : : ~.",
"OXOXOX: * 5 8 8 e 8     u ~ s.0.  OXOX: * : : u         u : : ~."
};
