/* XPM */
static char *result[] = {
/* columns rows colors chars-per-pixel */
"64 64 251 2 ",
"   c #2B2A2E",
".  c #25262C",
"X  c #3C2B2C",
"o  c #37272B",
"O  c #2C2C33",
"+  c #2A2B34",
"@  c #362D32",
"#  c #2F3136",
"$  c #2F3239",
"%  c #323236",
"&  c #3A3235",
"*  c #34353B",
"=  c #3A3539",
"-  c #36393E",
";  c #3A3A3D",
":  c #5B1B1A",
">  c #74110E",
",  c #7A120D",
"<  c #77190E",
"1  c #691916",
"2  c #791511",
"3  c #741C13",
"4  c #7B1A13",
"5  c #761B18",
"6  c #72100D",
"7  c #58251D",
"8  c #68241D",
"9  c #7C241C",
"0  c #77261A",
"q  c #782D13",
"w  c #482828",
"e  c #542D2C",
"r  c #582826",
"t  c #5A322D",
"y  c #56312B",
"u  c #472E31",
"i  c #443335",
"p  c #4B3534",
"a  c #443A3C",
"s  c #4B3B3D",
"d  c #463638",
"f  c #533332",
"g  c #5A3C3C",
"h  c #573937",
"j  c #4F302F",
"k  c #6C2A23",
"l  c #672825",
"z  c #7A2A24",
"x  c #69352C",
"c  c #77362B",
"v  c #6C3B33",
"b  c #663936",
"n  c #743B34",
"m  c #793B37",
"M  c #421F21",
"N  c #59413F",
"B  c #4F453E",
"V  c #63433C",
"C  c #6B433D",
"Z  c #6E4035",
"A  c #74433A",
"S  c #7B443D",
"D  c #754437",
"F  c #6B553F",
"G  c #3C3D42",
"H  c #383A42",
"J  c #433E41",
"K  c #4B3D40",
"L  c #533E41",
"P  c #663F41",
"I  c #3F4044",
"U  c #3E4049",
"Y  c #424245",
"T  c #4B4344",
"R  c #444549",
"E  c #47494C",
"W  c #4B4B4D",
"Q  c #494549",
"!  c #544444",
"~  c #5B4343",
"^  c #534A4C",
"/  c #5C4C4C",
"(  c #574847",
")  c #4D4D52",
"_  c #464851",
"`  c #544E52",
"'  c #4F5052",
"]  c #4F5059",
"[  c #535354",
"{  c #5B5455",
"}  c #555559",
"|  c #57585B",
" . c #5B5B5C",
".. c #5D5758",
"X. c #59504E",
"o. c #634342",
"O. c #634946",
"+. c #6C4C4B",
"@. c #674948",
"#. c #724A44",
"$. c #734D4A",
"%. c #794A45",
"&. c #6B524D",
"*. c #73524D",
"=. c #7B524C",
"-. c #765245",
";. c #645454",
":. c #6C5352",
">. c #635B5C",
",. c #6D5C5B",
"<. c #655856",
"1. c #725553",
"2. c #7C5452",
"3. c #735A55",
"4. c #7B5A55",
"5. c #745D5C",
"6. c #7B5C5A",
"7. c #694F50",
"8. c #79625C",
"9. c #6E625F",
"0. c #5D5D61",
"q. c #565960",
"w. c #645E61",
"e. c #5F6063",
"r. c #636363",
"t. c #6C6565",
"y. c #656669",
"u. c #6B6B6B",
"i. c #68676A",
"p. c #746464",
"a. c #7C6563",
"s. c #746C6C",
"d. c #7B6D6B",
"f. c #796966",
"g. c #78716F",
"h. c #6E6F71",
"j. c #6F7071",
"k. c #747474",
"l. c #7B7474",
"z. c #767678",
"x. c #7B7B7B",
"c. c #787879",
"v. c #706F71",
"b. c #85170D",
"n. c #96190D",
"m. c #8C1A12",
"M. c #821912",
"N. c #951E16",
"B. c #810E09",
"V. c #A61A0E",
"C. c #B61B0E",
"Z. c #AF1D14",
"A. c #8A240D",
"S. c #94250D",
"D. c #852A1B",
"F. c #882719",
"G. c #972717",
"H. c #993417",
"J. c #893616",
"K. c #A62619",
"L. c #B62519",
"P. c #A63819",
"I. c #B83A13",
"U. c #B02D0E",
"Y. c #872B24",
"T. c #962B23",
"R. c #873628",
"E. c #973A28",
"W. c #873A33",
"Q. c #9B3F32",
"!. c #A93826",
"~. c #B53829",
"^. c #E21B10",
"/. c #C92617",
"(. c #C73816",
"). c #D23218",
"_. c #E83619",
"`. c #D63A28",
"'. c #CC3227",
"]. c #E4372C",
"[. c #C71D13",
"{. c #BA4515",
"}. c #A1490D",
"|. c #994329",
" X c #85473A",
".X c #89523A",
"XX c #954D35",
"oX c #A64829",
"OX c #AC4C37",
"+X c #B54E32",
"@X c #C84815",
"#X c #D34516",
"$X c #D0511B",
"%X c #EA4917",
"&X c #D44824",
"*X c #D94935",
"=X c #CE512F",
"-X c #E74727",
";X c #EC5933",
":X c #EB572C",
">X c #E46A3D",
",X c #C5633F",
"<X c #834B43",
"1X c #864B46",
"2X c #86554B",
"3X c #965747",
"4X c #815D5A",
"5X c #865B55",
"6X c #935B54",
"7X c #924C45",
"8X c #AB594C",
"9X c #88635C",
"0X c #92655C",
"qX c #83604F",
"wX c #AC664E",
"eX c #836563",
"rX c #8C6562",
"tX c #836964",
"yX c #846C6A",
"uX c #8B6D6A",
"iX c #8A6A65",
"pX c #8B716D",
"aX c #94736E",
"sX c #8B7572",
"dX c #867977",
"fX c #957874",
"gX c #936A66",
"hX c #C95942",
"jX c #CD6D4E",
"kX c #EC6F4C",
"lX c #EA6F5C",
"zX c #95827A",
"xX c #F2935C",
"cX c #F08856",
"vX c #D59470",
"bX c #F2996A",
"nX c #ED8F67",
"mX c #F3AA7B",
"MX c #D7815B",
"NX c #7F7F81",
"BX c #7F8081",
"VX c #838383",
"CX c #8B8B8B",
"ZX c #8A8584",
"AX c #949494",
"SX c #998785",
"DX c #A29386",
"FX c #F4B889",
"GX c #F4B692",
"HX c #F39886",
"JX c #F7C796",
/* pixels */
"u.u.CXCXZXx.k. .[ [ W I % = B | r.[ W W ; ; R I G Y = + % ) Y Q ( @.u.j.zXBXBXBXc.k.u. .r.r.r.r.[ W B W R G H G G [ | >.i. . .x.",
"k.VXCXNXk.k.| E E B I B [  .r.y.u.[ ; & = I I W [ U I # - r.G ' = a ) r.x.BXBXx.x.k.r. .r.r.[ ' W I Y W J G G * % R W |  .r.k.zX",
"VXx.z.} W ' | W W W  . .| | r.j.e.* O G I ) | } ) # $ # O  .| [ p p k.r.r.BXBXk.'  . .r. .- R W E ; - % $ G * + G Y [ | ' ' 0.c.",
"u.u.Y ; [ i.0.0.' - ; [ [ u.y.W -   O H W ' I # + - U - # [ >.Y & x  .r. .E | | W [ r.[ ; B W ' R W E I U G + O G [ Q Y B I e.e.",
"W ; * * I I [ r.0.e.I '  . .- # O + % H G * O O R } 0.R + G  .W w  Xk.k.r.i.' R - # I k. .R I ; W ' H U e.$ + R W I I I H I | [ ",
"* * ; = - ; # = $ I ' I - - + + O O $ + + O % G ) ) W W J * } a q 8.9.t.BXBXW W B % * e.[ G R e.e.I ) u.U + - | [ I I I E U - - ",
"* I Q  .[ I - - $ + % % # % I G J ;.o.! r x u ( g * % % G ) J e n 1 2XzXBXBXu.I  .W G Y i.W } e.- ] u.I $ G # W | ; U ] | - * * ",
"Q | 0.| W | i.k.u.[ ' k.r.I G I | x.ZXaXW.c 2 9 p ..) R ) } i R.k 0XzX8. .r.j.j.Y Y Y G r.u.e.- ' e.E I ] G + - e.W q.e.U * - U ",
"' ' ' B [  . .k.j.zX~ t.n s [ r.r.r.>.5.eX9X1Xz m p ^ ] = w , c aXiX;.}  .` } z.| I R G [ c.U H } G J y.5.i $ % u.y.| U - - * W ",
" .' W I ' | r.c.j.g.|.tX1X9X<.u.t.y. . .u.>.aXgXz > , , b.M.l y K & * O % . ; W R % _ - E u.I H J G h.h.;.t O % ) ) - = I * G } ",
"| [ ; ; | X.[  .r.tXn D. XaX9XX.0.u.u.g.sXa.W.W.M.3 m.F.W.2Xu . . . + +   . $ $ O X i - # I X & _ h.i.) K e X   + + j p k.Y I ' ",
"' W - W W ; % % W 9.uXc H.m 8.pXdXg.fXsX-., B.M.9 z 2XrX;.H =   U Y E ` ] ..i.0.Y *.tXu.I   j h r.k.y.w.t 4XN N ' E p x r.* - ; ",
"E Y % I % * Y W [ v.a.4X2.Q.F.R.2X6Xz 8 q < < S.R.6X=.s K i j t m +.+.,.dXw.,.s.| eX8.[ = O. XB _ r.r.X.D.9Xi -.p.v.,.S | - O - ",
"% # . I = R | W u.u. .;.2.J @.1 6 , 2 b.b.S.A.S.R.k w R.,X@X=X,XK.Y.l Y.1XrXiXd.i.sX/ V Y. X8.[ ; ; ; X Y.2.k S.0Xc.3.9Xr.) Y O ",
"# .   r.Y % ' ' [ | [ G X M 6 , , n.U.I.@XU.C.C.C.G.K.P.*X>XnXkXC.!.6XsXl.v.w.} R A W.E.6XzXk.j.u.x.s.6.9 R.R.2X8. .f.yXk.{ Y O ",
"# * - I r.;   Q  .Y * % 1 n.I.(.@XT.XX<X| y A.< S.^.^.].nXnXjX3XeXl.w./ L r 1 r ! X F.v [ z.VXZXz.r.*. XH.R.9XV { | 5Xa.u.[ W R ",
"G # - I e.h.H + % & 8 F.N.~.8X2X+.s & X 8 S.C.^._._.kX_.bXMXeXT p p R.@X(.n.B.6 > E.F &.X.h.CXVX;.#.$.W.Q.6X1.| W :.P sXi.] w.] ",
"Q Y - - H 0.) a r < 9  X6.6.~ i o 7 0 m.V.U.).].;XHX;XmXvXS %.x XX).U.n.b.3 0 W.1XuX0.V %.l.x.k.#.#.2 , 1XdXdX0.` p.m CXw.i.q.J ",
"[ E ; ; * G ' o.v p %.yX3.= o : n.C.C./.(.%X%X:XnXmXHXbXkXU.A.S.A.J.D.z W.9XaXfX8...u.x.5XS 2Xm S G.b.Z.b.m.1.v.c.p.1XNX} y.] ] ",
" .r.W Y Y - ; J &.2XuXu.* - r.S x R.!.{.)././.+XwXjXGXFXcX;X%X#X~.qXgXaXeXsXs.| r. .| i.x.f.a.6.R.{.@X#X-X~.N.5 m n uXq._ _ @.} ",
"c.c.z. .G H e.x.t.2X| * [ x.s.uXuXuX3.( ( T N ! 2.HXGXGXcX%XI.XXfXfXd.t.k.u.k.x.k. .' B } w.n 5 J.H.A.A.I.&X&X{.oXuXv. .) O.A z.",
"c.u.| j.k.h.r.VXzXx.B e.j.i.i.u.t.( p e c c n o.$.wXGX'./.T.5XyXeX>.u.CXCXBXh.| ^ / ;.<.#.W.Y.2.<X9 2 K.L.K.m.%.9Xa.| e.y.m d.NX",
"x.c.e.| NXi.i.k.CXr.T f.i. .[  .E * = 4 $X$X)./.hX'.T.5 m tX@.,.x.VXfX3XrX6.V o.$.1Xn c T. XrXb V 3.1.5 2 2 @.rX3.:.W W 3.D x.x.",
"BXCXCXX.T j.r.i.ZX[ ( f.' R [ I # d 8 D.Y.R.Y.k 1 2 1 1 b & } y.d.-.S 1.,.f h o.P v x S rX5.` _ | O.+.t.r 6 : b 9.O.d I &.wXk.x.",
"VXCXCXD =  .j.r.k.d V 9.) ) G X : J.z eXyXyX6.:.6.yX2.l R.1 p v D 1.s.i.y h b / 6.s.i...w.q.G } 0.J u e eX3.: 1 h / g [ <. X2.x.",
"k.CXzXwXN I r.u.e.j -.zXR H e z a t t.p.` K @ J ^ >.{ h %.8 5 C u.r.[ Y 8.fX6.$.c c x h 7.:.] G H $ O J p +.c 0 z 9.3.w.h h g.u.",
"z.z.u.x.v Q | z.Y r rXx.G G P w.Y v VX' * $ W W q.u.NXh.k.eX5 w - G K tXZXBXdXyXf.tX2Xb k 5 $.w._ + H H + J A s.5 #.3.<.3 C g.r.",
"j.k.j.z.4.b ..5.t R.SXz.0.z.z.J ; v h.+ - y.} Y h.NXu.w.` _ %.3 k h a.l.u.| r.y.0.) w.4X:.x 4 h w.0.q.H H ` x d ) 4XdXR.R.2X9. .",
"[ u.u.k.zXZ ~ r M.R.3.pXdXE } } * x ) G 0.) $ - R J T ' W 0.z.dXyXBXk.r.w.r.r.W | ' ' W 8.6.l < 5 P ` ` J J p l t N b J.-.k.[ | ",
"E  .>.j.pXq 8 L.'.K.4 r r f J _ } X G ) * + O } h.R p D ;.zXCXdXh.zXCXAXCXVXdXs.u.| &.h 1 < m.A.S.M.Y.6X4X5Xb i t l 1 f c.k.- Y ",
"W E | tX8.3 G.~.MXcXbX!.2 : w w K J _ O + + Q R _ h.eX7Xc z m t.[ e.u.k.CXSXtX=.9XyXfXsXaX.XE.(.I.#X(.P.K. XP b y c 8 f. .& = ; ",
"[ B W X.N V N x >XjXnXxX>X{.b.7 @ o . + $ ] u.y.* G | k.BXVX0XF.x s.s.+.k S.S.m.m.K.T. X0XaX5XR.L.Z.'.&Xo.6XwX`.`.L.F.d # M j W ",
") J = w l Y.E.jXjXc =.5XXX{.{.P.A.q B ) q.c.i.W H H G R w.c.u.5.1 9 z 8 > K.I.$Xn././.C.V.Y. X9X!.hXnXbXjX8X+X X@.K = * i ;.0.] ",
"W - x 3 I.(.].>X:X>XS P %.=.2.W..XF &.| j.y.# = G H H @ R Q g 1 b A dXf.<X5 1 8 8 V.C.(.#XjXlXnXFXmXbXvX0XyXeX} ^ b Q.7XBXv. .W ",
"W :.O...5X6X8XoX:X:XnX`.Y.n o.#.&.*.  % } e.Y R H G K k R.k .Xg.x.u.r.| ' T d 8 0 ~ 1X XY.OXjXnXmXHXO.( ^ ! *.OXG.E.f.h.r.r.` Q ",
"Y J i @ + & B V ;.&X*X5 k 5Xi.X.= % * } y.y.E x.} 0.y.yXfXVXc.k. .[ [ r.,.Z x V k.l.+.b b g  XXXvXJX8X7XE.F.Y.T.=.t.} J * W W W ",
"; - * w , 1 r w p @X5 m =.>.[ W ; = e.i.r.| G k.h.y.r.r.u.x.c.u.0.' V Z -.,.i.[ y.0.] & u g d X d / GXnXnX].M.%.0.Y H G   * I I ",
"- ; * = J.S.n.}.P.T.b j j ~ G - w ; Y '  .I % ' z.y.y.j.BXu.X.B Y N x r.z.| # ' y.0.] $ ] ^ r 4 +XwXnX;XkXm.8 $ # + &   + % G G ",
"I W W d Z J.oX+X5 m t X @ w o X j W ) } [   # G | j.u.} B h v } W B R i.u.H ' k.} q.H W X.< 1 1 < 2 F.m.M.5 M.k @ w r = G U E I ",
"i.r.' p V - 9 m.5 $.4X} Y @ o Z >.y.' # I T ; * I ; i k D.8 ( J I I e.e.I * j.e.E i ` =.E.0 b 6X8.qX5.u.v.c.,.c Y.B ' CXAXZXCXVX",
"x.x.B Z 9.e.d.XX1 s 1.zX' I * <Xu.I - J i.` ; [ ^ w 3 9 #.2.d - - } h.R @ & Y G h ` 1.k n -.1XP s E E Q [ x.CXy.E.n | e.VXBXx.BX",
"x.9.N 3.k.[ x.fXc t g g.BXW G l & * { k.>.T ..p.t c $.rX:.^ Y h Y 0.- + w Z w e 7.} C A 4Xb p _ 0.[ Y [ a C = >.t.m D.>.R I [ x.",
"u.Q &.u.e. .| sXqXD i g c.u.[ 2X0 s o.:.5.r.w.j W.3.a.i.r.[ 4X#.W * O j s n t :.{ a XX:.t h } | L i z 9 c c x Y | r.3X.X4.X.0.k.",
"r.k.i. .e.zX[ X.aX3.x i ! x.x.8.E.9 v f Q w.u Y.5X^ Q 0.;.6.:.Q * t n K ! z @.+.G n 2Xf s ] ^ w X g l XXtXiXS t G u.zXg.*.&.r.r.",
"r.r.[ r.e.x.x.W 1.sX=.V * ) CXo.f 1 Y.k d s , z W.1XP L B N / -. X1Xl.~ b 0 v f h XX=.{ J L w M 9 k W.#.x ~ 9X XI u.k.j.ZXx.c.r.",
"r.u.[ >.r.u.CX .T &.{ R * G yXx P.P.~.K.1 2 m.T.G.n.m.2 S <X5X5X9Xt.| X.f.2X0 b.|.C ] % o w : M.T.1X:.,.( &.3.3XD E j.u.z.k.r. .",
"r.x.[ [ r. .x.BXY a J G H u l 1 I.-X:X-X[.A.A.F.#X`.-XL.S.b.n $.d...X.W  .k.j.C x @ X w 6 m.@X|.2.! p P >.' E ! -.0.E  .j.r.r.r.",
"r.VXr.'  .'  .CX) @ O @ M @ *.4.4X2X<X~.`.'.[.[.`.-X-X#XU.I.I.H.D.Y.q X.>.W | 0XW.8 6 A.{.#XP.#.p Q.=X> 4 v ;.' a B ' B | e.e.i.",
"r.x.c.'  .i.k. .T y 8 0 6 n.n.L.'.OX7XgX).>X>X.XqX6XwX6XW.k Y.XXs.zX8. XqX' ; O @.5X=.c q A.D.y oX&XN.F.z x 1 8 ! i % = - W  .r.",
" .u.zX . .' ; p D .Xn 4XY.4 Z.;XkXxXcXkXkXnX*XOXXX2X%.5X5.s.s.2.*.8.k.k..XN T a Y @.5Xa.q H.{.H.b.5 b g = .X9X=.R.R.3XA O.r.| [ ",
" .u.VXr.= y R.-.fXeX:.~ K 2.x T.*XcXbXFXGXxXGXFX=XK.T.$.-.2.4.3.8.=.4./ t.*.; Q ) ] ^ 5XF k G., r +.d.;.{  Xp.eXuXm 1X0XX.'  . .",
"r. .BXs.a S zXCXi.-   % + f +.%.a.9X2X.XwXmXGXlXG.F.*.L V X.[ r.r.| T h b s.| ] _ K R s B 7 3 1 r 5.q.P ! Z ( #.>.u.d.5XW  .|  .",
" .c.BXW [ BXVXI * - - Y * H %.D.F.wXrXyXA m Q.Q.W./ d h ` r.| ' W ; W W ( &.7.{ +.7.:.L X 9 #.x M K 9.+.V -.9.^ Q E Y I X.W Y ' ",
";  .I % I U - - * % - % . + p.=.8 !.bXnXMXwX8X5 l 8 n C m i.' ) W ; X.' w.u.4.6.3.P o   8 5X:.<XN.u   g tXg ) [ R R G ; H - ; ; ",
"; #   - H % I ' } 0.c.VX} W O g 4Xc oX,XhX+X8 1 b w.p.J oX4.i.' B ; W W y.f.6.~ @ w e k z N I tXl M.X X *.Z X + # G - I G R ) I ",
"VXj. .y.| r.j.y.0.i.y.c.VXCX; J & w 5 4 2 l B / ! ` 0.k.9X3X8.y.E ' W 3.eX+.s u .X#.#.2.[ G I z.h.t z f B s.p.| R [ [ [ i.0.i.u.",
"x.VXBXCXk.u.k.k.} r.k.VXAXCX' = y 0 E. X$.6.6.T R W [ i.s.qX.XD F G Y ;.* X 4.iXzXtXtX8.W G E u.u.j.8. Xy T j.c.u.u.k.j.z.NXx.x.",
"x.BXVXCXAXVXk.j.y.u.BXx.0.E ; r D ! 7 yX2.O.- = G I - % I  .u.9.=.Z   + = sXzXCXzXj.r.[ Y ; r.r.e.= ..g.C B % B  .[ r.k.j.NXx.k.",
"k.x.x.VXCXCXu.| E G T B B / |.-.k.B .X8.h W R G ; # H - # H E H  .z.W - u.CXAXj. .W B W '  .u. .} # = R BX| &.B Q  .y.r.i.c.r.r.",
"u.c.k.r.VXAXCX .s.[ T / 3.yX>.u...F 2X*.& = R W ; Y j.r.- # # | [ ' W ' CXCXk.u. .j.r.r.u.x.u.| - H ' W i.k.r.X.T T >.r.k.s.' r.",
"r.u. . .c.AXAXCXr.| | r.t.W = ' W D 0X| ) B ; Y [ u.| ) G # # r.u.Y I | u.BXBXk.u.u.r.u.k.g. .; I ' Y } W I E r.r.-.r.r.i.[  .u.",
"u.r. .u.CXAXCXj.[  .r.u.} G I ) r.c.BX|  . .Y ' j.} G I -   - r. .' [ c.zXBXBXc.r.u.r.r. .[ W I 0.' G I W I ' [  .r.r.r. .[ r.r.",
" .e.| BXAXCXx.r. .r.e.[ % W  .' ' g.i.| | |  .[ 0.I I ; % # E | W [ | BXzXx.c.k.r.| [ ' W [  . .r.[ 0.r. .W W '  .>.r.r.[  .r.r.",
" .| x.CXCXx.j.z.r.r.[ W W W ; & = ; r. .'  .' Y Y - B Y      .' W W e.BXBXBXx.z.u. . .| >.r.r.i.u.i.r.' B Y I I W  .>.| | >.r.r."
};
