/* XPM */
static char *xpm_[] = {
/* columns rows colors chars-per-pixel */
"32 32 111 2 ",
"   c #3B2C2C",
".  c #2F2F37",
"X  c #342E33",
"o  c #3B3134",
"O  c #34343B",
"+  c #3D3639",
"@  c #3A383E",
"#  c #781313",
"$  c #462727",
"%  c #453333",
"&  c #4D3737",
"*  c #4D3D3D",
"=  c #553232",
"-  c #523C3C",
";  c #6E2929",
":  c #3D3D43",
">  c #4B3D42",
",  c #424146",
"<  c #4E4344",
"1  c #454549",
"2  c #4E4448",
"3  c #4B4B4D",
"4  c #534545",
"5  c #52474B",
"6  c #524C4C",
"7  c #5A4D4D",
"8  c #4D4D51",
"9  c #515152",
"0  c #5D5151",
"q  c #5B5B5C",
"w  c #664A4D",
"e  c #7A4444",
"r  c #645454",
"t  c #655B5B",
"y  c #6E5E5F",
"u  c #7F5757",
"i  c #745F5F",
"p  c #7B5858",
"a  c #646464",
"s  c #6C6C6C",
"d  c #7E6B6B",
"f  c #737373",
"g  c #797979",
"h  c #960606",
"j  c #9D0606",
"k  c #851111",
"l  c #A30606",
"z  c #AA0606",
"x  c #A70808",
"c  c #B30606",
"v  c #BA0707",
"b  c #B70D0D",
"n  c #BA0E0E",
"m  c #AD1212",
"M  c #B71313",
"N  c #B61E1E",
"B  c #932929",
"V  c #972D30",
"C  c #9B3839",
"Z  c #A32B2E",
"A  c #B32E2E",
"S  c #C70707",
"D  c #CA0707",
"F  c #CE0C0C",
"G  c #D50C0C",
"H  c #DA1F1F",
"J  c #E40404",
"K  c #F40505",
"L  c #FF0000",
"P  c #FF0C0C",
"I  c #E11212",
"U  c #E41E1E",
"Y  c #F61C1C",
"T  c #C52121",
"R  c #C82B2B",
"E  c #D72828",
"W  c #DA2B2B",
"Q  c #C53031",
"!  c #C33838",
"~  c #D13030",
"^  c #E32324",
"/  c #E92424",
"(  c #F82121",
")  c #F92E2E",
"_  c #F93636",
"`  c #9B4949",
"'  c #984F4F",
"]  c #805758",
"[  c #815858",
"{  c #805859",
"}  c #835959",
"|  c #845959",
" . c #865858",
".. c #845A5A",
"X. c #FB4545",
"o. c #FE4848",
"O. c #FC4E4E",
"+. c #FD5151",
"@. c #FB5B5B",
"#. c #FD5C5C",
"$. c #FD5D5D",
"%. c #FD5E5E",
"&. c #FD5F5F",
"*. c #FD6161",
"=. c #FD6262",
"-. c #FD6666",
";. c #FE6969",
":. c #FE6C6C",
">. c #FE7070",
",. c #FF8686",
"<. c #FF8989",
/* pixels */
"a s a q 3 9 9 9 9 9 9 9 1 : : 3 9 a a a a a q 9 9 > 9 9 9 9 9 a ",
"9 9 9 9 9 9 9 9 9 8 1 , : : : 9 q a a a a a 9 9 , : 9 9 9 9 8 9 ",
"9 9 9 3 : O . O : : : : : : : 8 9 9 q q q 8 9 , : : 9 8 8 3 : 1 ",
": : : : @ : , 1 9 9 3 1 , : : , : , 3 3 3 3 : : : : : : : : : : ",
", a a g g a a a a a q 6 9 6 @ . . . . . . : : : : : . @ : : : : ",
"1 a a g g a a q 9 & & & & &       O : , 8 q q q q q 1 , , : : : ",
": q a a a 4 * * & & h h h h h j & 4 4 - 7 g g g g f a a a a 9 3 ",
"@ 9 9 a - - = = = k h D D D D D ; = = = & 4 f g g s a a a 9 9 , ",
". 3 9 9 9 l l z z c v S D E D D S v c x a a a g g a a a q 9 8 : ",
"1 8 a q t e D D L o.%.&.:.<.-.P L L N i y q a a a a a q 9 8 : : ",
"g g g g f a a S K L L +.*.;.L K [ } [ p 9 9 q T G I I A | , a a ",
"f g g f a a a q M J L L L L L | p q q 9 6 3 3 3 W / ~ ..< 9 q a ",
"a a a a a a q 9 r [ | | | | | | 9 9 9 8 : : : ..| [ [ * 3 9 9 q ",
"a a 9 9 9 9 9 3 3 1 , 2 5 y d f a a a q : : : : . . . O 9 9 9 a ",
"a 9 4 * * o o % @ : : : q s g g a 0 7 7 7 6 % + X X + + < < 6 a ",
"a & = = = = $ $ % : : , q s g g 6 & & & & & &           & & & a ",
"9 & h n n n n | u : : 1 q a g g a a h l S D D D D F D D Y ! | q ",
"1 : Y #.%.( | u : : 1 9 9 a f a a 9 7 B U ( _ %.*.<.>.X./ | 5 6 ",
": : Y %.#.' u . 9 9 9 6 9 a a q 9 9 9 3 3 9 R Y O.$.O.Y } w : : ",
"3 3 Q Y Y | @ X 9 9 9 9 9 9 9 9 3 : @ @ : @ 9 C W / / | u , 9 3 ",
"a i [ | } | 9 9 : 9 9 9 9 1 1 , : : O . . . @ p | } | ..g g g g ",
"a a a a a 9 9 1 9 s g g g g g 9 3 : : . . O : : 9 9 9 g g g g f ",
"a a a a 4 < * * < 7 0 0 0 0 0 < < : : : : : : : 3 9 9 g g g g a ",
"a a a 6 & %   % & & & & & & & & & < 9 9 8 : : : : 9 9 q a a a a ",
"a a 9 9 % # h z z z z z z b n h a a 9 9 9 G G G G S 9 9 a a a a ",
"9 9 9 3 @   m #.*.*.%.) Y Y Y ` a a 9 8 8 Z U Y Y V 9 9 9 9 9 9 ",
": , : : : o   H *.=.X.Y | t q 9 9 9 9 , : : : : : O . . : , : : ",
"9 9 9 3 3 : o   ^ Y Y | p 9 3 3 1 : : : @ , , , : : , , 8 9 9 9 ",
"g g g g a a a 5 u [ [ | : : . O : 1 g g a a a 8 9 9 a a a a g g ",
"g g g g s a a a a a r 9 1 : . O , a g g a a a q 8 9 a a a a a s ",
"g g g g a a a a a a 9 9 9 3 . O 9 g g f a a a q 9 9 9 q a a a f ",
"g g g a q q 9 q q q 9 9 9 1 @ : 9 g g a a a a 9 9 9 9 9 9 a a f "
};
