/* XPM */
static char *_cdbf7093ae14e5ba4f765b4ccd71c8aXVDQ8KYQA7IHXz1g[] = {
/* columns rows colors chars-per-pixel */
"128 128 33 1 ",
"  c #2F0000",
". c #330000",
"X c #350000",
"o c #3B0000",
"O c #3C0000",
"+ c #420000",
"@ c #470000",
"# c #4A0000",
"$ c #4F0000",
"% c #500000",
"& c #570000",
"* c #580000",
"= c #5E0000",
"- c #630000",
"; c #670000",
": c #680000",
"> c #6D0000",
", c #720000",
"< c #770000",
"1 c #7B0000",
"2 c #7C0000",
"3 c #820000",
"4 c #870000",
"5 c #880000",
"6 c #8D0000",
"7 c #900000",
"8 c #940000",
"9 c #9B0000",
"0 c #9F0000",
"q c #A30000",
"w c #A40000",
"e c #A90000",
"r c #AC0000",
/* pixels */
";<113446541>;-&*==*-;**=&$$%&;=&&:365643<;309>-&=%&*%%*%&&&&&--*;245:;;&$%%+O$&&&:<<23567782==*&-;-=;:;;*&&%&*=-*&>143413452,:*:",
"=>1,,135575884<44>;>;==*&$%%*-**:58873,>::37r5-;=%&*-==%&*&&*==*:,<81;>=#%@X@@&>,111<35584785=%===*--=*;;*%&**=>135434322321>;*-",
"=;><<,,3622547866642441<>;:;-*=,7q8882,:<;260q<>---*;;*&=-=**-&*;>801===*%@$-131,<,22,35445565>=--===&;-==&**-1676435421<,<<>=&&",
"-;;>>>:13231<74221,<364365364357797741,1:;,46eq<;-:;;>:;:;:>-&&&,9q5:*=&$*>133:*=-,1,:<1<1<34573-===*--;**=%:6644433343,<,>>>>$%",
"-==-->,1<121><2<<<<<345446335678158432<2;=,258re87147557537771*19751&#%:123,:-$%*:,-=:><<<<214856<===-;;-&-366,15433251<2,;>>:&%",
"=&*=;12:-,,1<:2,>32-2534537234455234411<-*,345800eq0333352460057754:#@<43,:;=%%$%-;==->;>,,,1332674>=*==->6833224221351,>:,:=-*&",
"&$;;,<:>>>1,<<<<,43>21<144612223321<2<2<*=,15575665311412433567485<-#>2<;--*$@$%%&&=-:;;,>,<,133666541;:378213221<1353,>:;:;-=&$",
"&%-:::><>,,><<>><,:23232224<1211>11;>22;&=>134433<132122465622443<;&>4,;*==%@@#$==*--;;,:*-:>13345327765623121,,,112<>;>,:::-:&$",
"&&&=&=1:-,>>,,>-,;>343331<,<<<1>,1,,:>>*%=>1131,,24213<35142,144<>*&56,=&%%#@#@#&*-::;=-*=,>,1122345455552,12><><<1,:<,>,:<,=-$#",
"$&&%*=>-::;:><>:>->22342111<<>,>1,;>>;=#$*:>>>1<,1111<333;2221,,<;#;87>=*$+@#@+O$&*;-;:=*>:>>,<13254354542<,<,<,22<1<<,:>,<>=%+O",
"&=**=**;>:>,<:>>::;,11<1212>,1>:,-;,<:%#%=;-;;,<>211<<22332312<-;&$,80--=%+@$$#O+#=;*=;:=>:::,11<<236322,1,<<>>:<2<<1,;;>,;-=*##",
"&=:-=*=*:,,,<>,>><,<3,><<<2::,>>-=>:>;%##*;;>>::,111,<1<<1<:><:-*+&<5q4**&$$$%##+#&*&=>:*=;:,,>12<<4223,<131<>>->,1111;=::,;=;&$",
"&*=-::;--:;>>>::>,,,<1,,<<<,;::>%:1-;*%#$*-;=:;:<11<,<1<<<<;<>-*#O-<37q4%*&&$###@@&%*><:=&-,,,183<2212<1,331:,,>>;:1,,<=;,>;*-$%",
"&--;*:<>::-=::>,>::;<12,,,,,>>;==,>=&%#O$**-=-;>,<<1<<<<<:;;>;*$X@;<236e<==%%$$%$+#$>1>---:1>188,,<,1<,1<1,<:>:>:::<<,,>->>-*-%$",
"%;=->:>,,,,:;>>,;:>>,<,<,>>>>>,&=;;:*#@o+%**=---;111<,,,:;;;;%$&-;=,13369,==%$%&$O%-><>=-:><2082::><,<,,<<,>>;:;-:;;21<1>:>,-=&#",
"&&=:>:><,>::-:,>:,:<>;:;>>>>,;:;*****+$@O$&*==*-:>,>,,<>;*%&=:>,:-=:247867;=*%%$#%>2,>:-;>;1q83,-:;,,2,:><<>:>,:>:-,,2,<,:,;;;%#",
"&**:;:>1,<,>>::-;>;;-:;-;:>::;-=&*=&#@$$@@%%&==*=:>;>>,=*;:,<2>;;=&;<24470q>**&%&14<>>>-::2772<--;::,>:::>,:>3<>:;>,12,>1,;-;-&@",
"*=-;;;>,>,,>,,:>::;-;;;-::;;--&%&=*@+=*%$@@#%&**=->;-=&:1,1<,<-;-&&=:,365807==*&25,:>>>;>59431=-:-=>:=>,:;>;>21,<><1><,,1<;--;*$",
"&&=;;;;-;;>:>:>>;=;;:;;;--;-=&&$&&%#@%;-=$@#%%%*===-1112>:>,<==-==&*;><651607:*15>:>>:;17083,:-->;:=>,>:--=-;<22,,<2:,,,<,,:;=%%",
"%&*-;---=;>:;;::-=::*;:;=;*=*%%$%#%&&&=:=$#$$$&*=&%23<,>:>>;:;-=*&%&;:><51379954,:>:;<686354,=-::->->>>;:==-=<3<,<<121<,:<<,=;*#",
"#=-**-**=;,--;=**=-*==--=**%$==*&*&*=;-;-%##$&=*&$>532,->;>=--*&%$&&*-,,1556680052,,794642<<:==>=:,-;-=::==*=3321122354<:>,<;>;@",
"%&*=%**==-:&-*&%&*&====*&&%$$===-;;*=::*&%%$#%&*&;421<>;---**&&&%%&&$-<>><1366590q9qq32341,>-=;>:<,-;-=&-;*%:6422432443,>-,<::=@",
"##%=%%===&*-==$%&$%***&%&$#@%<<<254,&**#$$*=$$&;=353<><;*=*-*&*%%&%%%==;-,21433767562,21<<>:-;>;,>;;-;-**=*-444352222<<>>,,>:;&$",
"O#%$%%&*&&%=&&$%%%*&&*&%##@$252212154-$#%$%*&$&=>562,;;;&==*&**%%&%#&*&--:>,,,<55533,;>,>>=-=-::>=;;==-=***<55655321,<1322<--%&$",
"O++@@$$%%%&*%&%$$&%%%$$$%$#>712,>=;244;%=%%%%&$%1695<=;*&*&&$%&=$#%*%%%&=:>:=;,111<,,,=--==*&-:,<>::--===*1446545434434332>-$%%#",
"XoXo++##$#@$%%%&#$$$#+@*=#*3841:=:;:1<3<$$#@%**-4566<;=*%&*%$&%&$#$%$&#*-;3<-&;::;-123,&&****--;<>;;:;===,4545653444532211>&$$$o",
"OXX@+++O@$=#&&@#$%%$+@&%$&>676<&$;,>>,,41*#%&*&14564:-*%$&*&%&%@@$%&%%%%*-34<;=%%$,7341-@%$&*-;-;;:;;:;=:65653352454334211;;-%#o",
"+@+$#@@+$*&&%@$%$%$$@%%+#-<777>&%%;;:::>33,=#%:54497:;=&$%&%%$%#@#%-*$%%&=<252:*@*7435<>&+@%*=---;::;-;=25654232244544421>>:-%@+",
"+@#*&&#@$%%$O&&=$##%&**@%>47q5=%%$&::-::,323<&:265792===&*&$%%$$$#%*&$#$&&<232<>>86><2,:;@@%&&====---;=<6365233376575332,:>;*$@#",
"$%&*-=$O#%O$==&%@@+$*-=#-,599>%%###=;--::,,,3,:4755793,-*=&%$$%&$$$%%$$$&=>2367788:=>::;:&O$%%***===;-,654222314766651<,>>;==$#$",
"$&*=--=@@@X$*=&$$++&--%%:<592*=*&$%****==-:=>>>4443606771=**&%&%%%$&&$**&;4708962<211<:;::@#%%&*==-;-<635761<531535432>,>:--*##$",
"=&*=--&@o..#%+#$@$O$&%@-><77>&=-;*#$%$&&&=-*-:,24227767793;-*&%%*%$&&%;<37765432<2347753>:&#%&&&*-;-<657451<124<<<,531,>,:-=*:;&",
"2<-=-=&##@O@$$*%@@%+@o%:,3586--==-*%@%##&&&&&;,,<1355666605;--*&*&**;,48862213<,1<,<3255343-$*=&*-;2943541<2212<,2,11<:::-=-2321",
",<3>=*%%=&@++&*@**@@O+=-,78802=;;:;=+$%@@%$%**=;:13545468577-:-;-*-;47544221,>;;,;:>1133144412,<<357751221331322<,:><>;=-=*24<,1",
";-<4<&&**&&$%$%*=$++o&-;177459>;-*>-%$%&$#$$=-*--:15553535596;:,;-:475432,<<::=-=*-,<,46<2<243664561141,1<2113331::1>;-**$,41>,>",
";:<<4<&$#%:%$O#$+++.+=:,3664675>;%-<=#&;*O@%&*=,>;;,21444246q612<487552<<>,<>-==::;,,>163<<22<22443332221><22431<;:1>;==$*253<:;",
">>::16,*%&=&OXooO$#o&;>1452275782>:,**:,=@$&*=,,>:&:<,32364469909755432<,;::--==:;-:>>-3,1,231112434322212:<131<,;-::-=&%>255,->",
">>:>,373-&$$$O @$$$#-:>3432342487762>,;,=$#&=;<11;$=,<31265647698744222,>:::=-=*;;:-:332<2<<3<<1<24<<22321<<<>,<--;-=-&#=2368>;>",
";:;>>,374-@$$#+$#$#*:,146547428524678861-;%&:3642:$*,,21123447666653122<>,>-;=#*=:>11;41<<112<<1112,<1,231<<>>,>-=-=&=*%;2488>-;",
":;:-;,<,34:&$*$++o#;,<36443444633224348754426974:,-&,<,<<3224235553331<,:;-===%=1-&<>:,<:<1<<11,11,,<,,<1,,,>:>:>:=*%$&$-,179<;;",
"=-;=-::<-,42:$+@+o&>>,24214423325332323356889554>:>:-;:,2223234534321<<:;-*=;;=:2-*::>>;><>11,<,<,,><>,<,>>>::>:-;===%$$=:,4073:",
"====**=;;:,131:=$#-:,2,143352<21,2312235344642221:2>#*-,,1<<1222242<<,,:;-&=-;=::<<><<11:<,>,<<,>,,<,<<,,<:-;>:;==-=*%$$*=>35w0<",
":=***$&*;=-::1432<-=<1<131221243,222<<<3544432<<<::>&=;>><<,11,12<<>>,>:::;;-;=:;<2;3,-1,<<>:,<,>;>,<1,,<>:;:-;;*==*%%%%%=>237q8",
"7,:-&*&&*&==-->>>1<-:,<222121232<3121,3334221,<<,>::#&--:,<,>>1<,>>,,,::;-::;;==:=,<<3<21>>,:;>>;->,<,,><:::;:;====*&&%$$=,13569",
"883;::=#%%&**-;-*;11-,<,<1,,<<111554134315122<<><:--@@&=:,,::>,<,::,:<:-:;-;;;;-:;-:1<,<,,;,,;:<::>,>::>:>-;:=-;-=&&&&$$$->,1455",
"3707,;=**%%%&&*&&-13&-;>;,:-,,>1132,<442<1232,12,;-*O@%%&>>>>,:,>:>>;>;-;:--;:-;:>-;2:;>>>:>>-:::>>::;>:,;;;=&*-=-=&&&&%$=><2233",
"137084:-&@%&&*--;,23-$=---=:,,><<,,>1342>,111111<:-%O#&*=*=-:;;:;:>:;;--:;:;:::--;:;:>>>>>;:;-;;>:>-:::>>;;:=*=&==&=**%#$-,<<1<2",
"544489852<,>:>,,>>362>&$*=-;,:<,,<<<23221<<,>12,::=++#$-=%%=--==--;---;-=-;;==-;-:::;,>::>;-;->:::-=>:;;>:;;;==;=*&%&=&#$*;>,<<1",
"43124278980741>,<474111-%*=-;,,1:11,4412,1331,<>-=#X+#$&%%==*=**==-==--:;::;;-===;--->,,;---=;:->-%*:;-;>>:---===&-==%$%%=;:,11<",
"2<<<125525679998786>=:<4;#*==>:;,<134441,2432>,>=%o+@#%$$&&**%&*&**%==--:--;;=%#@&=;:;>;=&**->->=-:;,;;>:>--==*&=-;-;*%$%:::><<1",
"11241113<1234568552;::,21*#%=::-;>,4444<<1,<,,:-&OX+@@#$#$&&%%%&**&&&&=*-=**-&@*;>111123<:&%=>>;-;:-:-*>>=*-=**&=>-==&*%@**=><21",
"22234<:13132133331<:-:,<11-@-;-*>222122<<,>,>;;=@oo++O@###*&$%%%%&%&&$&**=;,<>><>><>><,432<&$*;;==*;:=,12<:;=*&**=%*&%&%@%&->,12",
"2222<,1<<1<<<,11<>>==>>,<12:%%%*:122,,>,>:::-*&$oO#$@+%%%=%$%%$#$%$%$;,<>,<2<<<:;;:>>>;<2241=#-*;>::>:<1144<:<1,<,,:-=&@+#$*;>13",
"2111,2<1>,1>,><2,>:==;>,233<;@#*:,,,,>;;*&%%&*&**=;;;***--%#$%$##%%%:2<,;:::;;>:-==:;=;11362>*#%1>->>;;,1<2,,23<<1<<<,,;#+%&;<12",
"1124332<<<,,221,,>,;;::,242<<:&$-;;---===-;>,<1,<11<<1=;>-#$&$%##%$-3<>>:::,;-;-=-;=&*:,12652,=-<1:-=-=:1<,11>,>::--;::<<=$$*;,1",
"11222<11,>>,<<,>;-*-=--:,2231<>%#*&-:>,,,<,>,::::><>>22-;=$@%$$##$&,1<:::;;:::=&**=-=*=;<68866>*23,;--;=>,<<,>>:>-;-;;--:<,&=:;,",
">11<132,,,>>,>>>;=-&&=-*;<3432<;%=;>::>>;;;:;-:>:,>-;<3>=-&@%$&$%%;2<<<;--;:-=**%&&&&$*;-376265133,;;-=->>,>-:;;:;-=*=*==;<3,*;:",
":,<,<2<,,:;>:-=-=*&%&*&&;255431,=&---;=;-=-:---=-:;-;>42*=&&$#%$%&12>,,-==-;==%%%**%&&&=->576471,24:=**:;;:;-;;-==*%&*&**=,1,>*=",
";:,,<,>,:>:::;--%%$%*&*=-2743441;&&&*=*-=***===*-;=;:>55*$%&#@#$$>52,>>:-=*=**%&$&&%&&&%*=<58862,38>&%%==*=*=;-*$&&&*&&$*1<;><-&",
"=;:>:,>;;:>=;;-=%@&&%*&=;3534322>-%$$%&&*&&%%*-==**;,<57;@&$O#$$;442<:-;;*=***&&&#$&&%&&*&>679431281*&&&%$&&*&**$$*&#$%;<2;-*>2%",
"$=;;:;;:;>:;-*&$%$$&%*%*;454321<,:*O@#%$$&&$$$%%$&-;>>46<*$O@@#=353<;:;;:==&%%%%%$$#%&&&*=37366<,275=*&*%&%%*$$%&$&*;::>><,-=-2:",
"&&;;>-:>;:-;=&%%%&$#%&*&:784421<>>=@O@@#$%$%$$$$&==-:,672>$%%#+;5<<<;-=---*%$#$%$%%$%*&*>366337>-,38<***%%$#&&#&;,11,1>-:,>:=%,2",
"=%=;;;-:;-=&&$$&&&%$&&**50324231>:;&O+@#$$%%$$%%%%&=:27521-%$$%>4<<,:===***%#@&&$$%%-*,56751,221-:157:=%$##@$*>123<<,<<>:;-=*$:4",
">&*----**=*%#%%$%%$#%=*>75133121,;;&$O+@#%$%$#%&$%$=;2651<<$+&*<4,>>>===&%$&%@%%%%&&-365683<1<,3;-<377-%###@#,2<<,,>>,,<;;:=-&-4",
"3*%*-=*&*&#$$%%$%$$$&->663221111,:==&@+@@$#@#%%$&*%&:36411,>-&%,52,>:=*=*$#$##$$%**:55446<>33<>>:=:1481&*%$$=31,<>;:::,,>>>>;*=2",
"7-&&&&$$$#@##$$%%$%&=-56352<,,<1>-;-*$++@+O@##$%%%&&>775<<,<,-$>5541---*&$@@+#$%&&,45423,,<1<,1,-;;,<47;=*%%<<>:>>>>,<<<<>:;--*1",
"7>&%$####%##$#$$%&==-563521,>>><:::-&&#Oo$&&%@##$%%*1762<,21:,-=24961::-&$#$%%$%*152244<;,211<<,;->,>2785<==<>-:;,::>,,>,>:;--19",
"6,%$###$$$#$$@$%&**>5634421<<:>,;:1,:=$oO====$+#%%%-433,11,,:::-1337881-*%*====*14344<11:1,<2<<,-*:>:227775442134442145642<115w0",
"21*$$#$#@$#$#$$&*=,5532<,1<<,->,==;>11;%##%&&&$%&&*,6321<<,:::-*,<>280662>:;:><54<14413>=><12<,:-$==:,121499965887799898599088q9",
"31=@#@##@##&$%&&;254231><1<>,>>;==-->>:>>=$@#&&%&--56312<->1>;=%;;12156778435784<<231<11->,<2<>,;#%=:><3236753334221444544477663",
",,-@@@++#@#%&&=,4322<11,><1,,<:;-*=;:=-;,<:;;:-&&=373123:-=:;**$=;<>,1423541463<2<<11,<1;<,,,<>:-$*;-::>13364443221131332765553>",
">>-#+#$$%$%&*>3542211,:>>,,<>;<,:=&=-==-;;;>><<,:1641231>;::-=%@==;,>124,23322213<,<112<>>>>,<,,-&*>,<<>:1<22442221222,12665243<",
"-=-%$**&=;>223424111<>><,,<<,-;>:-**&==*==-=-::,895224221:1>:*%$&;>>,><<1,>22111<1<,331<1,-,<>,,:&&;>:11,11,>111321,12,,2<21111:",
"::-&%&-:144321111<211,1,2<<>32-=:-**=-*===-;;,4676312312,;<>-&#%:>;:-:>:<,>,><,21<<142,,>22,,>>;;*%::::1>><;,<,12<11<11>:>><,>,;",
"<1>,;;37444,2121<1312<,><1,-144131:--;:::>:145844332,<11<<>>;=%$:>;>>;::,,<,,,<143332311223,;,<;-%$:;;><>>,>::,1<<1><2<<>,,<1,:;",
"355254313213443<,,1,<<,<>>-;>,346766554345667531353,,<<<311,-=#+%*;,=;>:;>>,>1<112452,<23<<1>:;;*&%-;>21,;,1:-,2<,,>,,,,,3332344",
"4412112,<112<1<,<1<<>:,>:;-;>,233764422332365444532<1<<321,;==#o%*-::::-,,:>><<12113<>>2,>>1;;>;*$$=-:,>:>,1<;>1>,<,:,,,14533335",
"51<<,142><1,,>,211<1>->,>----;:2444111121,145335112143<,::-*=*@o#*-:=->>,,,:,><231>2<21<<<,:;:>:-%+%*-:;>,:1,:1:,11,,:;1,<142354",
"5,21<>221<<:;;,<11,<<;<>--=&*>2<1,1,,<<,,<411232>,<21<>==:<=**#oO&-;;=&>>:;;,<>122<<41<11<:*;>::-*@#%-::>;><,1,:>,<>>;=:><<,2644",
"51121<,<2,,,>-<21<2,><;;1<=%=;<1;,2,:,,1111,<<<1,,,33>:*&:2:*=%OO%*;<:=,,,-->,;111,>1<>11<-*----;*$$&-=;:;-;1,;>>>,,,,:<:3,25432",
"44>1<<<<1:<1,<11<<<1<,:;23=&&*::>,<<::<11<<,<1<23321,;*$&-,4>=&+O#%=,-:>,1-*:>,,,:,>>,,,,><-&>>=-*@@%=---==::::>>;>;:--;:2<14133",
"22,>1<,<<,,,>,,,1,,><::,23*=*$*-;:>:,,>:,><,<22,>2<>:=*->>,35-*$o+&*;--:,>=-;1,::>>,<,:>-;,>:,>=&%$##&-----;>:;,:;;;**-=,3433344",
"1<4,,1>>,<>:;>1>,,,<:*;<33*#%%%:>:,;:><1,,,<,131><<:;=;;>;,13<=%oo#%-==*--;::,<>><>:>>::;--=-;:;%%#@@#&&***-;;;--&==&*;;31251332",
"1>,<2,><>>;-:<11,:1<--<<33;%#%*->:>;->,<:><2<,11,>:;-*-=->:,24;&+Xo%=*-;&-=-;>>,,><-;>:::;=--*--&*---;*#$$&*=***-=*%$*=:3121134<",
"22>,<>,,,;;>2<,21>,,>-<114<--&%-:>:>>,>:::<21<<<<,,:-$=&-:,<23:%#o $&%-;=*&&=;;>,:::=;>>>:-**%=,1<,:;><:@+$$%**&**%%$&%;,1<2,121",
"<111><<<<:1,1<,11,>:->,:271*==&=,>,>>:,><22,,1<,<,:;=%&*-;>1,,<&#o +#&=-=%%&&=*=:=;:--;;;-**;::3:--*--:<>*&%$%%$#-&##$>:=;<<,<<1",
"<311:<<<;-<,,1:<<>:,;:12474=*-*-;>,>;>,>><>><21<,:-&&;%*;;,<:<3=#OXo#&&&%&&*-;&%$%==&*==;,1<<2<=&*:=%*;><<,,>*$+#-=@O#->=&::,,<,",
"1,:1>:<1>><<1,>,>:,:;,>3445;=-;>-,::=>::::>>,,1<::-%=-&=:>,,112;$#++@$=:>,<<,<<>=%$%$%-<154<,<2<$;,2:$=;--:;>,>=*=&Oo#&;=%*:,<>>",
">-,<><,<,12,:><;11>-*;>25583;>>,-;,:--;>:,1>>:>,:;**&=*;:<24543-$$=,,<<12,,:-;;:>>>&@;12<121,,,-:2>,1=#=-;;;-;>,,<;&@+%=-=%=:>;<",
"<;>>;,<1,>>::>,>><-=;<><3678,;::->;-;><;;11>>>,:**&&=&-:1655755,,12211><>;>-*-&-:>::;<>11<<:,>:><:::;-#&==;;*;:-;->:,=&%%-$&==12",
"2:=;>>1,1,:2<,<3,;=->32133375;>>--;;>:<,::>:>>;>;-**=*;2767655225<::::;:;;:;*&*%*==-2<1,>,::>:>>::;--:-#=---=;;===;->:<%$&+@&:24",
"6,=-<>,<,,,1<>12>-==>113343246<<:*;:::>,,;;::---;--%*:48877522<2<::;--=;---=%%=*&&%:344<:-;;;;;::;;*--,=%*=--*-;-:;-::,,#OoO&,25",
"61;&::>,>:42>>,,>-%*1<,,<2<,507,>-;;;:=:::--====&&=-:696775632,12<:==-===**=%#%&&$$,345<4<=-;-:-===*=;;&$&=-;=*;:>-:,>,1=X@&=>15",
"33<*--:>,,<2,>>;-=-;3,;-;<1288w94<;=;-=;:;-=-==*%=;17652156431,46,-=***&&&&**#@@#+*>361>16>-;--=*&*=--;##%*---&-;:=,,212>#&*=:<2",
"674>*-;::>>>>:-;;=:<,:,1:>523657961,:;>;>,:-;:;->3566311112321<581==*=%%&%%%&&$%##;,17<>154--==-**-****&%$%=-==-;=-:<231,*&&-;:<",
"4673*=----:--:----:1>;<2<,1314532476445445645645645652>,<1231>,692-=&%#%%$$#&%##@=>1264:>76>=*=*****%#&=;&#%---*&;><3332,*%*->=>",
"<457>**==*-==-::;:>1,::<11<1,12<4454267214355343<3883::,11<<>><503:=&$o$%$#$&+O@#,,,<484>66,*=&*&&&%%$%&=%%$=;--=:,25442,%#&:;::",
",3352-=&*==*&&:*>1,<<1;,11,<>1>,245214331232,3231<58522<1>>>;:2503-==$+&%$##$++o$-;,,<361761**&**%$%&&$%&#%%**;--;<45421:$&*=-,>",
"<2137,=*&*%%&=*:<,::11><2,>:,<><<23232343222<<2<<,14<21<1,>;;,24q5;-&$&$#$#@@+##%=-,,<38q52,&&&&%#$$$%@%$O$$%&---;,4431<$%-%*:;,",
"<,1157>=*%&&;;&:<<,,,11>,><<:,1,<2354<3<1,<1:,3<:,><,=13:>>>-;229q>;&%$#$###+O$%%-;><317q4,=&&%&%$$##$@$+@#%%&*-;><5521*%&&*-;;>",
">><<246>=&==-=&=,;,<-:>::,<2,<<<,21<33,>1,:>>>1,,1<1,,4<:>;:;=><4q6:=%$**%&&$#$#&;::<31694,*%&%%$%#@#$##+##$%&&=;,4642>$***=;=;:",
":::,<345-**=;==*:::>>;;::>>><<,1<1:122,:<<>:,:;:,<2213,:;:::&-::28q2=**==&&&&&#%;>>:,<7546<:&%%$$%#@$$#$#O@&%&%%;<6721-$-;=-;;--",
":>,,12585>=-:***;>-=;>,>:::,1<32<<<<<,,1>:,,:::::>,2>,>;-:>:%=>>280q2;---*===&%-;;::>563<76,*&%$$#$@#$$$%@#$%$&--1984<=%--=;:;=;",
"->>><,24453-=&-:----:<<>;>>,<1<<2><:,::,;>;;>>>:,<<<1>1,<;-=$*:,168882::::;;-=-:;--<882><487,=*%$$$##$%$$$$$$&%==28352*&-==;:---",
";:;:,,,<<473:&->*=::>>:>,,:<<>,<22<>>:,>;<<->,>>,<<>,:>,:;=*$*:<<3557q8421:;;=>1214784,:<<2703=%%$$$&=&$$$%%&&*%-18111=*:>;-;;;;",
";:;::>,1<1164,::-;>>>::>>,>,<:12<<1<>,,::3<;->;::,,>,-;>;;=$@*=:<1,16000888732790q653<-;11<1583*=>::>;*%#$$$*&&%>701:,=&::;:>:>:",
":::,:;,>>>:5895;:-;:>>:>:,<>:>1:,:>2>,,:,,>>;=,>>,>:;>>=--=$@**-,<112689659wq0005751<:-,,<<<,2954752<>:-;---=-:27853=*%*;:::::,,",
"::<,-:>->:377896>;-:::;::>,,:>>32,>,<<::::>>;>,11::,;;;--;=#@***><153368757766547221,;;:,,,,<4687467533<23<<56877533:$%*;:>::><>",
"<>,-;::,:,3457678<;;;;;::::1>-192,<>11:::>:>><,>:::;;-;-=*%@+&**-,25532646545434<351;-=;>,,<2<4455534576653608623542,=#%;:->>>>>",
",<,:<,:<>,334653685,=;::::::,4751<>><,><:;;,,>,-;;;;;::;=%%+O&==-:2233332344251<1241=:-:>,,<3114344312424312753<262,>-@%=--:>:,1",
"<<>131,;=:23352223774<---;:<8053,>>-,<<<<>;:,;;:;:,,>>-==&$+@&&=-;,<,,112332132<211>*-:>,,,<1,22242432423115522221<,>,%#===;;,,,",
"11,,,,11>11113112125897127799783>;-;,<1,<<::;;;:;>>:>:-;*$#O#&&==;;,>,1111112122,<<-&*::<<1<<<42,,<131231:45111,,,>:-,<%&%%&=:>:",
",1<,:>4431:,<1213322250qqe878323:%-,:<<,>-,1>::>:>:;:;;;%@OX@%&&*==;:><,<11>121,,1<:%%-:<,111422<>>21222:;231<>:<:;-&=11$+$;;-::",
":,,,>>244>>,,1<,2243<359764343,<:%-,;>>,:,,,4>->->;--=--%+o.+&*&**==::>,>1<:>,>,1<>>&#*,,11>11,<<,:11311-<1>3<<1>,:*%*-1>$;,>-->",
">,><,,3322<,>:>111333424622,<3<:-*&:>:::-,:<21:::=-=*=*&&#O@+$**&&%=:,:>::,>>;-,<,>;#*;;>,><<=:>>>,112<,-<,<1<2>:>;%#*-,3,>;;*-;",
":>,,,>2242,1<<,12<11321<121,:>:-&-=*;;:--:,,::<,2>*==*&**&#+O$%&&#*-;::;:::>:>;:;:;%-,-*->,11<1::>21111:12,1<:<,:--%@&=,42<:=-&-",
";>,><,14412<11>,,,<<<<,>><<,&;,;&%==-==&:<>:>:>,::-&%&&&$@$oo#%%$$=-==;;;-->::-->;$&<-$&=>>><2,,2;<<<,<;23<>>>,,;--=%&=:32>2;*$=",
"=:>>,>15634<<,<,>,<<<,>,>,>:*;22,;**;-$=<:;=;-*;-:;-,<,:,=$$@O#%##&=====---><,;-:=#-1;*%-:::,1<34<<1>,>-<1<,->>>--=&%%*=25,<2*$%",
"=-;:<,14442>,><,>,,>:>:>>;;&*;;1334:$*%;-*=&-<13,1232<1<<3:$&#@#$%$%$&*==-;:>,<>;-&->>=$*;,>,><235,1>>;:<;,<,;-:;-*%@%&-16,:52%%",
"&=-::><>2321<:-:,>>::::::=*$%-->1233:&==-*=2431,>2,<>;>>;,4;%%@+*---$%=*-:;:::<,--=1<>-*=-;::;;361--=--,>:<>*:,;;=$##&*:251;<4>$",
"$=---:<>13144,;>,:;;;::;-*&$%=->,:<16<%*;:562>>;-=>;*;:--;<6<&+%=->:-%=->>;>>::;;--32>-&&==;=-;:>;:;-:::;:,,;=:>***@#&&:453:;24-",
"&*=;;;><,<342>,>:>:--=;:=*%#&&-;::><34>$-672<1:>-=:;*--;-;-<54*=;*---%-;>,;:::=-=*-43,-%$&--%*,<;=,;,2<::;->;%*:**=#+$&;564,;,62",
"<%=;;>><,:<4<,>>->:-;-=-*%#$%&=*=:,,132@=771>>,:-*%%&*-&=>;=<55-==$%&&-;:>:::;::=$;552>*%%*;*=:,;-;;31,><>-*&==*=*$%#$*;5431->48",
"5=**=->>>:,>1<,::=;:--**&&$%&&**-<31,2<%=502:;:-&&&%&&*&-;=-=174%*$%$*=:;;:==-=-*$,5351=$$=-===-=-*;232>:;;**;-=&$$%$#*;4532:=15",
"56:--*;:;:>:->,>>::;===**%$$%**&>,<3><,:,3q7::-%&*&%@$***===*:382&%%=&*>:-&&$*&%$%<2543,%$&=*==*:--,<,,:-=&-:*-*$%%$$$%;4234,=:1",
"485:------;,;=-:;:;---*&&$+$*&&*><>>;,361200<;&$%%&&+@&&$==*-;,571==&&==:-$$#@@@#&>16665;%&&=---:*,2:-:;-&*;=&*%%&%%%&%>5464<;;,",
"2287<;-===--*=-;*===**=&&$@$&&*&->--24271<8e1-&&*%*&@#$%***=--;>482-&**&=*#$#oO$$=:<59885>&%=*=---><,:--==*=*&*%%%&&%*>5333,<:=>",
"<32475>-;;--==--==-;==&*%#@$&==&*=>347543,7q1:=&&%$%$$#*%*&*=;;-,37<:=##$&=*+o#*%=>1344876<&&=*=-:;;;;-***&&*&&=*%=*=1751131,:*>"
};
