/* XPM */
static char *xpm_[] = {
/* columns rows colors chars-per-pixel */
"32 32 166 2 ",
"   c #196367",
".  c #196468",
"X  c #196568",
"o  c #196569",
"O  c #196668",
"+  c #196768",
"@  c #196669",
"#  c #19666A",
"$  c #19676B",
"%  c #196868",
"&  c #196968",
"*  c #196869",
"=  c #196969",
"-  c #196A69",
";  c #19686B",
":  c #19696B",
">  c #196B6A",
",  c #196C69",
"<  c #196E69",
"1  c #186F69",
"2  c #196F69",
"3  c #196C6A",
"4  c #196D6A",
"5  c #19686D",
"6  c #19696D",
"7  c #19696E",
"8  c #196A6E",
"9  c #196A6F",
"0  c #186C6C",
"q  c #17776E",
"w  c #18706A",
"e  c #18706B",
"r  c #18716C",
"t  c #18716D",
"y  c #18716F",
"u  c #18726E",
"i  c #18726F",
"p  c #18736F",
"a  c #18786F",
"s  c #196B70",
"d  c #196C71",
"f  c #196F70",
"g  c #196D72",
"h  c #186E73",
"j  c #196E73",
"k  c #196E74",
"l  c #186F75",
"z  c #196F75",
"x  c #177370",
"c  c #187071",
"v  c #197270",
"b  c #187370",
"n  c #197271",
"m  c #187471",
"M  c #187472",
"N  c #187473",
"B  c #187074",
"V  c #187075",
"C  c #187076",
"Z  c #197176",
"A  c #187177",
"S  c #187574",
"D  c #187675",
"F  c #187676",
"G  c #187677",
"H  c #187777",
"J  c #167F73",
"K  c #167E75",
"L  c #187F72",
"P  c #187278",
"I  c #187379",
"U  c #18737A",
"Y  c #187578",
"T  c #187579",
"R  c #187778",
"E  c #18747A",
"W  c #18747B",
"Q  c #18757B",
"!  c #18777A",
"~  c #18767C",
"^  c #18767D",
"/  c #18777E",
"(  c #17787A",
")  c #17787B",
"_  c #17797B",
"`  c #17797C",
"'  c #177A7E",
"]  c #177B7E",
"[  c #177B7F",
"{  c #177D7C",
"}  c #18787A",
"|  c #187A7D",
" . c #18797E",
".. c #18787F",
"X. c #187B7F",
"o. c #168376",
"O. c #158879",
"+. c #158A7A",
"@. c #17997B",
"#. c #177980",
"$. c #177B80",
"%. c #177A81",
"&. c #177A82",
"*. c #177B82",
"=. c #177B83",
"-. c #177C81",
";. c #177C82",
":. c #177D82",
">. c #177C83",
",. c #177D83",
"<. c #177C84",
"1. c #177D84",
"2. c #177D85",
"3. c #177E85",
"4. c #167E86",
"5. c #177E86",
"6. c #167F86",
"7. c #187880",
"8. c #187980",
"9. c #187B80",
"0. c #168283",
"q. c #168086",
"w. c #168186",
"e. c #168386",
"r. c #168586",
"t. c #168686",
"y. c #148F81",
"u. c #158886",
"i. c #158986",
"p. c #158A86",
"a. c #148B86",
"s. c #148D86",
"d. c #148E86",
"f. c #148F86",
"g. c #139286",
"h. c #139386",
"j. c #149086",
"k. c #149186",
"l. c #149286",
"z. c #139486",
"x. c #119B85",
"c. c #129986",
"v. c #129A86",
"b. c #129B86",
"n. c #129D85",
"m. c #149D86",
"M. c #159D86",
"N. c #169C86",
"B. c #16A780",
"V. c #12A185",
"C. c #15A386",
"Z. c #13A485",
"A. c #13A585",
"S. c #13A685",
"D. c #15A586",
"F. c #15AD82",
"G. c #15AF83",
"H. c #13AA85",
"J. c #15AB85",
"K. c #15A886",
"L. c #14AE85",
"P. c #14AF85",
"I. c #14B185",
"U. c #15B186",
"Y. c #15B286",
"T. c #14B485",
/* pixels */
"4.4.4.4.4.4.R 1 1 1   .   1 1 4.4.4.4.4.4.. / 4.4.4.4.4.R -   1 ",
"4.4.4.4.4.4.w +.x.x.0.7.I . - 4.4.4.4.4.5.R   7.4.4.4.4.4.1   1 ",
"| 4.4.4.4.1 1 x.x.Z.T.N.4.4.&.I 4.4.1 1 1 1 -   7.4.4.4.4.| . w ",
"1 t ( t 1 1 1 q x.b.T.C.4.4.4./ 4.R .   1 t G   . 4.4.0.0.4.| w ",
"1 1 1 1 ,.4.,.1 t 4.4.4.4.4.4.4.4.I . t 4.4.4.4.  7.4.x.b.x.4.G ",
"1 1 1 1 4.4.4.4.1 - W 4.4.4.4.4.5.  . 4.4.4.4.| . 4.4.x.b.b.r.>.",
". 1 1 w 4.4.4.4.4.-   - 1 1 -     - x.f.4.4..   4.4.4.m.T.Z.i.G ",
"  1 1 G 4.4.4.4.4.4.        . .   K x.4.4.4.. m 4.4.4.r.T.Z.4.1 ",
"  - T.T.4.4.4.4.4.4.Z       4.4.4.G 4.4.R 1 1 t 4.4.4.4.4.4.5.1 ",
"  1 P.P.4.4.4.4.4.r.i.      4.4.4.v 4.4.| 1 1 1 R 4.4.4.4.4.w 1 ",
"    x.x.4.4.4.4.T.T.x.x.      9 4.4.4.4.4.4.4.t . w 1 m 4.4.-   ",
"    v j.4.4.4.4.r.j.x.x.      - 4.4.4.4.4.4.4.5.t   1 1 v       ",
"5.I   z 4.4.4.4.4.4.4.4.      w 4.4.4.4.4.4.D.0.2.I       z 4.4.",
"4.4.5.  7.4.4.4.4.4.4.5 / / 1 1 4.4.4.4.4.m.T.D.4.R     I 4.4.4.",
"4.4.4.7.. 5.4.4.7.      4.4.1 w G 4.4.4.4.f.H.x.R -     4.4.4.4.",
"4.I =./ .   5.g       R 4.4.1 7.4.4.4.4.4.4.x.x.1 -   9 4.4.4.4.",
"4.s                 Z 4.4.4.1 4.4.4.4.4.4.4.4.) 1     g 4.4.4.4.",
"4.I             . 4.4.4.4.7.1 | 4.4.4.4.4.4.4.q 1     . 4.4.4.4.",
"4.7.    s 4.4.4.4.4.4.4.4.w 1 x.n.j.4.4.4.4.} 2 1   s G     4.4.",
"4.    Z 4.4.4.4.4.4.5.t 1 1 1 x.V.V.{ 4.4.4.2 w     5.R w   Z 4.",
"1     4.4.4.4.4.5.- 1 1 1 1 1 o.T.T.+.>.4.>.w -   1 5.4.4.G w 1 ",
"    / 4.4.4.4.Z .   - 1 1 1 5 v @.T.1 1 ] p .   1 w v 4.4.m 1 1 ",
". 7.4.4.4.5.. 1 1 1 -   R 4.7.- q t w 1 1 1 1 w G 7.1 1 1 1 @.G.",
"4.4.4.f.x.x.  1 1 1 1 5.0.7.  / 0.4.4.1 1 1 - 7.4.,.1 .   - T.T.",
"4.4.4.j.x.n.  1 1 1 4.4.5.  s 4.4.4.4.( 1   G 4.4.} -   =.4.0.4.",
"4.4.| 1 J -   1 1 5.4.4.    4.4.4.4.4.>.-   4.4.4.>.    4.4.4.4.",
"4.4.w w t -     R 4.4.4.    4.4.4.4.G 4.  z 4.4.4.4.    =.4.4.4.",
"4.4.w 4.4.t     4.4.4.v   s 4.4.4.4.4.x   &.4.4.4.f.H.T.  4.4.4.",
"4.4.7.4.4.9   9 4.4.4.%   z 4.4.4.4.4.4.  4.4.4.s.x.T.T.  . 4.4.",
"4.4.0.4.5.    I 4.4.5.-   x a.4.4.4.4.|   &.4.4.h.x.L.G.v   4.4.",
"4.4.4.4.  . T.T.4.4.1     x.x.i.4.4.4.z   z 4.4.0.x.b.n.m   4.4.",
"4.4.4.4.Z L T.F.4.0 1     O.x.r.4.4.4.4.. . 4.4.4.4.z.z.w   z 4."
};
