/* XPM */
static char *_83c391b6e7a4cd68c2f85b7205e88bfCYjPXOH3Di3lRqr0[] = {
/* columns rows colors chars-per-pixel */
"32 32 12 1 ",
"  c None",
". c #231C2B",
"X c #382235",
"o c #473952",
"O c #1E587A",
"+ c #5F4A70",
"@ c #784C7C",
"# c #8B578A",
"$ c #A36097",
"% c #C979A7",
"& c #2E8EA7",
"* c #43B7B0",
/* pixels */
"             XX                 ",
"            X$$XX               ",
"           X###$$XX             ",
"           X@####$$XX           ",
"          X@@######$$XX         ",
"          X@@#$$#####$$XX       ",
"         X@@##$@@@#####$$XX     ",
"         X@@###@@########$$XX   ",
"        X@@@@##++#########$$+.  ",
"        X@##@@+OO+####$$##$$+.  ",
"       X@@###@+&&+##++$##$$++.  ",
"       X@@###@+&&O++OO%@#$$++.  ",
"      X#@@####+&&&OO&&%@$$++.   ",
"      X##@####+**&&&%%@#$$++.   ",
"     X######++&**&%%###$$++.    ",
"     X####++&&***%#####$$++.    ",
"    X####+&&****&%####$$++.     ",
"    X####+**%%**&%####$$++.     ",
"   X#@@@##%%##%*&%###$$++.      ",
"   X@@@#######+*&%#@@$$++.      ",
"  .$@@@#@#####+*&%@@$$++.       ",
"  .$$$@@@######%%@@@$$++.       ",
"  .o$$$$@###@@@@@#@$$o+.        ",
"  .ooo$$$$###@@@##@$$oo.        ",
"   .oooo$$$$######$$oo.         ",
"    ..oooo$$$$####$$oo.         ",
"      ..oooo$$$$%%%oo.          ",
"        ..oooo$$%%%oo.          ",
"          ..oooo@%%o.           ",
"            ..ooo@@o.           ",
"              ..o@@.            ",
"                ...             "
};
