/* XPM */
static char *result[] = {
/* columns rows colors chars-per-pixel */
"64 64 124 2 ",
"   c #0A0F0E",
".  c #0C120F",
"X  c #0B1110",
"o  c #121C1A",
"O  c #16221F",
"+  c #182421",
"@  c #1F2D2A",
"#  c #202E2B",
"$  c #22322E",
"%  c #253632",
"&  c #263935",
"*  c #283B37",
"=  c #2A3E39",
"-  c #2D423D",
";  c #2F4540",
":  c #314441",
">  c #324A45",
",  c #364F4A",
"<  c #384D4B",
"1  c #37514B",
"2  c #39554F",
"3  c #3F4C50",
"4  c #3A5650",
"5  c #3D5B54",
"6  c #3F5F58",
"7  c #445057",
"8  c #405F57",
"9  c #47535B",
"0  c #48555C",
"q  c #405F59",
"w  c #42625A",
"e  c #4A5760",
"r  c #4C5B62",
"t  c #555F6C",
"y  c #476360",
"u  c #496562",
"i  c #466961",
"p  c #496D65",
"a  c #4C6E68",
"s  c #56616D",
"d  c #58616E",
"f  c #556B6F",
"g  c #4B7067",
"h  c #4D736B",
"j  c #4F786F",
"k  c #50766D",
"l  c #51796F",
"z  c #5B6573",
"x  c #5C6B76",
"c  c #5F6979",
"v  c #577675",
"b  c #5B7277",
"n  c #537C73",
"m  c #597B78",
"M  c #626D7C",
"N  c #63747E",
"B  c #61797E",
"V  c #558076",
"C  c #578279",
"Z  c #59857B",
"A  c #5C897F",
"S  c #667382",
"D  c #697485",
"F  c #667B84",
"G  c #6B7887",
"H  c #6C7788",
"J  c #6E7A8B",
"K  c #717D8E",
"L  c #727E91",
"P  c #5F8582",
"I  c #5E8C81",
"U  c #5F9084",
"Y  c #628283",
"T  c #608E84",
"R  c #69838A",
"E  c #658C8B",
"W  c #6B898E",
"Q  c #629186",
"!  c #649489",
"~  c #69958E",
"^  c #67988D",
"/  c #689B8F",
"(  c #6E8690",
")  c #758395",
"_  c #788497",
"`  c #768B97",
"'  c #7A869A",
"]  c #778B99",
"[  c #7C8A9D",
"{  c #6B9791",
"}  c #699C90",
"|  c #749B9A",
" . c #79989F",
".. c #7E8BA0",
"X. c #7F91A2",
"o. c #7EA2A6",
"O. c #818DA2",
"+. c #8391A5",
"@. c #8694A9",
"#. c #8996AC",
"$. c #819BA8",
"%. c #8B98AF",
"&. c #8D9BB3",
"*. c #919FB7",
"=. c #8BA5B2",
"-. c #8CAAB7",
";. c #8FABB9",
":. c #90A1B7",
">. c #94A3BB",
",. c #98A6BF",
"<. c #97AABF",
"1. c #98A7C1",
"2. c #96ABC0",
"3. c #9CABC5",
"4. c #9EAEC8",
"5. c #97B0C2",
"6. c #99B2C4",
"7. c #9DB2C8",
"8. c #A2B3CD",
"9. c #A6B6D2",
"0. c #A6B9D2",
"q. c #A9BAD6",
"w. c #AEBFDC",
"e. c None",
/* pixels */
"e.e.e.e.e.e.e.e.e.e.e.e.e.e.e.e.e.e.e.e.e.e.e.e.e.e.e.e.e.e.e.e.e.e.e.e.e.e.e.e.e.e.e.e.e.e.e.e.e.e.e.e.e.e.e.e.e.e.e.e.e.e.e.e.",
"e.e.e.e.e.e.e.e.e.e.e.e.e.e.e.e.e.e.e.e.e.e.e.e.e.e.e.e.e.e.e.e.e.e.e.e.e.e.e.e.e.e.e.e.e.e.e.e.e.e.e.e.e.e.e.e.e.e.e.e.e.e.e.e.",
"e.e.e.e.e.e.e.e.e.e.e.e.e.e.e.e.e.e.e.e.e.e.e.e.e.e.e.e.e.e.e.e.e.e.e.e.e.e.e.e.e.e.e.e.e.e.e.e.e.e.e.e.e.e.e.e.e.e.e.e.e.e.e.e.",
"e.e.e.e.e.e.e.e.e.e.e.e.e.e.e.e.e.e.e.e.e.e.e.e.e.e.e.e.e.e.e.e.e.e.e.e.e.e.e.e.e.e.e.w.w.w.e.e.e.e.e.e.e.e.e.e.e.e.e.e.e.e.e.e.",
"e.e.e.e.e.e.e.e.e.e.e.e.e.e.e.e.e.e.e.e.e.e.e.e.e.e.e.e.e.e.e.e.e.e.e.e.e.e.e.e.e.e.w.w.w.9.9.&.e.e.e.e.e.e.e.e.e.e.e.e.e.e.e.e.",
"e.e.e.e.e.e.e.e.e.e.e.e.e.e.e.e.e.e.e.e.e.e.e.e.e.e.e.e.e.e.e.e.e.e.e.e.e.e.e.e.e.e.w.w.q.8.:.@.@.e.e.e.e.e.e.e.e.e.e.e.e.e.e.e.",
"e.e.e.e.e.e.e.e.e.e.e.e.e.e.e.e.e.e.e.e.e.e.e.e.e.e.e.e.e.e.e.e.e.e.e.e.e.e.e.e.e.w.w.w.q.3.&.+.@.t e.e.e.e.e.e.e.e.e.e.e.e.e.e.",
"e.e.e.e.e.e.e.e.e.e.e.e.e.e.e.e.e.e.e.e.e.e.e.e.e.e.e.e.e.e.e.e.e.e.e.e.e.e.e.e.e.w.w.q.9.>.@.@.L s D e.e.e.e.e.e.e.e.e.e.e.e.e.",
"e.e.e.e.e.e.e.e.e.e.e.e.e.e.e.e.e.e.e.e.e.e.e.e.e.e.e.e.e.e.e.e.e.e.e.e.e.e.e.e.e.w.w.q.2.&.@...z c [ >.e.e.e.e.e.e.e.e.e.e.e.e.",
"e.e.e.e.e.e.e.e.e.e.e.e.e.e.e.e.e.e.e.e.e.e.e.e.e.e.e.e.e.e.e.e.e.e.e.e.e.e.e.e.e.w.w.9.>.#...L z L @.&.4.e.e.e.e.e.e.e.e.e.e.e.",
"e.e.e.e.e.e.e.e.e.e.e.e.e.e.e.e.e.e.e.e.e.e.e.e.e.e.e.e.e.e.e.e.e.e.e.e.e.e.e.e.e.w.w.8.&.@.[ S c [ @.#.*.L e.e.e.e.e.e.e.e.e.e.",
"e.e.e.e.e.e.e.e.e.e.e.e.e.e.e.e.e.e.e.e.e.e.e.e.e.e.e.e.e.e.e.e.e.e.e.e.e.e.e.e.e.w.w.>.#.+._ z L O.@.O...G M e.e.e.e.e.e.e.e.e.",
"e.e.e.e.e.e.e.e.e.e.e.e.e.e.e.e.e.e.e.e.e.e.e.e.e.e.e.e.e.e.e.e.e.e.e.e.e.e.e.e.e.w.9.&.+.[ S G [ +.@.[ L H J #.e.e.e.e.e.e.e.e.",
"e.e.e.e.e.e.e.e.e.e.e.e.e.e.e.e.e.e.e.e.e.e.e.e.e.e.e.e.e.e.e.e.e.e.e.e.e.e.e.e.e.q.<.X.` J N [ ..+.O._ J J J %.9.e.e.e.e.e.e.e.",
"e.e.e.e.e.e.e.e.e.e.e.e.e.e.e.e.e.e.e.e.e.e.e.e.e.e.e.e.e.e.e.e.e.e.e.e.e.e.e.e.e.2.X.) G z L ..O.O.O.L H K J K ' _ e.e.e.e.e.e.",
"e.e.e.e.e.e.e.e.e.e.e.e.e.e.e.e.e.e.e.e.e.e.e.e.e.e.e.e.e.e.e.e.e.e.e.e.e.e.e.e.e.] ( F c c [ +.O...' K K J J J J H S e.e.e.e.e.",
"e.e.e.e.e.e.e.e.e.e.e.e.e.e.e.e.e.e.e.e.e.e.e.e.e.e.e.e.e.e.e.e.e.e.e.e.e.e.e.e.E W b c s L O.O..._ K J J J J J J J D M e.e.e.e.",
"e.e.e.e.e.e.e.e.e.e.e.e.e.e.e.e.e.1.9.>.q.>.w.:.e.e.e.e.e.e.e.Z Z Z Z Z ! ! I ^ Z E s t S O.O.[ L L K J J J J J H D D D e.e.e.e.",
"e.e.e.e.e.e.e.e.e.e.e.e.e.e.e.e.>.9.4.q.>.q.q.>.w.e.e.e.A Z A } Q A Z I U I ! ^ ! C s t L O...K J J H K J H S M d d d z M e.e.e.",
"e.e.e.e.e.e.e.e.e.e.e.e.e.e.e.w.>.9.4.8.4.9.>.w.w.e.A Z Z } ! Q I I I A Z Q ! Q I I Z t H L S S D S M M t t t t d z M M t e.e.e.",
"e.e.e.e.e.e.e.e.e.e.e.e.e.e.*.q.4.q.3.4.4.8.>.w.[ A Z Z ! Q A A Q Q A Q Q Q A A I I Z Z q t z z z d t t t M M S D D H K K e.e.e.",
"e.e.e.e.e.e.e.e.e.e.e.e.e.e.w.*.w.4.3.8.,.w.>.[ A } Z ! A A U I T I Q ^ ! I Q I I Z C n w r t d z z M M M M D D D H H K J e.e.e.",
"e.e.e.e.e.e.e.e.e.e.e.e.e.,.q.*.w.3.8.4.q.,.L Z / ^ Q A Q ! Q A A Q ! Q I Q ! Q I Z h p w w r z M M M M D D S S D D D D M e.e.e.",
"e.e.e.e.e.e.e.e.e.e.e.e.e.3.8.>.q.,.9.,.9.' Z / ! A A ! ^ ! A Q Q Q A A ! ^ Q T I Z p w w 5 < : 7 0 9 7 9 r 0 9 0 r 0 7 e.e.e.e.",
"e.e.e.e.e.e.e.e.e.e.e.e.e.4.8.,.8.3.q.*.K Z / ! A Q ! ! Q A Q ^ ! I ! ^ ^ Q Q I A V 8 w 4 - e.e.e.e.e.e.e.e.e.e.e.e.e.e.e.e.e.e.",
"e.e.e.e.e.e.e.e.e.e.e.e.e.8.3.q.*.q.>.' Z ^ ! A ! ^ Q A A Q ! Q A ! ^ / Q U Q I C h w 8 8 e.e.e.e.e.e.e.e.e.e.e.e.e.e.e.e.e.e.e.",
"e.e.e.e.e.e.e.e.e.e.e.e.e.w.>.w.*.8.K Z Q A A Q Q Q A Q ! Q A A ! ^ ! Q T ! U A l p w 4 w e.e.e.e.e.e.e.e.e.e.e.e.e.e.e.e.e.e.e.",
"e.e.e.e.e.e.e.e.e.e.e.e.e.w.:.w.:._ Z ! A Q Q Q A A Q Q Q A U ^ ^ ! A A Q I A n h i w 4 2 e.e.e.e.e.e.e.e.e.e.e.e.e.e.e.e.e.e.e.",
"e.e.e.e.e.e.e.e.e.e.e.e.e.w.:.8.J Z Q A Q Q Q A Q Q Q A A ! } / ! I Q ! ! Q Z n p w w w 2 e.e.e.e.e.e.e.e.e.e.e.e.e.e.e.e.e.e.e.",
"e.e.e.e.e.e.e.e.e.e.e.e.e.w.&.` Z A A A Q A A Q ! Q I Q ! / / ! I ! ! ! Q I Z h p w 5 w w e.e.e.e.e.e.e.e.e.e.e.e.e.e.e.e.e.e.e.",
"e.e.e.e.e.e.e.e.e.e.e.e.e.[ F Q A U A A A Q Q Q A A ! / } ^ Q I Q ^ Q T Q U C h w w 5 8 8 e.e.e.e.e.e.e.e.e.e.e.e.e.e.e.e.e.e.e.",
"e.e.e.e.e.e.e.e.e.e.e.e.e.! A A A U A Q Q ! Q A Q ! / ^ Q A A Q ^ ! I ! Q A n a w 8 w 8 : e.e.e.e.e.e.e.e.e.e.e.e.e.e.e.e.e.e.e.",
"e.e.e.e.e.e.e.e.e.e.e.e.Q A Q I A A Q ! T A A ! ~ ^ ! T ~ { { { / I ! ~ T Z k w 5 w 5 2 $ e.e.e.e.e.e.e.e.e.e.e.e.e.e.e.e.e.e.e.",
"e.e.e.e.e.e.e.e.e.e.e.I A Q U A Q Q Q A A Q ! ! ! ! ;.2.4.7.9.8.4.:.| { Y Z h w 5 w 2 1 e.e.e.e.e.e.e.e.e.e.e.e.e.e.e.e.e.e.e.e.",
"e.e.e.e.e.e.e.e.e.e.e.h T T A Q Q Q I Q ! ^ Q ! ;.8.q.q.8.4.3.1.1.*.&.] B v a q w 4 2 = e.e.e.e.e.e.e.e.e.e.e.e.e.e.e.e.e.e.e.e.",
"e.e.e.e.e.e.e.e.e.e.h Z V A Q Q A A Q / ! Q ^ <.8.q.9.8.3.1.*.#.@.#.' J B k w w 4 w 5 $ e.e.e.e.e.e.e.e.e.e.e.e.e.e.e.e.e.e.e.e.",
"e.e.e.e.e.e.e.e.e.h Z V Q ! Q A Q ! Q Q A I 2.q.w.q.8.7.>.&.@.O.[ ' K F x w w 4 q 8 > e.e.e.e.e.e.e.e.e.e.e.e.e.e.e.e.e.e.e.e.e.",
"e.e.e.e.e.e.e.e.h Z V Q Q Q A Q Q Q A I Q o.6.0.8.3.3.3.*.@...[ _ L F x w w w 4 w 4 & e.e.e.e.e.e.e.e.e.e.e.e.e.e.e.e.e.e.e.e.e.",
"e.e.e.e.e.e.e.k Z V I Q A A Q Q A A Q / ! | =.2.*.%.*.&.@.....' K S f y w 8 4 w 8 - e.e.e.e.e.e.e.e.e.e.e.e.e.e.e.e.e.e.e.e.e.e.",
"e.e.e.e.e.e.e./ C A A A Q Q Q A Q ~ / / ! T  .$.O.[ [ O.....) J F f w w 5 5 q w 2 - e.e.e.e.e.e.e.e.e.e.e.e.e.e.e.e.e.e.e.e.e.e.",
"e.e.e.e.e.e.} ! A A A Q ^ Q A ! / } / ! I ! / / ) L ) ) ) L J F x u w q 5 w w 4 4 e.e.e.e.e.e.e.e.e.e.e.e.e.e.e.e.e.e.e.e.e.e.e.",
"e.e.e.e.e.} ^ A A A Q ^ ! I ! / } ^ Q I Q } ^ ! ! R J H J J F m a w w 4 w w 4 4 & e.e.e.e.e.e.e.e.e.e.e.e.e.e.e.e.e.e.e.e.e.e.e.",
"e.e.e.e.e.} Q A A A ! Q I ! } / ! I I Q } } ! A I U U I P P m h p w 4 w w 5 2 * e.e.e.e.e.e.e.e.e.e.e.e.e.e.e.e.e.e.e.e.e.e.e.e.",
"e.e.e.e.e.! A A A Q ! A Q } } ! A Q ^ / / Q I Q ! U U I I C j h w 4 w w 5 4 - $ e.e.e.e.e.e.e.e.e.e.e.e.e.e.e.e.e.e.e.e.e.e.e.e.",
"e.e.e.e.} Q A A A ^ ! Z ^ / Q I ! ^ / ^ Q A T Q I I I I C n g w 5 w w 5 2 : % e.e.e.e.e.e.e.e.e.e.e.e.e.e.e.e.e.e.e.e.e.e.e.e.e.",
"e.e.e.e.! A I Z Q p + + h Q I ! } } ! A I Q I I I I Z V n p 6 6 w 5 4 2 > & e.e.e.e.e.e.e.e.e.e.e.e.e.e.e.e.e.e.e.e.e.e.e.e.e.e.",
"e.e.e.e.A I I A ^ o   o & I ! } } ! I Q ! ! U U I Z V n i 4 6 w 5 5 2 > * e.e.e.e.e.e.e.e.e.e.e.e.e.e.e.e.e.e.e.e.e.e.e.e.e.e.e.",
"e.e.e.e.I I A Q ! o X o . / } ^ ! A Q ! U I I I V n h i 4 5 5 4 5 2 > & e.e.e.e.e.e.e.e.e.e.e.e.e.e.e.e.e.e.e.e.e.e.e.e.e.e.e.e.",
"e.e.e.e.! T A T A i   O Z } } ! I Q Q I T A C j h g i 6 5 5 5 5 4 > % e.e.e.e.e.e.e.e.e.e.e.e.e.e.e.e.e.e.e.e.e.e.e.e.e.e.e.e.e.",
"e.e.e.e.^ I I T Z ! ! I / / ! I U U I A Z n h a y 6 6 6 5 5 5 2 > % e.e.e.e.e.e.e.e.e.e.e.e.e.e.e.e.e.e.e.e.e.e.e.e.e.e.e.e.e.e.",
"e.e.e.e./ Z T Z T T I ! ^ ! I T I A I Z n g i w 5 5 5 5 5 5 1 - $ e.e.e.e.e.e.e.e.e.e.e.e.e.e.e.e.e.e.e.e.e.e.e.e.e.e.e.e.e.e.e.",
"e.e.e.e.e.! T Z I A Q ! Q A I A A Z V l g i 5 6 5 5 5 5 5 2 * @ e.e.e.e.e.e.e.e.e.e.e.e.e.e.e.e.e.e.e.e.e.e.e.e.e.e.e.e.e.e.e.e.",
"e.e.e.e.e.Z A A A A A A V n n n l l g i w 5 w 6 5 5 5 5 1 & @ e.e.e.e.e.e.e.e.e.e.e.e.e.e.e.e.e.e.e.e.e.e.e.e.e.e.e.e.e.e.e.e.e.",
"e.e.e.e.e.2 k n Z V V n k h g p p w w 4 4 5 6 6 5 5 2 > % @ e.e.e.e.e.e.e.e.e.e.e.e.e.e.e.e.e.e.e.e.e.e.e.e.e.e.e.e.e.e.e.e.e.e.",
"e.e.e.e.e.& 4 p h h g g p w w w w w 4 5 w w 6 6 5 > - % @ e.e.e.e.e.e.e.e.e.e.e.e.e.e.e.e.e.e.e.e.e.e.e.e.e.e.e.e.e.e.e.e.e.e.e.",
"e.e.e.e.e.e.= 2 8 w w w w w w w w 5 w 6 w 6 5 2 - % e.e.e.e.e.e.e.e.e.e.e.e.e.e.e.e.e.e.e.e.e.e.e.e.e.e.e.e.e.e.e.e.e.e.e.e.e.e.",
"e.e.e.e.e.e.e.: 1 4 5 w 8 w w q q 8 q 5 4 1 - % @ e.e.e.e.e.e.e.e.e.e.e.e.e.e.e.e.e.e.e.e.e.e.e.e.e.e.e.e.e.e.e.e.e.e.e.e.e.e.e.",
"e.e.e.e.e.e.e.e.- > 1 < , , 1 , > > > - * $ e.e.e.e.e.e.e.e.e.e.e.e.e.e.e.e.e.e.e.e.e.e.e.e.e.e.e.e.e.e.e.e.e.e.e.e.e.e.e.e.e.e.",
"e.e.e.e.e.e.e.e.e.e.= = & % % # % % $ # @ e.e.e.e.e.e.e.e.e.e.e.e.e.e.e.e.e.e.e.e.e.e.e.e.e.e.e.e.e.e.e.e.e.e.e.e.e.e.e.e.e.e.e.",
"e.e.e.e.e.e.e.e.e.e.e.e.e.e.e.e.e.e.e.e.e.e.e.e.e.e.e.e.e.e.e.e.e.e.e.e.e.e.e.e.e.e.e.e.e.e.e.e.e.e.e.e.e.e.e.e.e.e.e.e.e.e.e.e.",
"e.e.e.e.e.e.e.e.e.e.e.e.e.e.e.e.e.e.e.e.e.e.e.e.e.e.e.e.e.e.e.e.e.e.e.e.e.e.e.e.e.e.e.e.e.e.e.e.e.e.e.e.e.e.e.e.e.e.e.e.e.e.e.e.",
"e.e.e.e.e.e.e.e.e.e.e.e.e.e.e.e.e.e.e.e.e.e.e.e.e.e.e.e.e.e.e.e.e.e.e.e.e.e.e.e.e.e.e.e.e.e.e.e.e.e.e.e.e.e.e.e.e.e.e.e.e.e.e.e.",
"e.e.e.e.e.e.e.e.e.e.e.e.e.e.e.e.e.e.e.e.e.e.e.e.e.e.e.e.e.e.e.e.e.e.e.e.e.e.e.e.e.e.e.e.e.e.e.e.e.e.e.e.e.e.e.e.e.e.e.e.e.e.e.e.",
"e.e.e.e.e.e.e.e.e.e.e.e.e.e.e.e.e.e.e.e.e.e.e.e.e.e.e.e.e.e.e.e.e.e.e.e.e.e.e.e.e.e.e.e.e.e.e.e.e.e.e.e.e.e.e.e.e.e.e.e.e.e.e.e."
};
