/* XPM */
static char *xpm_[] = {
/* columns rows colors chars-per-pixel */
"32 32 51 1 ",
"  c #281E0B",
". c #2A200C",
"X c #2D220D",
"o c #2F230D",
"O c #3C2C0E",
"+ c #3F2E0E",
"@ c #463312",
"# c #493615",
"$ c #5C420E",
"% c #59431A",
"& c #5B441B",
"* c #684E1E",
"= c #735312",
"- c #765822",
"; c #7A5C23",
": c #7C5D23",
"> c #7F6025",
", c #825D16",
"< c #88651B",
"1 c #89661A",
"2 c #947012",
"3 c #96711B",
"4 c #A67711",
"5 c #826225",
"6 c #886627",
"7 c #896727",
"8 c #977927",
"9 c #9B7E2A",
"0 c #9C8126",
"q c #9F832D",
"w c #C29115",
"e c #CB9917",
"r c #DC9613",
"t c #E09F14",
"y c #DEA915",
"u c #E6AF15",
"i c #E9B115",
"p c #EAB61B",
"a c #E9BF25",
"s c #ECBD24",
"d c #EAD43A",
"f c #B8A440",
"g c #C0AE46",
"h c #D1C554",
"j c #DED75E",
"k c #EAED56",
"l c #EAEE57",
"z c #FAF367",
"x c #FDFE75",
"c c #FDFF76",
"v c None",
/* pixels */
"vvvvvvvvvvvvvvvvvvvvvvvvvvvvvvvv",
"vvvvvvvvvvvvvvvvvvvvvvvvvvvvvvvv",
"vvvvvvvvvvvvvvvvvvvvvvvvvvvvvvvv",
"vvvvvvvvvvvvvvvvvv,,,,vvvvvvvvvv",
"vvvvvvvvvvvvvvvv,,qhj8,vvvvvvvvv",
"vvvvvvvvvvvvvvv,,9ccc1,vvvvvvvvv",
"vvvvvvvvvvvvvv,fccsdl1,vvvvvvvvv",
"vvvvvvvvvvvvv,,cziiii0,vvvvvvvvv",
"vvvvvvvvvvvvv,gciiiiiw##vvvvvvvv",
"vvvvvvvvvvvv,qcpiiiiir#&Xvvvvvvv",
"vvvvvvvvvvvv,hcaiiiirr3*.vvvvvvv",
"vvvvvvvvvvvv,jckiiirrii@ vvvvvvv",
"vvvvvvvvvvvv,8110yrriitr$++vvvvv",
"vvvvvvvvvvvvv,+++##eitrtiu+vvvvv",
"vvvvvvvvvvvvvvvv##%*=rtiii+vvvvv",
"vvvvvvvvvvvvvvv##%*% 4iiii+vvvvv",
"vvvvvvvvvvvvvv##;6% ++2222+vvvvv",
"vvvvvvvvvvvvv##;6;  v++++++vvvvv",
"vvvvvvvvvvvv##%5;  vvvvvvvvvvvvv",
"vvvvvvvvvvv##%*%  vvvvvvvvvvvvvv",
"vvvvvvvvvv##%*%  vvvvvvvvvvvvvvv",
"vvvvvvvvv##;-%  vvvvvvvvvvvvvvvv",
"vvvvvvvv##;6;  vvvvvvvvvvvvvvvvv",
"vvvvvvv##;6;  vvvvvvvvvvvvvvvvvv",
"vvvvvv##%*;  vvvvvvvvvvvvvvvvvvv",
"vvvvv##5*%  vvvvvvvvvvvvvvvvvvvv",
"vvvv##;6>  vvvvvvvvvvvvvvvvvvvvv",
"vvvv#:6;  vvvvvvvvvvvvvvvvvvvvvv",
"vvvv#o:  vvvvvvvvvvvvvvvvvvvvvvv",
"vvvvv   vvvvvvvvvvvvvvvvvvvvvvvv",
"vvvvvvvvvvvvvvvvvvvvvvvvvvvvvvvv",
"vvvvvvvvvvvvvvvvvvvvvvvvvvvvvvvv"
};
