/* XPM */
static char *xpm_[] = {
/* columns rows colors chars-per-pixel */
"32 32 59 1 ",
"  c #281E0B",
". c #291F0B",
"X c #3F2E0E",
"o c #3B2C11",
"O c #3C2D11",
"+ c #42310F",
"@ c #43310F",
"# c #493615",
"$ c #4C3815",
"% c #524316",
"& c #544617",
"* c #564019",
"= c #59431A",
"- c #5A431A",
"; c #5B441A",
": c #5C451A",
"> c #57481B",
", c #61481C",
"< c #62491C",
"1 c #634A1D",
"2 c #684E1E",
"3 c #694F1E",
"4 c #6C511F",
"5 c #715520",
"6 c #725621",
"7 c #735621",
"8 c #795B23",
"9 c #7A5B23",
"0 c #7A5C23",
"q c #7B5C23",
"w c #7D7230",
"e c #825D16",
"r c #8F6F1E",
"t c #896727",
"y c #B38812",
"u c #BC8F15",
"i c #8A8232",
"p c #8B8233",
"a c #AA9236",
"s c #AAA63C",
"d c #DDAB18",
"f c #DFAC18",
"g c #E9B115",
"h c #E9B418",
"j c #C3B83F",
"k c #C5C447",
"l c #CAC247",
"z c #CFD04C",
"x c #D2D34D",
"c c #DBDA4E",
"v c #C5C157",
"b c #D9CF5A",
"n c #EAE048",
"m c #E5E855",
"M c #EAEE57",
"N c #EEF25E",
"B c #F1F26F",
"V c #F4F46E",
"C c None",
/* pixels */
"CCCCCCCCCCCCCCCCCCCCCCCCCCCCCCCC",
"CCCCCCCCCCCCCCCCCCCCCCCCCCCCCCCC",
"CCCCCCCCCCCCCCCCCCCCCCCCCCCCCCCC",
"CCCCCCCCCCCCCCCeeeCCCCCCCCCCCCCC",
"CCCCCCCCCCCeeeeeeeeeeCCCCCCCCCCC",
"CCCCCCCCCeeeabVMMMcreeC###CCCCCC",
"CCCCCCCCee@X>ikMMMMMje$#*o CCCCC",
"CCCCCCCCCCCXXXXX%zMMMf#0tO CCCCC",
"CCCCCCCCCCCCCCCXXX@mhgnt6  CCCCC",
"CCCCCCCCCCCCCCCCCXX#unMn  CCCCCC",
"CCCCCCCCCCCCCCCCCC##8lnhfXXCCCCC",
"CCCCCCCCCCCCCCCCC##<55yhMsXXCCCC",
"CCCCCCCCCCCCCCCC##,2;  mMM&XCCCC",
"CCCCCCCCCCCCCCC##0t=  +@MMxXCCCC",
"CCCCCCCCCCCCCC##0t6  CXXzMMXXCCC",
"CCCCCCCCCCCCC##,26  CCCX%MMXXCCC",
"CCCCCCCCCCCC##02,  CCCCXXMNXXCCC",
"CCCCCCCCCCC##0t8  CCCCCCXkBXCCCC",
"CCCCCCCCCC##,46  CCCCCCCXivXCCCC",
"CCCCCCCCC##,2=  CCCCCCCCX>w+CCCC",
"CCCCCCCC##0t=  CCCCCCCCCXXXXCCCC",
"CCCCCCC##qt6  CCCCCCCCCCCXXCCCCC",
"CCCCCC##1q6  CCCCCCCCCCCCXXCCCCC",
"CCCCC##,2:  CCCCCCCCCCCCCXCCCCCC",
"CCCC##0t=  CCCCCCCCCCCCCCCCCCCCC",
"CCC##0t6  CCCCCCCCCCCCCCCCCCCCCC",
"CCC#8t6  CCCCCCCCCCCCCCCCCCCCCCC",
"CCC# 6  CCCCCCCCCCCCCCCCCCCCCCCC",
"CCCC   CCCCCCCCCCCCCCCCCCCCCCCCC",
"CCCCCCCCCCCCCCCCCCCCCCCCCCCCCCCC",
"CCCCCCCCCCCCCCCCCCCCCCCCCCCCCCCC",
"CCCCCCCCCCCCCCCCCCCCCCCCCCCCCCCC"
};
