/* XPM */
static char *result[] = {
/* columns rows colors chars-per-pixel */
"64 64 86 1 ",
"  c #291F0C",
". c #26231E",
"X c #363711",
"o c #302A21",
"O c #363026",
"+ c #393123",
"@ c #3D3424",
"# c #3F382B",
"$ c #4A3715",
"% c #4A3716",
"& c #4E3A17",
"* c #433A2A",
"= c #463A28",
"- c #41392C",
"; c #464212",
": c #59431A",
"> c #5A441A",
", c #694F1F",
"< c #6E521F",
"1 c #4C4333",
"2 c #6E5220",
"3 c #705420",
"4 c #775922",
"5 c #7C5C25",
"6 c #646620",
"7 c #747624",
"8 c #757725",
"9 c #7C7E27",
"0 c #815F26",
"q c #806025",
"w c #836227",
"e c #8A6828",
"r c #8E6A2A",
"t c #946F2B",
"y c #966F2D",
"u c #A57C30",
"i c #7F8128",
"p c #828429",
"a c #838529",
"s c #898B2B",
"d c #8B8E2C",
"f c #8C8E2C",
"g c #8E902C",
"h c #8E912D",
"j c #8F912D",
"k c #90922D",
"l c #91942E",
"z c #92942E",
"x c #94962E",
"c c #979A30",
"v c #999B30",
"b c #9EA132",
"n c #9FA132",
"m c #A0A332",
"M c #A2A433",
"N c #A4A734",
"B c #A5A734",
"V c #A6A834",
"C c #A6A934",
"Z c #A7AA34",
"A c #A8AA35",
"S c #A9AB35",
"D c #AAAD35",
"F c #ABAD36",
"G c #ACAE36",
"H c #ACAF36",
"J c #ADB036",
"K c #AEB137",
"L c #AFB237",
"P c #B1B438",
"I c #B2B438",
"U c #B2B538",
"Y c #B3B638",
"T c #B4B738",
"R c #B5B739",
"E c #B5B839",
"W c #B7BA39",
"Q c #B8BA3A",
"! c #B8BB3A",
"~ c #B9BC3A",
"^ c #BABD3A",
"/ c #BBBD3B",
"( c #BBBE3B",
") c #BEC13C",
"_ c #BFC23C",
"` c None",
/* pixels */
"````````````````````````````````````````````````````````````````",
"````````````````````````````````````````````````````````````````",
"````````````````````````````````````````````````````````````````",
"````````````````````````````````````````````````````````````````",
"````````````````````````````````````````````````````````````````",
"````````````````XXXXXXXXXXXXXXXXXXXXX```````````````````````````",
"```````````````X_____)^^^^^^^^^^^^^^VX``````````````````````````",
"````````````````X_____)^^^^^^^^^^^~EUVXXXXX`````````````````````",
"`````````````````X_____^^^~QQTRWQ!EJDCVZ~^^X````w2``````````````",
"``````````````````X____^~TPJGDFHKKSCVZFT^^!VXX`yq:%`````````````",
"```````````````````X_)^WKSZCCZCVVCVVVVAT!UFVnn1q,,: ````````````",
"````````````````````XX~JVVVVVVVVVVVVVVVFJHVmhxl#>,,$ ```````````",
"``````````````````````XXXXXXXXXXXXXXVVVVCNmzkvC!+>,$ ```````````",
"````````````````````````````````````XVVViasdjnUQP-$ ````````````",
"`````````````````````````````````````XXX67ifcnVPNlO`````````````",
"````````````````````````````````````````X=*;nVVMvfVX````````````",
"````````````````````````````````````````0<>&@VMczfVX````````````",
"```````````````````````````````````````yq,,>&@jlgbBCX```````````",
"``````````````````````````````````````yq,,,,>o9gbVFT^X``````````",
"`````````````````````````````````````ut4,,,,$.8pBCT^~X``````````",
"````````````````````````````````````utee4,,$ X67VVRREX``````````",
"```````````````````````````````````uteeee4$ ``XVVVITDX``````````",
"``````````````````````````````````yteeeee3 ```XVVVGPCX``````````",
"`````````````````````````````````yq4eeee3 ````XVVVVCVVX`````````",
"````````````````````````````````yq,,4ee3 ``````XVVVCGY^X````````",
"```````````````````````````````yq,,,,43 ````````XVVALR^X````````",
"``````````````````````````````yq,,,,,$ `````````XVVCYW^X````````",
"`````````````````````````````ut4,,,,$ ``````````XVVZT~^X````````",
"````````````````````````````utee4,,$ ```````````XVVAT^^X````````",
"```````````````````````````uteeee4$ ````````````XVVGT^^X````````",
"``````````````````````````uteeeee3 `````````````XVVJY~^X````````",
"`````````````````````````yteeeee3 ``````````````XVVJR^^X````````",
"````````````````````````yq4eeee3 ```````````````XVVH!^^X````````",
"```````````````````````yq,,4ee3 ````````````````XVVJ~^^X````````",
"``````````````````````yq,,,,43 `````````````````XVSL~^^X````````",
"`````````````````````yq,,,,,$ ``````````````````XCKR^^^X````````",
"````````````````````ut4,,,,$ ```````````````````XSIW^^^X````````",
"```````````````````utee4,,$ ````````````````````XRE~^^^X````````",
"``````````````````yteeee4$ `````````````````````X/____^X````````",
"`````````````````yq4eeee3 ```````````````````````X____(X````````",
"````````````````yq,,4ee3 ````````````````````````X_____X````````",
"```````````````yq,,,,43 ``````````````````````````X____X````````",
"``````````````yq,,,,,$ ````````````````````````````X___X````````",
"`````````````yq,,,,,$ ``````````````````````````````X__X````````",
"````````````ut4,,,,$ ````````````````````````````````X_X````````",
"```````````utee4,,$ ``````````````````````````````````X`````````",
"``````````uteeee4$ `````````````````````````````````````````````",
"`````````uteeeee3 ``````````````````````````````````````````````",
"````````uteeeee3 ```````````````````````````````````````````````",
"```````yteeeee3 ````````````````````````````````````````````````",
"``````yq,eeee3 `````````````````````````````````````````````````",
"`````rq,,,ee3 ``````````````````````````````````````````````````",
"````5q,,,,,3 ```````````````````````````````````````````````````",
"````2:,,,,$ ````````````````````````````````````````````````````",
"`````%:,,$ `````````````````````````````````````````````````````",
"`````` $$ ``````````````````````````````````````````````````````",
"```````  ```````````````````````````````````````````````````````",
"````````````````````````````````````````````````````````````````",
"````````````````````````````````````````````````````````````````",
"````````````````````````````````````````````````````````````````",
"````````````````````````````````````````````````````````````````",
"````````````````````````````````````````````````````````````````",
"````````````````````````````````````````````````````````````````",
"````````````````````````````````````````````````````````````````"
};
