/* XPM */
static char *result[] = {
/* columns rows colors chars-per-pixel */
"64 64 105 2 ",
"   c #291F0C",
".  c #26231E",
"X  c #302A21",
"o  c #363026",
"O  c #393123",
"+  c #3D3424",
"@  c #3F382B",
"#  c #4A3715",
"$  c #4A3716",
"%  c #4E3A17",
"&  c #433A2A",
"*  c #463A28",
"=  c #41392C",
"-  c #59431A",
";  c #5A441A",
":  c #694F1F",
">  c #6E521F",
",  c #4C4333",
"<  c #6E5220",
"1  c #705420",
"2  c #775922",
"3  c #7C5C25",
"4  c gray27",
"5  c #585146",
"6  c #7B7B7B",
"7  c #815F26",
"8  c #806025",
"9  c #836227",
"0  c #8A6828",
"q  c #8E6A2A",
"w  c #946F2B",
"e  c #966F2D",
"r  c #A57C30",
"t  c gray55",
"y  c #8D8D8D",
"u  c #959595",
"i  c #979797",
"p  c gray61",
"a  c #9D9D9D",
"s  c gray64",
"d  c #A5A5A5",
"f  c gray65",
"g  c gray66",
"h  c #A9A9A9",
"j  c #AAAAAA",
"k  c gray67",
"l  c #ACACAC",
"z  c gray68",
"x  c #AEAEAE",
"c  c #B2B2B2",
"v  c #B4B4B4",
"b  c gray73",
"n  c #BBBBBB",
"m  c gray74",
"M  c gray",
"N  c #C0C0C0",
"B  c #C1C1C1",
"V  c gray76",
"C  c #C3C3C3",
"Z  c gray77",
"A  c #C5C5C5",
"S  c #C6C6C6",
"D  c gray78",
"F  c #C8C8C8",
"G  c gray79",
"H  c #CACACA",
"J  c #CBCBCB",
"K  c gray80",
"L  c #CDCDCD",
"P  c #CECECE",
"I  c gray81",
"U  c #D0D0D0",
"Y  c gray82",
"T  c #D2D2D2",
"R  c LightGray",
"E  c gray83",
"W  c #D5D5D5",
"Q  c gray84",
"!  c #D7D7D7",
"~  c #D8D8D8",
"^  c gray85",
"/  c #DADADA",
"(  c gray86",
")  c #DDDDDD",
"_  c #DFDFDF",
"`  c gray88",
"'  c gray89",
"]  c gray90",
"[  c #E6E6E6",
"{  c #E7E7E7",
"}  c gray91",
"|  c #EAEAEA",
" . c #ECECEC",
".. c #EFEFEF",
"X. c #F1F1F1",
"o. c #F4F4F4",
"O. c gray96",
"+. c gray97",
"@. c #F9F9F9",
"#. c gray98",
"$. c #FBFBFB",
"%. c gray99",
"&. c #FEFEFE",
"*. c white",
"=. c None",
/* pixels */
"=.=.=.=.=.=.=.=.=.=.=.=.=.=.=.=.=.=.=.=.=.=.=.=.=.=.=.=.=.=.=.=.=.=.=.=.=.=.=.=.=.=.=.=.=.=.=.=.=.=.=.=.=.=.=.=.=.=.=.=.=.=.=.=.",
"=.=.=.=.=.=.=.=.=.=.=.=.=.=.=.=.=.=.=.=.=.=.=.=.=.=.=.=.=.=.=.=.=.=.=.=.=.=.=.=.=.=.=.=.=.=.=.=.=.=.=.=.=.=.=.=.=.=.=.=.=.=.=.=.",
"=.=.=.=.=.=.=.=.=.=.=.=.=.=.=.=.=.=.=.=.=.=.=.=.=.=.=.=.=.=.=.=.=.=.=.=.=.=.=.=.=.=.=.=.=.=.=.=.=.=.=.=.=.=.=.=.=.=.=.=.=.=.=.=.",
"=.=.=.=.=.=.=.=.=.=.=.=.=.=.=.=.=.=.=.=.=.=.=.=.=.=.=.=.=.=.=.=.=.=.=.=.=.=.=.=.=.=.=.=.=.=.=.=.=.=.=.=.=.=.=.=.=.=.=.=.=.=.=.=.",
"=.=.=.=.=.=.=.=.=.=.=.=.=.=.=.=.=.=.=.=.=.=.=.=.=.=.=.=.=.=.=.=.=.=.=.=.=.=.=.=.=.=.=.=.=.=.=.=.=.=.=.=.=.=.=.=.=.=.=.=.=.=.=.=.",
"=.=.=.=.=.=.=.=.=.=.=.=.=.=.=.=.4 4 4 4 4 4 4 4 4 4 4 4 4 4 4 4 4 4 4 4 4 =.=.=.=.=.=.=.=.=.=.=.=.=.=.=.=.=.=.=.=.=.=.=.=.=.=.=.",
"=.=.=.=.=.=.=.=.=.=.=.=.=.=.=.4 *.*.*.+.[ ) ^ ^ ^ ^ ^ ^ ^ ^ ^ ^ ^ ^ ^ ^ V 4 =.=.=.=.=.=.=.=.=.=.=.=.=.=.=.=.=.=.=.=.=.=.=.=.=.=.",
"=.=.=.=.=.=.=.=.=.=.=.=.=.=.=.=.4 *.*.&.+.} ) ^ ^ ^ ^ ^ ^ ^ ^ ^ ^ ^ ~ E U V 4 4 4 4 4 =.=.=.=.=.=.=.=.=.=.=.=.=.=.=.=.=.=.=.=.=.",
"=.=.=.=.=.=.=.=.=.=.=.=.=.=.=.=.=.4 *.*.#.X.' ^ ^ ^ ~ Q Q T R W Q ! E J D C V Z ~ ^ ^ 4 =.=.=.=.9 < =.=.=.=.=.=.=.=.=.=.=.=.=.=.",
"=.=.=.=.=.=.=.=.=.=.=.=.=.=.=.=.=.=.4 *.&. .` ^ ~ T P J G D F H K K S C V Z F T ^ ^ ! V 4 4 =.e 8 - $ =.=.=.=.=.=.=.=.=.=.=.=.=.",
"=.=.=.=.=.=.=.=.=.=.=.=.=.=.=.=.=.=.=.4 $.) ^ W K S Z C C Z C V V C V V V V A T ! U F V n n , 8 : : -   =.=.=.=.=.=.=.=.=.=.=.=.",
"=.=.=.=.=.=.=.=.=.=.=.=.=.=.=.=.=.=.=.=.4 4 ~ J V V V V V V V V V V V V V V V F J H V m h x l @ ; : : #   =.=.=.=.=.=.=.=.=.=.=.",
"=.=.=.=.=.=.=.=.=.=.=.=.=.=.=.=.=.=.=.=.=.=.4 4 4 4 4 4 4 4 4 4 4 4 4 4 V V V V C N m z k v C ! O ; : #   =.=.=.=.=.=.=.=.=.=.=.",
"=.=.=.=.=.=.=.=.=.=.=.=.=.=.=.=.=.=.=.=.=.=.=.=.=.=.=.=.=.=.=.=.=.=.=.=.4 V V V i a s d j n U Q P = #   =.=.=.=.=.=.=.=.=.=.=.=.",
"=.=.=.=.=.=.=.=.=.=.=.=.=.=.=.=.=.=.=.=.=.=.=.=.=.=.=.=.=.=.=.=.=.=.=.=.=.4 4 4 6 t i f c n V P N l o =.=.=.=.=.=.=.=.=.=.=.=.=.",
"=.=.=.=.=.=.=.=.=.=.=.=.=.=.=.=.=.=.=.=.=.=.=.=.=.=.=.=.=.=.=.=.=.=.=.=.=.=.=.=.4 * & 5 n V V M v f V 4 =.=.=.=.=.=.=.=.=.=.=.=.",
"=.=.=.=.=.=.=.=.=.=.=.=.=.=.=.=.=.=.=.=.=.=.=.=.=.=.=.=.=.=.=.=.=.=.=.=.=.=.=.=.7 > ; % + V M c z f V 4 =.=.=.=.=.=.=.=.=.=.=.=.",
"=.=.=.=.=.=.=.=.=.=.=.=.=.=.=.=.=.=.=.=.=.=.=.=.=.=.=.=.=.=.=.=.=.=.=.=.=.=.=.e 8 : : ; % + j l g b B C 4 =.=.=.=.=.=.=.=.=.=.=.",
"=.=.=.=.=.=.=.=.=.=.=.=.=.=.=.=.=.=.=.=.=.=.=.=.=.=.=.=.=.=.=.=.=.=.=.=.=.=.e 8 : : : : ; X u g b V F T ^ 4 =.=.=.=.=.=.=.=.=.=.",
"=.=.=.=.=.=.=.=.=.=.=.=.=.=.=.=.=.=.=.=.=.=.=.=.=.=.=.=.=.=.=.=.=.=.=.=.=.r w 2 : : : : # . y p B C T ^ ~ 4 =.=.=.=.=.=.=.=.=.=.",
"=.=.=.=.=.=.=.=.=.=.=.=.=.=.=.=.=.=.=.=.=.=.=.=.=.=.=.=.=.=.=.=.=.=.=.=.r w 0 0 2 : : #   4 6 t V V R R E 4 =.=.=.=.=.=.=.=.=.=.",
"=.=.=.=.=.=.=.=.=.=.=.=.=.=.=.=.=.=.=.=.=.=.=.=.=.=.=.=.=.=.=.=.=.=.=.r w 0 0 0 0 2 #   =.=.4 V V V I T D 4 =.=.=.=.=.=.=.=.=.=.",
"=.=.=.=.=.=.=.=.=.=.=.=.=.=.=.=.=.=.=.=.=.=.=.=.=.=.=.=.=.=.=.=.=.=.e w 0 0 0 0 0 1   =.=.=.4 V V V G P C 4 =.=.=.=.=.=.=.=.=.=.",
"=.=.=.=.=.=.=.=.=.=.=.=.=.=.=.=.=.=.=.=.=.=.=.=.=.=.=.=.=.=.=.=.=.e 8 2 0 0 0 0 1   =.=.=.=.4 V V V V C V V 4 =.=.=.=.=.=.=.=.=.",
"=.=.=.=.=.=.=.=.=.=.=.=.=.=.=.=.=.=.=.=.=.=.=.=.=.=.=.=.=.=.=.=.e 8 : : 2 0 0 1   =.=.=.=.=.=.4 V V V C G Y ^ 4 =.=.=.=.=.=.=.=.",
"=.=.=.=.=.=.=.=.=.=.=.=.=.=.=.=.=.=.=.=.=.=.=.=.=.=.=.=.=.=.=.e 8 : : : : 2 1   =.=.=.=.=.=.=.=.4 V V A L R ^ 4 =.=.=.=.=.=.=.=.",
"=.=.=.=.=.=.=.=.=.=.=.=.=.=.=.=.=.=.=.=.=.=.=.=.=.=.=.=.=.=.e 8 : : : : : #   =.=.=.=.=.=.=.=.=.4 V V C Y W ^ 4 =.=.=.=.=.=.=.=.",
"=.=.=.=.=.=.=.=.=.=.=.=.=.=.=.=.=.=.=.=.=.=.=.=.=.=.=.=.=.r w 2 : : : : #   =.=.=.=.=.=.=.=.=.=.4 V V Z T ~ ^ 4 =.=.=.=.=.=.=.=.",
"=.=.=.=.=.=.=.=.=.=.=.=.=.=.=.=.=.=.=.=.=.=.=.=.=.=.=.=.r w 0 0 2 : : #   =.=.=.=.=.=.=.=.=.=.=.4 V V A T ^ ^ 4 =.=.=.=.=.=.=.=.",
"=.=.=.=.=.=.=.=.=.=.=.=.=.=.=.=.=.=.=.=.=.=.=.=.=.=.=.r w 0 0 0 0 2 #   =.=.=.=.=.=.=.=.=.=.=.=.4 V V G T ^ ^ 4 =.=.=.=.=.=.=.=.",
"=.=.=.=.=.=.=.=.=.=.=.=.=.=.=.=.=.=.=.=.=.=.=.=.=.=.r w 0 0 0 0 0 1   =.=.=.=.=.=.=.=.=.=.=.=.=.4 V V J Y ~ ^ 4 =.=.=.=.=.=.=.=.",
"=.=.=.=.=.=.=.=.=.=.=.=.=.=.=.=.=.=.=.=.=.=.=.=.=.e w 0 0 0 0 0 1   =.=.=.=.=.=.=.=.=.=.=.=.=.=.4 V V J R ^ ^ 4 =.=.=.=.=.=.=.=.",
"=.=.=.=.=.=.=.=.=.=.=.=.=.=.=.=.=.=.=.=.=.=.=.=.e 8 2 0 0 0 0 1   =.=.=.=.=.=.=.=.=.=.=.=.=.=.=.4 V V H ! ^ ^ 4 =.=.=.=.=.=.=.=.",
"=.=.=.=.=.=.=.=.=.=.=.=.=.=.=.=.=.=.=.=.=.=.=.e 8 : : 2 0 0 1   =.=.=.=.=.=.=.=.=.=.=.=.=.=.=.=.4 V V J ~ ^ ^ 4 =.=.=.=.=.=.=.=.",
"=.=.=.=.=.=.=.=.=.=.=.=.=.=.=.=.=.=.=.=.=.=.e 8 : : : : 2 1   =.=.=.=.=.=.=.=.=.=.=.=.=.=.=.=.=.4 V S L ~ ^ ^ 4 =.=.=.=.=.=.=.=.",
"=.=.=.=.=.=.=.=.=.=.=.=.=.=.=.=.=.=.=.=.=.e 8 : : : : : #   =.=.=.=.=.=.=.=.=.=.=.=.=.=.=.=.=.=.4 C K R ^ ^ ^ 4 =.=.=.=.=.=.=.=.",
"=.=.=.=.=.=.=.=.=.=.=.=.=.=.=.=.=.=.=.=.r w 2 : : : : #   =.=.=.=.=.=.=.=.=.=.=.=.=.=.=.=.=.=.=.4 S I W ^ ^ ^ 4 =.=.=.=.=.=.=.=.",
"=.=.=.=.=.=.=.=.=.=.=.=.=.=.=.=.=.=.=.r w 0 0 2 : : #   =.=.=.=.=.=.=.=.=.=.=.=.=.=.=.=.=.=.=.=.4 R E ~ ^ ^ ^ 4 =.=.=.=.=.=.=.=.",
"=.=.=.=.=.=.=.=.=.=.=.=.=.=.=.=.=.=.e w 0 0 0 0 2 #   =.=.=.=.=.=.=.=.=.=.=.=.=.=.=.=.=.=.=.=.=.4 / ' { ] [ ^ 4 =.=.=.=.=.=.=.=.",
"=.=.=.=.=.=.=.=.=.=.=.=.=.=.=.=.=.e 8 2 0 0 0 0 1   =.=.=.=.=.=.=.=.=.=.=.=.=.=.=.=.=.=.=.=.=.=.=.4 X.O.o.| ( 4 =.=.=.=.=.=.=.=.",
"=.=.=.=.=.=.=.=.=.=.=.=.=.=.=.=.e 8 : : 2 0 0 1   =.=.=.=.=.=.=.=.=.=.=.=.=.=.=.=.=.=.=.=.=.=.=.=.4 &.%.o..._ 4 =.=.=.=.=.=.=.=.",
"=.=.=.=.=.=.=.=.=.=.=.=.=.=.=.e 8 : : : : 2 1   =.=.=.=.=.=.=.=.=.=.=.=.=.=.=.=.=.=.=.=.=.=.=.=.=.=.4 %.@.+.O.4 =.=.=.=.=.=.=.=.",
"=.=.=.=.=.=.=.=.=.=.=.=.=.=.e 8 : : : : : #   =.=.=.=.=.=.=.=.=.=.=.=.=.=.=.=.=.=.=.=.=.=.=.=.=.=.=.=.4 *.*.*.4 =.=.=.=.=.=.=.=.",
"=.=.=.=.=.=.=.=.=.=.=.=.=.e 8 : : : : : #   =.=.=.=.=.=.=.=.=.=.=.=.=.=.=.=.=.=.=.=.=.=.=.=.=.=.=.=.=.=.4 *.*.4 =.=.=.=.=.=.=.=.",
"=.=.=.=.=.=.=.=.=.=.=.=.r w 2 : : : : #   =.=.=.=.=.=.=.=.=.=.=.=.=.=.=.=.=.=.=.=.=.=.=.=.=.=.=.=.=.=.=.=.4 *.4 =.=.=.=.=.=.=.=.",
"=.=.=.=.=.=.=.=.=.=.=.r w 0 0 2 : : #   =.=.=.=.=.=.=.=.=.=.=.=.=.=.=.=.=.=.=.=.=.=.=.=.=.=.=.=.=.=.=.=.=.=.4 =.=.=.=.=.=.=.=.=.",
"=.=.=.=.=.=.=.=.=.=.r w 0 0 0 0 2 #   =.=.=.=.=.=.=.=.=.=.=.=.=.=.=.=.=.=.=.=.=.=.=.=.=.=.=.=.=.=.=.=.=.=.=.=.=.=.=.=.=.=.=.=.=.",
"=.=.=.=.=.=.=.=.=.r w 0 0 0 0 0 1   =.=.=.=.=.=.=.=.=.=.=.=.=.=.=.=.=.=.=.=.=.=.=.=.=.=.=.=.=.=.=.=.=.=.=.=.=.=.=.=.=.=.=.=.=.=.",
"=.=.=.=.=.=.=.=.r w 0 0 0 0 0 1   =.=.=.=.=.=.=.=.=.=.=.=.=.=.=.=.=.=.=.=.=.=.=.=.=.=.=.=.=.=.=.=.=.=.=.=.=.=.=.=.=.=.=.=.=.=.=.",
"=.=.=.=.=.=.=.e w 0 0 0 0 0 1   =.=.=.=.=.=.=.=.=.=.=.=.=.=.=.=.=.=.=.=.=.=.=.=.=.=.=.=.=.=.=.=.=.=.=.=.=.=.=.=.=.=.=.=.=.=.=.=.",
"=.=.=.=.=.=.e 8 : 0 0 0 0 1   =.=.=.=.=.=.=.=.=.=.=.=.=.=.=.=.=.=.=.=.=.=.=.=.=.=.=.=.=.=.=.=.=.=.=.=.=.=.=.=.=.=.=.=.=.=.=.=.=.",
"=.=.=.=.=.q 8 : : : 0 0 1   =.=.=.=.=.=.=.=.=.=.=.=.=.=.=.=.=.=.=.=.=.=.=.=.=.=.=.=.=.=.=.=.=.=.=.=.=.=.=.=.=.=.=.=.=.=.=.=.=.=.",
"=.=.=.=.3 8 : : : : : 1   =.=.=.=.=.=.=.=.=.=.=.=.=.=.=.=.=.=.=.=.=.=.=.=.=.=.=.=.=.=.=.=.=.=.=.=.=.=.=.=.=.=.=.=.=.=.=.=.=.=.=.",
"=.=.=.=.< - : : : : #   =.=.=.=.=.=.=.=.=.=.=.=.=.=.=.=.=.=.=.=.=.=.=.=.=.=.=.=.=.=.=.=.=.=.=.=.=.=.=.=.=.=.=.=.=.=.=.=.=.=.=.=.",
"=.=.=.=.=.$ - : : #   =.=.=.=.=.=.=.=.=.=.=.=.=.=.=.=.=.=.=.=.=.=.=.=.=.=.=.=.=.=.=.=.=.=.=.=.=.=.=.=.=.=.=.=.=.=.=.=.=.=.=.=.=.",
"=.=.=.=.=.=.  # #   =.=.=.=.=.=.=.=.=.=.=.=.=.=.=.=.=.=.=.=.=.=.=.=.=.=.=.=.=.=.=.=.=.=.=.=.=.=.=.=.=.=.=.=.=.=.=.=.=.=.=.=.=.=.",
"=.=.=.=.=.=.=.    =.=.=.=.=.=.=.=.=.=.=.=.=.=.=.=.=.=.=.=.=.=.=.=.=.=.=.=.=.=.=.=.=.=.=.=.=.=.=.=.=.=.=.=.=.=.=.=.=.=.=.=.=.=.=.",
"=.=.=.=.=.=.=.=.=.=.=.=.=.=.=.=.=.=.=.=.=.=.=.=.=.=.=.=.=.=.=.=.=.=.=.=.=.=.=.=.=.=.=.=.=.=.=.=.=.=.=.=.=.=.=.=.=.=.=.=.=.=.=.=.",
"=.=.=.=.=.=.=.=.=.=.=.=.=.=.=.=.=.=.=.=.=.=.=.=.=.=.=.=.=.=.=.=.=.=.=.=.=.=.=.=.=.=.=.=.=.=.=.=.=.=.=.=.=.=.=.=.=.=.=.=.=.=.=.=.",
"=.=.=.=.=.=.=.=.=.=.=.=.=.=.=.=.=.=.=.=.=.=.=.=.=.=.=.=.=.=.=.=.=.=.=.=.=.=.=.=.=.=.=.=.=.=.=.=.=.=.=.=.=.=.=.=.=.=.=.=.=.=.=.=.",
"=.=.=.=.=.=.=.=.=.=.=.=.=.=.=.=.=.=.=.=.=.=.=.=.=.=.=.=.=.=.=.=.=.=.=.=.=.=.=.=.=.=.=.=.=.=.=.=.=.=.=.=.=.=.=.=.=.=.=.=.=.=.=.=.",
"=.=.=.=.=.=.=.=.=.=.=.=.=.=.=.=.=.=.=.=.=.=.=.=.=.=.=.=.=.=.=.=.=.=.=.=.=.=.=.=.=.=.=.=.=.=.=.=.=.=.=.=.=.=.=.=.=.=.=.=.=.=.=.=.",
"=.=.=.=.=.=.=.=.=.=.=.=.=.=.=.=.=.=.=.=.=.=.=.=.=.=.=.=.=.=.=.=.=.=.=.=.=.=.=.=.=.=.=.=.=.=.=.=.=.=.=.=.=.=.=.=.=.=.=.=.=.=.=.=.",
"=.=.=.=.=.=.=.=.=.=.=.=.=.=.=.=.=.=.=.=.=.=.=.=.=.=.=.=.=.=.=.=.=.=.=.=.=.=.=.=.=.=.=.=.=.=.=.=.=.=.=.=.=.=.=.=.=.=.=.=.=.=.=.=."
};
