/* XPM */
static char *xpm_[] = {
/* columns rows colors chars-per-pixel */
"32 32 58 1 ",
"  c #181818",
". c #1B1B1B",
"X c #271E0C",
"o c #281E0B",
"O c #3B2C11",
"+ c #3C2D11",
"@ c #2D2D2D",
"# c gray19",
"$ c #353535",
"% c #473515",
"& c #493615",
"* c #493717",
"= c #564019",
"- c #59431A",
"; c #5A431A",
": c #5B441A",
"> c #5C451A",
", c #61481C",
"< c #62491C",
"1 c #634A1D",
"2 c #684E1E",
"3 c #694F1E",
"4 c #6C511F",
"5 c #715520",
"6 c #725621",
"7 c #735621",
"8 c #795B23",
"9 c #7A5B23",
"0 c #7A5C23",
"q c #7B5C23",
"w c #444444",
"e c gray34",
"r c #646464",
"t c #6F6F6F",
"y c #717171",
"u c #896727",
"i c #818181",
"p c #96938E",
"a c #909090",
"s c #9F9A91",
"d c #BEB39E",
"f c gray63",
"g c #AEAEAE",
"h c #B9B8B7",
"j c #BBBAB7",
"k c gray73",
"l c gray74",
"z c #C1C1C1",
"x c gray76",
"c c #C3C3C3",
"v c #C8C8C8",
"b c #D2D2D2",
"n c LightGray",
"m c #D8D8D8",
"M c #E1E1E1",
"N c #EFEFEF",
"B c #F1F1F1",
"V c None",
/* pixels */
"VVVVVVVVVVVVVVVVVVVVVVVVVVVVVVVV",
"VVVVVVVVVVVVVVVVVVVVVVVVVVVVVVVV",
"VVVVVVVVVVVVVVVVVVVVVVVVVVVVVVVV",
"VVVVVVVVVVVVVVVwwwVVVVVVVVVVVVVV",
"VVVVVVVVVVVwwwwwwwwwwVVVVVVVVVVV",
"VVVVVVVVVwwwivBmmmcewwV&&&VVVVVV",
"VVVVVVVVww  $tgmmmmmfw&&=+XVVVVV",
"VVVVVVVVVVV     @lmmmj&0u+XVVVVV",
"VVVVVVVVVVVVVVV    bccbu7ooVVVVV",
"VVVVVVVVVVVVVVVVV  %snmboXVVVVVV",
"VVVVVVVVVVVVVVVVVV&&8dncj  VVVVV",
"VVVVVVVVVVVVVVVVV*&,77pcma  VVVV",
"VVVVVVVVVVVVVVVV&&,3:oXnmm# VVVV",
"VVVVVVVVVVVVVVV&&qu:oo  mml VVVV",
"VVVVVVVVVVVVVV&&qu7XoV  kmm  VVV",
"VVVVVVVVVVVVV&&,35XXVVV @mm  VVV",
"VVVVVVVVVVVV&&83,ooVVVV  mM  VVV",
"VVVVVVVVVVV&&qu8XoVVVVVV gN VVVV",
"VVVVVVVVVV&&,47XoVVVVVVV yk VVVV",
"VVVVVVVVV&&,3-ooVVVVVVVV $r VVVV",
"VVVVVVVV&&qu-ooVVVVVVVVV    VVVV",
"VVVVVVV&&qu7ooVVVVVVVVVVV  VVVVV",
"VVVVVV&&,q7XoVVVVVVVVVVVV  VVVVV",
"VVVVV&&,3>XXVVVVVVVVVVVVV VVVVVV",
"VVVV&&qu-ooVVVVVVVVVVVVVVVVVVVVV",
"VVV&&qu7ooVVVVVVVVVVVVVVVVVVVVVV",
"VVV&qu7XoVVVVVVVVVVVVVVVVVVVVVVV",
"VVV&&5XXVVVVVVVVVVVVVVVVVVVVVVVV",
"VVVVXooVVVVVVVVVVVVVVVVVVVVVVVVV",
"VVVVVVVVVVVVVVVVVVVVVVVVVVVVVVVV",
"VVVVVVVVVVVVVVVVVVVVVVVVVVVVVVVV",
"VVVVVVVVVVVVVVVVVVVVVVVVVVVVVVVV"
};
