/* XPM */
static char *xpm_[] = {
/* columns rows colors chars-per-pixel */
"32 32 51 1 ",
"  c #1A1916",
". c #181818",
"X c #191918",
"o c #281E0B",
"O c #2A200C",
"+ c #2D220D",
"@ c #2F230D",
"# c #493615",
"$ c #423318",
"% c #433E35",
"& c #59431A",
"* c #5B441B",
"= c #684E1E",
"- c #765822",
"; c #7A5C23",
": c #7C5D23",
"> c #7F6025",
", c #444444",
"< c gray30",
"1 c #5F5541",
"2 c #5A5A5A",
"3 c #646464",
"4 c DimGray",
"5 c #6D6D6D",
"6 c gray44",
"7 c gray46",
"8 c #7C7974",
"9 c #826225",
"0 c #886627",
"q c #896727",
"w c #877758",
"e c #929291",
"r c gray59",
"t c #ACA59A",
"y c #A2A2A2",
"u c #A4A4A4",
"i c #B6B6B6",
"p c #BCBCBC",
"a c gray",
"s c #C0C0C0",
"d c #C1C1C1",
"f c #C5C5C5",
"g c #C6C6C6",
"h c #CACACA",
"j c #CECECE",
"k c #D0D0D0",
"l c #D8D8D8",
"z c gray96",
"x c #FEFEFE",
"c c white",
"v c None",
/* pixels */
"vvvvvvvvvvvvvvvvvvvvvvvvvvvvvvvv",
"vvvvvvvvvvvvvvvvvvvvvvvvvvvvvvvv",
"vvvvvvvvvvvvvvvvvvvvvvvvvvvvvvvv",
"vvvvvvvvvvvvvvvvvv,,,,vvvvvvvvvv",
"vvvvvvvvvvvvvvvv,,6pk3,vvvvvvvvv",
"vvvvvvvvvvvvvvv,,yccc<,vvvvvvvvv",
"vvvvvvvvvvvvvv,rcchjl<,vvvvvvvvv",
"vvvvvvvvvvvvv,,czdddd4,vvvvvvvvv",
"vvvvvvvvvvvvv,ycddddde##vvvvvvvv",
"vvvvvvvvvvvv,6cgdddddr#*+vvvvvvv",
"vvvvvvvvvvvv,pcgddddrrw=Ovvvvvvv",
"vvvvvvvvvvvv,kclddprrdd$ovvvvvvv",
"vvvvvvvvvvvv,7227irrddur%..vvvvv",
"vvvvvvvvvvvvv,...##tdurudp.vvvvv",
"vvvvvvvvvvvvvvvv##*=1ruddd.vvvvv",
"vvvvvvvvvvvvvvv##*=*o8dddd.vvvvv",
"vvvvvvvvvvvvvv##;0&o .5555.vvvvv",
"vvvvvvvvvvvvv##;0;oov......vvvvv",
"vvvvvvvvvvvv##&9;oovvvvvvvvvvvvv",
"vvvvvvvvvvv##&=&oovvvvvvvvvvvvvv",
"vvvvvvvvvv##&=&oovvvvvvvvvvvvvvv",
"vvvvvvvvv##;-&oovvvvvvvvvvvvvvvv",
"vvvvvvvv##;0;oovvvvvvvvvvvvvvvvv",
"vvvvvvv##;0;oovvvvvvvvvvvvvvvvvv",
"vvvvvv##&=;oovvvvvvvvvvvvvvvvvvv",
"vvvvv##9=&oovvvvvvvvvvvvvvvvvvvv",
"vvvv##;0>oovvvvvvvvvvvvvvvvvvvvv",
"vvvv#:0;oovvvvvvvvvvvvvvvvvvvvvv",
"vvvv#@:oovvvvvvvvvvvvvvvvvvvvvvv",
"vvvvvooovvvvvvvvvvvvvvvvvvvvvvvv",
"vvvvvvvvvvvvvvvvvvvvvvvvvvvvvvvv",
"vvvvvvvvvvvvvvvvvvvvvvvvvvvvvvvv"
};
