/* XPM */
static char *_e081590c049495486fc3b46050fc5a0Qje5P9mo2jCb0E3p[] = {
/* columns rows colors chars-per-pixel */
"32 32 11 1 ",
"  c None",
". c #330D0E",
"X c #401E0C",
"o c #47210E",
"O c #582D10",
"+ c #693B14",
"@ c #824F1B",
"# c #8E5D22",
"$ c #3CA92E",
"% c #93CF3B",
"& c #D2F64C",
/* pixels */
"                                ",
"                                ",
"                                ",
"                                ",
"           oooooXXXXX           ",
"        ooo@@@@@@@@@@XXX        ",
"      oo@@@@@@@@@@@@@@@@XX      ",
"     o@@@@@oo$$$$oooo@@@@@X     ",
"    o@@@@ooo$&&&&$ooooo@@@@.    ",
"   o@@@ooooo$&%%&$$oooooo@@@.   ",
"   o@@ooo$$$&%%%%&%%%%%ooo@@.   ",
"  o@@@o$%&&&&&&&&&&&&&&%$o@@@.  ",
"  o@@o$%&&&%%&&&&&$$$$&&%$o@@.  ",
"  o@@o%%&&&&&&&%%$&&&&$&&%o#@.  ",
"  o@@o%%&&&$$$%%$$&%%&$%&%o##.  ",
"  o@@+%%%%$&&&$&&&%%%%&&&%+##.  ",
"  o+@+$%%$$&%&$%&&&&&&&&%$+#X.  ",
"  o+@+$$%%&%%%&&&&&%%&&&$$+#X.  ",
"  o++@+$$$&&&%%&&&&&%%%%$+#XX.  ",
"  o++@@+$$$%%%%%%%%%%&&$+##XX.  ",
"   o++@@++$$$%%&&%$$%&%+##XX.   ",
"   o++++@@++++&&&+++$%+#XXXX.   ",
"    o+++++@%&+&&%+##++OXXXX.    ",
"    o++++++%%O%%XOOOOOOXXXX.    ",
"     o+++++XXOXXOOOOOOXXXX.     ",
"      X++++OO%OOOOOOOOXXX.      ",
"       XX+++OXOOOOOOOXX..       ",
"         XXX++OOOOOO...         ",
"            ........            ",
"                                ",
"                                ",
"                                "
};
