/* XPM */
static char *dc2088b187c04efabd1d2f45e61443b5ys8h3MMOXoGIGHCU[] = {
/* columns rows colors chars-per-pixel */
"128 128 49 1 ",
"  c #0E0000",
". c #100000",
"X c #160000",
"o c #1B0000",
"O c #1C0000",
"+ c #230000",
"@ c #240000",
"# c #2B0000",
"$ c #2E0000",
"% c #320000",
"& c #350000",
"* c #380000",
"= c #3F0000",
"- c #410000",
"; c #460000",
": c #490000",
"> c #4F0000",
", c #530000",
"< c #550000",
"1 c #5B0000",
"2 c #5E0000",
"3 c #600000",
"4 c #660000",
"5 c #6A0000",
"6 c #6E0000",
"7 c #700000",
"8 c #760000",
"9 c #7A0000",
"0 c #7E0000",
"q c #800000",
"w c #850000",
"e c #880000",
"r c #8D0000",
"t c #910000",
"y c #970000",
"u c #9A0000",
"i c #9D0000",
"p c #A00000",
"a c #A50000",
"s c #AA0000",
"d c #AD0000",
"f c #B20000",
"g c #B50000",
"h c #B80000",
"j c #BD0000",
"k c #C00000",
"l c #C70000",
"z c #C80000",
"x c #CF0000",
/* pixels */
"21444332<11><<<<,>;@%:1,<<<,::,12<1<<33;;1<,>::13,;%&%%%*,<<,<,<>:>>::----;,<:,<::-&%*>:21<>:>:>>,<,<<>,>=%#%=:<<1<>::--:>,<1232",
",3666312,,<>,1<2<;-$%;:<<,<>;;:,211113>-;:>,<,:24-;*%%%%-<<<><,,,>,,::;---:,>><2>:;%$*>:<2<,>;::,2<<<:>;:&#@&:<111<:;;;;->,<22<,",
":3454221,,,,<1131>*$*,:,<1>;-,,>12<,>;:-;>,<12<,1*=&%$&&<<,<<<<,1,,>>:;--;;>:,12:;=$@$:::<>>>;:>,<<1>-*%&$@$-,>>,,1<<;:>:>,1331>",
"-::1231,<,,><1<32:*%><>:<,>><12123112<:::,<1222&&$=%$#$&>;*;;,<>,,<,,>:;::>:>,,1;**##$,;<<,>>:>>,,,,:=&%+#*=:>>1<,>12:>,>>>132<-",
"-:;>12><<,>,<1221:*&->;;:,,<<232332231>:><112,=$*#%@+###%&$%*>;=:11<,,>>>>,,:>>,;=*#%,,,::,,>::>,>>>>-%#@&=:;1,<<>><2><<>><,<;;-",
">,:;,<>>2,>,<22<2>%&,,>:>,<1<222,:,<<>>,<123:>-#$@+##$$###@##*-=,21<>,,>;:><<,---=%+$1<,>:,:::,::>:;:-%#*-;-:2<,,><14,<<>><>-;-*",
"<>;=:>><2,>>11,:2:$$11,,,:<4221>,>>,<<<1,23<;>%###&&**%%%$@@O@%&->1>1,>:--;:1,--=&+#&1<,:<,>:>,;-;=-=*$%=-=::2,>,><34>,><21,:;=*",
"<;==;,<22,1>,1<->;$+,<<<<1,<,<3:,>>,,>1<<,:;$#+#$&*-=-=&*$$+@O%+=>-,<>,>--;;<,;=%#+%*<<>>1>:;,:;#&%&&@O%=;:->1>,>,<441><443,;:;>",
",:-;>,,1<,,;;;2-=%ooO=>1<>,;>,4:,:><:>121:;%o+@$%*-:;::;-%%#++$O=>-1<<<,;;--11:;&#$-*,:;->:;>>,=$$%$$@O#&:;=:<>1<4455413664>;>,:",
"2:-::>,<:-;;-=:O@+++@+*<,:>--,4>,;,,,1133<-oO#$%=;>,,,<<;-=&+O#$&-:11<<,;;-;11>=$#&*><;-=;:;,>;$$$%%$+++$*:::;<<54555534653;-;<<",
"1::;::>,---;=#O+@$#@#@#-,:>--<3;>:,,<12331&o#%$-:<122223<--$@Oo%*;1311;-;;;:,;-&+#&;1<>;*;;;,;*@%%%&#+@@o$-2133175554535642:;,>,",
">::>:>><:;:=#o$-=&%@$$@*,::;-<3;>:,,11123*#+&&;,<34556562>;*#@o@%=,42;;;-;:>>%+. $%=:::-=,>2:&%#*%&&#@#$@#=1,2<263444645351>:<21",
"<>;:>,<13<>%@#:::;*$%%#*:;>,:<,>>><,,,><,%O%=:,3223378892>>-%#++.=;2,,:-;;-*$@+XX#%*=:;=:,>2:&&%-;-&##$$+.;1,3165345365543,>>345",
"<;:,<<1,<-=%&:,:>=&&**$=>,,>:>:>:,,<><<<-#+%:<26457560w851<>&&@o%*=,<1,-;-$OO#O@@@$==::;>;,3<*%%-:-*$$$$#X<>13165233224453321233",
":>::1212;**@:3<:>=&#;=%=,,,<,>:::<<<>,:-$.$*<34977870ru9743>;*$O&*=,,<<$#@oO@#$*&%O#&-:;<;:1-=##;>-*$%%$#&<:<34532342576452<,11,",
";>:><213,&@$3<<>,;*#&:&*:,>,:<>,,<1:,>:&@.$=26509009qruq9743,-&@#**,-=*.X+#*-;::,=#oX@%%-:=*;-@#=>:=%%%##*<>1<5533345656654423,:",
";::><223,&$>2<,><:=$&>*&>><<><,<,,1:>>-$Xo=:34500qryuifyw086<-*%o%*>&&$o+%=::>:,1-*$OX. &;-*1=#+%=;;&&&@#->,,>36,<25554664444:<<",
":;:,<231;=-45,,,:;-%&;-%>,,<><<<,,1>>:*@oO-<36690eu96569re962>-=@#-,**#+#&;,<2>22>-&$+X %=:=1>@O#$$===&@%,:>,>,3,,42234555646:12",
";;:,1<31>>%674<>:-&$%=-#,>><,<<<>><>==%++#><2746051,>133579851,;&@=-=*#@%*;<485522>*&#O.#=;&<-@o@@O%=-%+:<>,1>>41>,1112332355,<>",
";;,,,>,<@>*7941,:-%@$*:%::=<,<,,-><1:&@o#*,13857wy9870wqqww07441-O-*=*++=&:158we842,=%$o+=-*-==$*%$$&=O=22,<<,;>3>><1,<11<2561<>",
";>::>111,-=9853<:=&**>1**-=,><,,>,<1,#X+%=,34677ertwq0weetrrw863:@&=*@+@-*,250wye753<-&#X$:=;%O$&**$#=@*122<,>:>54<>,:,141<26<<>",
",>><<<14,&,q864<:=&=-:>-&-;:<<:2<,<,ooO$=;><540weritwerttasuw884:$*-&+#&>:<369eyiq872>-%+#%&%#&%=-;*%-&+=32311<,,5>-::>131,<12<<",
",><11<11;%3w9792>-:,,:1$*;;-:::<1>>:O@@=:<,><4qeeteurryufauyt096<=$&%#&$><1469etsrw862,==$OO#=;;:<,;=*&@%343><<,,>--;;><,<<3<331",
"12,<<<12#,qqq086<,122<;&%=;-;:;;1<&&#&=:<22<6690ryrtiuphspuree071,=@@%=->>2680etpuewq9541:=*;>12>,3:-&=$$,11*<<:,;;-<:>455124212",
"1>,<<,<1#4w8qw83,24455<+$-2:;>::>>&@*=-,24466689yiytpsfapiuutew763:*$=;;:<3680weipeeew07432144452121:;*=$%;>O-;1<,:<2<,565214<>2",
":><<,<<<&5rqwq82246577>#,801><322->#%;:1344666qtiiuuddaaiyuyyqe873,;*---:1467qeeugyqerw97665667778,3,>===O&-o:221>,11<,551133,;:",
":,<>1<,,-6ew9088679970*%9rq3<,223&---;,2445699wuppdfaspiyyuuyr8q62,:*==:,2568qqwtauyq0t909987888074143<>1%o&o+32<<,<1>,<,><<2>--",
";:,<,1<:;8tww8857epyw4-*ru05>,<1<%&::->256868<9psfssasauytuutr7653<;**=,<4689qwwyiauewy99qq0q090w77576226,o=O>33<>,1,,,<<:,1<;--",
";>,<21<-:8tww65339wrt5;,ru96:->-*$===;>2598qt>9raaapasgppiuyeq8742<;&=;115780qtryugiitu6<yewrerr9qw098757,%%&=:2<<<<,><,<>>2>;--",
",:,<2<,&-7uaw766<60w7y:,qu86-*&%$$&-:121290wi:0iaiyypsjsiiutw96763,=&-,36869qtuyuissiit5-qayyuii0sitw07083>O%o$*;:,,21,<1<,2::>>",
",>,<2:,-$<qt096422799e<<rr74*$##%*;,,<346wreu:qupuyutidputtew89852>*&-,2570e0yiyupdksgt0&3afadddi0tgdte005<=#@OOX$%=1<2,2<<,>,,,",
":,<<1><<;+<457094:257q71e063&@@$=:<334448rryq,rqtuyrtyapttww99084<;%=:<45989reuuuidzjpt0*,dfssfit07eufyew031;*&&+X@#111,<2,<<<>>",
",,>,<1,,>=&>56683>*><605qe62-%%-12335535euuaq287qrreerydrtrw00743,=%;,367789teryrysjkpr0->ufsdiyr916wtsyre062,>>=+o@><::;-,><<,>",
",>>,,<,>>-#;5445<<*:295<8r5<-==146638667uask04336qew0wrstewqq742:=&%:1366wwwurettyahhprw:;7ighyt863<69qspye754<3>=&+$*;==&:21<>>",
",>:><<>><;$<5342;--357<-,23222136874670wwafa9q03258880wtiewq3441>*&&>2<20eyyiuetiysjhdu01>6ijsie674:<470yppu97553<;=%+#%%*,2211<",
"><::,<12<=$,341>:1<6r2:*$;52085688656qew0tfuyur78971368qat853764,=*=<479wryuppyuaafkhaue3>6sduyq994<:18wq9qwty74741>==&O@%-<12<1",
",>>:<<12;,&<21:>23562;*&%>:=<5w09680qttte0dyaaywwew74339ee864775>*=*<479weuiaspdggjlhsit4;6gstwwq86<2498805w9euw0552,>:&#O&-<2<,",
",>>>,<<1;,&>1>>14599:-:;=11&:45r0ruuaadssfssgduweyre09908u975985>;;&>2559wryiupiadkjjfst6-6huewq085>2492<07889rrpie9651,-@@$,21<",
",>>>,,<1:-%:>><3689<<244,6>=>396qwteusadfrafdfpwttuyrtuuupr960071>&&:<280wwryurisgslxfir6*5jyuut093:3961<4555qw9eyusy091;&$+;131",
"<,>>,<1<>,#&;,,1342265566q2>%167wrqqeiasueyydhpruyuiutiiiyyr7q083:&*;<3879etyipiaakkkkpt8=4huspte83<505<<142279q8qutgr05<-$@&,11",
"1<,,,<1,;-#=>:45558997806971;*<68q7q7yiytwqeragaaiuapyrtirrrq6531;%=:,4479wtipaduakjhkdy0;3gdtiye5113532<,<>250326qwir07<>&#@>11",
"11<,<1><<=%;1464580qtwe07751>&*2687q8eewq00wwralgdppyepsiqwee6531:%=><2569wwypadgkhhghzaw,2jrw8t76<1643>=>-:47te7655q0981,-%@o11",
"211<12><#&*,335579wryyrq846121%*1580r7q00q9qqrdhxhspyugka0wee7754>&->226800qyypdkgfgadgly44ye0e593<1631;%;,>59er07q936675<;&O$,,",
"<<<<<2<$&=%,22489weeeprw81q32<&#:4698789we88wsffjxkdiukhs0wee87661*;,2529q7rrryhaiiuiudgd95fwwr842>>21,;*;1<49wydi9wq72432,*O%->",
"1,,,221@&-><>1380q09eerw04w631=&%56735576wrtuasdgjxlgilfteutw76763;;<279798weriirrryueipdr4pwe8396-5,>;-<>3546rwiht9rq6<<<1=@%->",
"1,,,23<+=:<,,45857wtfurw0849631,%29311159qryippadhlxzkiteuytw78853:>36855478wrq54657779wrf5uyt8485-<2:=><65799qyika09q52<<,=X%:,",
"<->>>1,#&>>>16769wryptwe09349973;<1><,,49qetttyiadhkxxdiiautq78841;:1503<258qepp09765213344tqt76142<>=*<470898rypjir79742,>%.%:,",
"-;;--*%$*;,13688qetifaeeq8857ee82>&&-:>689ww9qtuisfjlljgaautq89731;;<5r2:3510wuisauyteqrtdtuit84524:;&*;347000qyidyw848631;# #-;",
"&;-$@O#%;1345780qryygdrtqwq836qt61:%@-,<3779wweruisfkxkhspie089742>:17q2:<,698tyeglddadkdfruqrw92,2<-*-;,49677qrjzhaq74522,$ +$*",
"##++@%*;14778879weupldryerw04258r6<=#@-:2668000rtyisfzkhdppr978842236773,<3846wpredkjjfpare76eq8332>*;>::66766qskdsaiw83351;#@@#",
"Oo@$-:<146890009wtuplaaprrq95,248e2>*#@*134789qryyupdkxkgspue986433><27,==-199wuiwuhhfsuuqqrt965>21>=>1236578rphiuiurw086443:%#+",
"-=-<<1556799qww8qttpjdayte973<<34691;-=%;>2678qtyyypggkzshtit0964341:<53--1450qrisdhgiiuyqw760631>;-:14449qww9yatttew08863:,;-:&",
"5114348746749rtwrwysfapyyq0972:133472,::=->488qwryupfgjajsyiye085312>>33>:2566wetpshfuyytq013382>-&%:28q0q8977eireqq099864,=:1<1",
"877649q969900eyiiiajdpuiereq94>>1124854,=*<2880qetsaddyafkdpuye07344>:-12&:5775qryusaitrwq023215>;**,422786550wueq80087652>>4614",
"08990e09qweeqeyqpdhlspiyyttw42>>,,,7505<-%>2790qtppwaafytszswiuw878541%;3=>6754rqtyasurw0883<<:>>;&;1,;:4344490yq9778642<>216736",
"9wrrrew0wuyytwyuafkjspuqeqr652-;:-,54781:*:1689wiuytiuueetlgapyeew985:&&>>:48760teraayeq9874,%;4<-&&*&-=->15588r9764431,:1350569",
"0eurrrrq0uyiipiudzxjsyewqeq984,*-*>4<604<;*<589wqertreetqqslfaurwe02<>-%&:-<88060erppyeqq85<&,181*%@@$=;:>,1328e76321,;;2689q39q",
"wettttytyryrtiafzlzfuiiiueqq94,=&=>355r63<=,570066qwqqqriuuazgsywr5421,;%$$-1789wwripurw971==277,**&#%=:,<17,48w541>;*-<47006600",
"y0yuiiuuippasskfkjkguipiue9093>=%;<375e752>;11414749q0etyiasfzfapt75441<-#@$-270q0ratwtw84>;25q421<-&%=;,<<38,3q31>=&;,379qe579r",
"7qiifaapasdhzgsdkhlhiaiyte0973<&$:38r400641>>1,2<3<<09qretuipdgaw0765431:=%@->589qrgw8ew84<4574>5671-**:,<430416<;*=:<380eq46467",
"9ypshfifhzxxkjagjgkkapiurw7233>*%:48y2qw9641&;>1<<<,770wqetyyyjd0q8766422,:%%=157wtfw6763>15591<6wq4>-=*<3379q61<,1<139wu8277567",
"0tadjspffkxzljgdhhglfiuee96873<-&>36e70tq87:-*%:,<<<3688780wwwileq9986542<,=@%,38wyiq732<=->2,*35r764,;%>144qu83356658uw51876779",
"qeiudrw8udjlkhsadffjhpye080963>*&>26874sq95<,:&&=:><>576576890wikiwe0076464;#$:17wru973<;%*;:-168wt763>>;,440u067789wr8<:4767990",
"reyhaesyuishghsdsdfglitrw0061>*&=,357e>0iq64<>;$@$=;:3457666690esgqeewq9675>%+=,38we841>&@%#&2,30ea96621;,2479y000qi073<245670qw",
"uahjhgfyduygfgffsupfhauee88851=*-1175s734e056,>:&O#&=,134445599qyjuyuuw9974,=+$-16qr62,=%#&:13570rfeqr85,:<446sytptq86<789778qrt",
"phklkkgissphgfdfduidsyt9w98842;&;<467qy8<>2411>:=#O#$=>123225909wsfjutww486<:&$%:49061,,-&-:1559qwirw8371>1260ukhpe9734qwq09qiiy",
"slkjggjpassgsyrapryuue8rr85641-$;>1599qw5<>>>,>::-##+%-:<1116997qsfkldsu0862,1;$-1273,>>-,:,2468qtty085941558ay0upr87,5qrteqysdg",
"jkjhhhjppssdprwpprttywq8rq543,=%->370rgy63422551<<=&%*-;,<<256880aipsjfi97735<<&*=,5>=-=,24<242qtus09re02380ayr0err95160etrwyffp",
"jjjhjhauuittypwrwwtwyeew8q62,;%%-<470epaq076876354<=*=@&-2578757wytuuiag07796<:=$=>:=$%-1566569rresfpat934egq0090q09447rttuufgsa",
"hhhhgyituityusaiettwttew5984>=#*-248qrukiu089686872,,>&@*><35668tertte6wir0w42<<;-=&&&-:157889eyypahf5t048gr5666387437qytifzjhhh",
"sfghdertuiiadayyiyteryew8454;$=:>158qtifaiuy9797983442-&#%-,246qeqew05578yuyq86521%%&<,467708qyuaaskw6rw6s053234355124690idhhhps",
"isggrwrtiiyaapryaiiywqq554421*::<3678etifaai0009083077<;*+$*148ty8973466598054<:=$&;;254670080yipaft29pet775<,11221>2458waissaai",
"uigutyiduiyaapruitytq853323,<:,<45580ryigfsiet09yeqq0963-%+$-,787q6<1355367642>=%$=>245379q8w9yppsle;rie64,>,:,>,>;,1770reujdgff",
"tpgiyadsuuyuuuyttyuetq642:>4><<16879rwryakaptuyrytewr061<-=$*<5>2u8421<125051,--;=:5<2776wq0r0yaigp9-sa89q1,>;*;--*,<578qwpjspps",
"8wuiuadtttettuuuuiuere82,,<41::180wqteeyihaii80suyterq96<31;$=<%>w08642>,283,-:>:>5534896rwrrtisilt3>fpywq,32:;&&%&>1340qrasewet",
"60eqpaytrtreyttpptriew3<1,1>1,>30et9teetpsjapi88spryyw084751:&$@;4r78653>:21:<,:;,1355909rrtrisdaae>1fpyw06662>-$@*>2370wtgt80qw",
"796qrrysauuytpiiuttpeq22311>3217tyuiytryidaffjp75e6rye8900974>#X=27509765342233><145778wwryyypfgje7&5fiurw8872<:&@%:1478wyt0q097",
",<479qweypsaadirriie962352<;<,>2698qetyiidajlkfs820pttwwwew043&$@=>:>:><2,1,,52,269qq09eqyiiidgjs92*6siute08811;$%%-,357wrq08744",
":643789qwrrsdiqrifhu643352<;::>:159wrtuppdfgggse7793eaytree005;***;;::-*==--:-%39qrerr0qrwpsafjlp8;=8autrer9721;%*==:358e97851:-",
"1r5,2569q9qtippiiidyq84323<;=;:;;3698euiadjsfay9ih57rhjgaiury5*->,43652>;*$&*&:7qrypputwwtpsagkfy5&:wsreqq9q821==;:>><5w5221>*=;",
"5y4,-<47q70e0tihfdgtrt62<1;;&-;*:36639yuiagspetaddhdptwtteetw8:177980762,,;=#%>580wtuuiutpratpkar3#1upewew9981<->,><1<41:;:>,:23",
"0921;;2756808eruhhaytr02<<,-&**=:,56478tusfaiq9wuuputw0776774:2989q0q98513<*#%;159qryytqwupduapt0<&2ypte0q886<><1<3<343344333268",
"t9<2:>>144797wwtugdiyy81111-&%&;:,1<<58etuapuw06etpyrq08531<=>5000w0q89654<;;;=,460qqw9eqriuugt03*=3pitw909763-3331146667777660q",
"ht7233:>2235760etpjiut93322-%#%=><11<150wriite976wurw0973,-&;560rrw9968874<>;1,:1357988ewriuuky8<%>6pfte900663-,w6754556799900wy",
"fue3351>,<23546qetftq764633-&$&&->11:<2168er9w9846ew0863<;$-1860wtew888842,;,,<:335677qrwtiualu6:#<9jptw009622:-5r9084690qqqeruk",
"075352<=;,122329qtyau088443;-&&%=>>;->::216074666289852<;%-,3070qrutqr9631>,,:;:<3148qqqetipfjt6*%1wkuteq09735<=17e0wqq0qwrtpfrw",
"432<-2>&&:<<<13400ajurww04>;;=&%%--*&-%&==,<>134624641,:*=>14099rtisurw831><,>;=->37999qruwagsr6&=4pgiiyq097484=115iyewewyddrq75",
"<>:*%$;=#=><<258wtyasrw93<1<,-%$@$&%%&%+@@*%*:,4512641,:=:147qeryyidpyrw33<<<>>=-<27889ruuiagpw4&:7ahiutqqw9795-<16qufyyfyq00041",
"<>-:=*$&**-><360qwtikpq9362<,;*%#++##+O&%%$X#&<22,,542<;>36979eteepiyte0465,<32;-<,86790ruisju91*2yugfytiwwe095>><260euie99662,=",
"5331,>;&&>-><3579qetpsy9932>,-%@@@###$:<:<,>-&=;>:>431>:25790qqwwrdputwq8551:25,=:261789eetpzy7>-30euldiwqt9q096::<148uw8893:-,2",
"8763321;#-,:<13680wethte62<:;*$@@&->31<<3,<22=$=-=:21,:,4570errrrrsiq9698422=,1;=>397w090qwpkq72;:58rsgpeqyw0w96<=>,26q86953<325",
"q993442:&%-,>,1569qewtde4>:>-&%@@;-,332<<>>22:+&*&=<<>-<465qetttpsye0887821>*-::*:23qeeq0wtajue63->4wygdywu0rq971&;>16843420w869",
"qq67632,=$&;><,2680q0wgi623>*%#O@>-13111,:>12<&$&%=,,;:11555tytypkaw097604<>--;->24467re7tiafdtq0<*>6wyjiuiutw061-*;,842::50tr9w",
"rt86512,>=$&;,,<578qerrq032>&&@X*<;22,>,>,>1<==+##$--:<,26890trudzaut975673,-%*;256565ytttiagzaur51*,7tdgfspueq73,*:12>:&,6qwqss",
"suw76132<:-&&:,14680eryw05<;=%O#*231<,>;,12,>&%@#@$&==44569qteugsluyt0843<,,=#*;<241326tutypfkaeqq7<*20ugdae086741*=1,=&=1596wsl",
"ay99724231,=%=:<2589weuu04,;&@%&-;;><>::,<2<;=&++@#%-:169wwyuqwufdhay7841,>;=%&>,111<49ypipafhhaer08,:4wkdpr07563,*&>=$*->247tug",
"au999354421:%%;,11260ryy04,;$%-1;==;::::<<1211:+O+@*;<260rtyr9ypkpew999732:--=*;,14765wtasffjkzdte086>:7dfpye9563,=@%+#-<<350tya",
"dp9wqq9542;&&%;121170tue03>&O*:1:>;>;:>,,,12<<:@O@$=:<46qrtrqiaugpw80q8976<=->=&>318740wrwdghklfyrwr84<1rfpiyw762>&+XO$-1479qrtu",
"gtttw03<31>=-$-,224qttret1-+%,<211<2,,::>,11<>:@O#$=>1470ewrpsrtytqwt009561><1:%,4368qty08yghkzjsyysr9017dpute04<-$oo+%;<478wrra",
"gute876531<:;&*;<25q9we95<$;-2:322>,<:;:><,<1,;@o#$:<150ertpafupit09tr0641,124:-,249wryt90rfdhjjhfafdyye1rryrw034;$@$%&*:158qeiy",
"gwrq6544211,>=&-:<7556863*X;>3<12<>>:;::>,<11,,#o+%&->259wwyuyetdirqre8765<>153,>559wet979wpfhjlhhhdjgayw6qtew94,4,*=-:::>37qrpy",
"y0522431,,<<:-%*->646766>#.>13222,>,;>;;>,<1,,<$Xo#$=:1469wwrtfggiprti77522->1<34358qwe89q8yhjkzgfuuyyuyyeqteq72,366112111250wwu",
"t941>;-,;->>;-&%->319634*O>332,1,>;,<2>;,<11,,<:%O@#&;>1569r,;27qjsywwq665>;:,;>;>44688qww0uhggjpyyyytreeqqeq031<6633t9789e788ir",
"062,-%%@#$#**;-&->><1731%$,21,>:>>><>>:;,<<<,>2<:XO$%=>>40q9tt6;1yfprw498751;*==:234799000wugaagtrewwewwqqqq98<>167647qtq7168rup",
"03>-+%$@#$#%#@-;&=-*>>>,@*,,;<,>>>>1<,:;<,<<11<>;@X+&*>366q00ef3-9jsye468744>*=*=>25688008sdauipyr97780099q986,;,4663499516890wr",
"52=$#=>-:;&*:#o#$%--;;=-#>,>,<,,<>1121>::,<121:-:-@O$--,669rtuaq>>rspr474833<;=*=:1568789ruruaair8624898800765>;,<2312q5269080qq",
"3,#$&;,12<==,:#+@@*:-*$#&2<1<<,1<1<,33<<;:><2,;;1,%o@*;:169wrtrs7-3fur6954231:**-><4567887teuiiy%@-%-15659974<-,1<221<64800q7439",
"<& $=:,<1<:->1=oO#%$&%@+-3<,12<221,>1311,;:,,:>>::&o+*-,3589etwty4*8at9853552>==-;:,136776e7erte>-,:-&242264<;-,1233,,370q6w747w",
"%o *;><>1,>:,,-#XO@@##o+>21<11,3<1,><432,=;>>,=>::*@@&->2578w9wypr5:prq794631>-=*&>:><26777890u9;;,,>:-321<<:--><<21,12468q6662:",
"oX&>>,>>2<1>>>,$XoO++O@@:1<<<<>1>>><1432,=:>,1<<,&%#+%&:>457q9qqdw5:1r009767<<:=*=;,12,466637wr5==,,>:&13<<,;&=,,,,1212247836>=$",
"Oo->;:;<212;:>>$.Xooo %%;1,,,,:::,<11112<,>;>,,<,=$#@$$$:335769typw3*qwe08574,-%*&=;>,,,11<,770<%**,->%,1>>:=%*;:>,<1<,<157<&%@@",
"o%,:;::,,1,;;><&X... -*;41,<,,<>;,112211<<1:>><,:=X#@$%#;213679qqiw6<,q083321,=**$%&*:=:>,><,23-%&=:,2#:1::;&$%*-,>,<33355>+@&$#",
"X*,;->:<<<,,:>,=#.+@ :*<531>>><<:,<11112<1<,:>11,*.@@#%=-:;=-,0080eq9<68631>,-*$$@@@@@*=-===-;=@&*=>,4*=<,-*###&*::::>,>>;$oo@%%",
";<1<>>:,<<<1,:>;&=>=#>>1431,:>;:<112<<1211<<>>22<O.@@$$==&+&$&>357twq3<751,=*$@@@O+$#$.+@##@++@%&-<,,:+*>:=$#$%&%$@@$%%#*+&&$X:>",
":22<1<,<><<12;:,>;<,*%-323<,:;;>,455411312>:>><<1,&$+$$&&$%;%&%>65ure04143=#%=%@#O#*%&%#.X.X;,,;,>,1,*@*;=*%#$$#@%1,,<,O1223<1:<",
">31,>,>>;>,<111,1<11-$%=-:,<::<11455512351::,<<>>,>$O@#%%+=>*$+=<6ye08515=+>-,-$$@@%%=<:=*;1331,<,;<3=#*=&%$##@#*>1>,<2<<1<313><",
"<31<:>:<::><,,<11,<<<$#&=:1<1,,223355455541:,,>,1<,%o+@$#O*:=%@+*<70w076&+12,:=%%@#&%>1<,21<311<1:;23*#&*%#@@O#*11,>11<<1<,122,<",
",121:>>1:,>,<<<11,<<<%#%*;111<,1232554353351<>>><<1*@oO+Oo->;-,&%@,6962>+2111,;**##%&:<<131<<1111:<2,*+O#$@oo$&-11,1<,,,<<,,,,1>",
";<2,:>12>1<><<<<1<<<;$#%*;<1<,>>344354332131,:>:,,,&@X#%=>12<11<*O*,>1;+*2111<<>:$#&*:><12>:>,<1<><<<*+%o#+X@=>>><<2,<>,,<,,<<1>",
",<1>:1,2:3<>,>>,<21<-$$&=:<1<<:2<45465232,35>>,:><-%$@*&:32<<>>:1:$=;*#--2<111>,,;$*&;,,<,><>,,,,,,<<;<=+++X%=:;,<<2<1>:><,<<21:",
">,,1<311,21>>>><,23:=%#&*>,<,,<<<544747542171>,>;>%%$O=&>:<,>:,;3<=&*%;*:21<11,,1<*%&->,,<,>:,>>,,,,<;<:-=#$&=;--:<1<<:;>,,<1,;:",
",3<1223321>:,,,,124*&&$&*>1<<,,2<43453754426,><<>>$$$$=*-=;;:,:<21>*&>,;;,><,,<<<1;&%>,*,1>>:,:>,>>,>;,,:-%$*=-:;:>1<>::::>3,>;:",
"44443<1441<,>,<,22,&&;:,,,,<<:22143243675425:,>,,>&$###*:;;->>::1<11122<;-;>>>:><<,%$<:,<1>>>;;;,::>,><<;=$$*==-;>::,1,-;:<<,1:1",
"544431<<31<<,11133;$&<,>,1>,>,:<<1,><3674425>,><>>>;$@$,>-;-<>::>:1<<22<>-->,>:>,<-%$>:>11,:,;;;:-;>,,,;;&$$%;;:;;-:,>::2,,31155",
"5544411,,,,>>11132*@&<,,,>,,,:;1,21<><566552,,,,,>:>*$%<,>,><,>:;->>>131,;;;>>:>,;;&$;->22<>>>>;;=-:,<:&;&#$%:<<>,::>>:><4453455",
"55444221<1<:,<<<2:=%$;<>>,,>:;:>;1<12145653,<>>>1,>,=%$><<1<,,>:;-;--,332<,>;,,>,,;*$>,,12,>>,;:>=-;><:-;*&$$,<,1,,:;>:1<<113455",
"5454443213<>,<<1<=-%%->,1>>:>;><1<<<<1453,:><1><<31-=$%*=<1,,,,>:;-==:22>,21,>>>,<-&$>,,22<>>:--;-;:,,>*:*$#&><>1<<,:,>:,,<14444",
"2445553212<>,<<1<;%$&;21<,,:;:,,1<<<13141,1,>1,<<1>&=$%%*,1<>,,,>;;;;;---;<<1:,,>,=%$:,><1,>>:-;->,,><>::*&#$=<><<,>>::->>,13323"
};
