/* XPM */
static char *xpm_[] = {
/* columns rows colors chars-per-pixel */
"32 32 90 1 ",
"  c #5D1C1E",
". c #5E1D1E",
"X c #5E1D1F",
"o c #5F1E1F",
"O c #5F1E20",
"+ c #5F1F20",
"@ c #601F20",
"# c #602020",
"$ c #612021",
"% c #612121",
"& c #622222",
"* c #632222",
"= c #632322",
"- c #632323",
"; c #642423",
": c #642523",
"> c #652523",
", c #662524",
"< c #662525",
"1 c #672626",
"2 c #682626",
"3 c #682627",
"4 c #692727",
"5 c #682826",
"6 c #6B2B27",
"7 c #6C2B27",
"8 c #692728",
"9 c #6A2729",
"0 c #6A2829",
"q c #6B2829",
"w c #6C282A",
"e c #6C292A",
"r c #6C292B",
"t c #6D292B",
"y c #6B2C29",
"u c #6E2F29",
"i c #6D2E2B",
"p c #6D292C",
"a c #6E292C",
"s c #6F2A2D",
"d c #702C2E",
"f c #712D2E",
"g c #712D2F",
"h c #6F302A",
"j c #6F302D",
"k c #70312B",
"l c #73342C",
"z c #73342E",
"x c #76362E",
"c c #77392F",
"v c #742F34",
"b c #723030",
"n c #733231",
"m c #743230",
"M c #753330",
"N c #743331",
"B c #723430",
"V c #733430",
"C c #753134",
"Z c #753136",
"A c #763236",
"S c #773336",
"D c #783736",
"F c #763833",
"G c #773834",
"H c #773934",
"J c #793B30",
"K c #7D3E31",
"L c #7B3B35",
"P c #7B3E34",
"I c #7C3F34",
"U c #7E3C38",
"Y c #7D4034",
"T c #7E4034",
"R c #7E4134",
"E c #7F4234",
"W c #824435",
"Q c #844737",
"! c #854837",
"~ c #814038",
"^ c #854539",
"/ c #884A39",
"( c #894B3A",
") c #8A4B3A",
"_ c #8A4C3A",
"` c #8B4D3A",
"' c #8D4F3C",
"] c #90513D",
"[ c #945440",
"{ c None",
/* pixels */
"%;;;;;    o;; ..;;;;;;      ;;;;",
" %;;;;@  .o;; .o;;;;;o     ;;;;;",
"  ZZZ`````]]]][][]][]'))``~ZZZ;;",
"  ZDE!6 o;3;3rddda4,;;; oIWKZZ;;",
"  ZRc  %;;rdadddadada,;;o  WKZ% ",
"  `W  >>3rddadppaaadssa;;o ;WS  ",
"  `y ;>pdIR)[[[[[[[[~Wzd;;o ;^  ",
"  ` %;rnFWlfxxxxxxxxfJWFd;;  `  ",
"o ` ;3dFz>->-@    %>->>JGd;; `  ",
"; `;;dFL%>>% O{{{{O  --3Gp8;;`%;",
">>`;ppHj>-- {{{{{{{{  ;;Jfp;;E>>",
">%W;dpHy-> {{{{{{{{{{ %;Dvs5;E;;",
"->R>pdHy>%{{{{{{{{{{{{ ;Lzaa>`->",
">-WradJr>O{{{{{{{{{{{{ dWCadp'>-",
"->EpddDr-{{{{{{{{{{{{{{rWzdap`->",
">-EpaaRzp{{{{{{{{{{{{{{dRCdpd`>-",
";;WddpExp{{{{{{{{{{{{{{-Hndaa)--",
";;)rdpECd{{{{{{{{{{{{{{>FvaddT--",
";;)3pdHy;%{{{{{{{{{{{{->Fzpd8W->",
";;);adHy>%{{{{{{{{{{{{>>Fnp8-W>-",
";;);dpLy-> {{{{{{{{{{%%>Fvd>-W;;",
";;R;>dDz>-; {{{{{{{{O>::Jda--W;;",
";;Wo;pnH;;;%  {{{{  -->BHp->@` -",
";;Q ;;pHL3>-;%    %>->nHv>>@ `  ",
"  `  ->dDHPRRERWRRRWRFHn8;%  `  ",
"  `@  ;;ssnCuhhhuuufzvp>;;  ;U  ",
"  J8-  ->8ss:%;;;;-3da>-% o;vZ% ",
" ;Zda-  -->>::;;;;-,;;>  @;dZZ;;",
"->vpp;%  oJ`````]][]'D   ;rpvZ;;",
">-Zdda;@  L)````]]]`)J  ;;ddvZ;;",
"-                 oo          o;",
"                               #"
};
