/* XPM */
static char *result[] = {
/* columns rows colors chars-per-pixel */
"64 64 82 1 ",
"  c #363535",
". c #383737",
"X c #532222",
"o c #5A2625",
"O c #5E2826",
"+ c #5C2729",
"@ c #5D2929",
"# c #642423",
"$ c #692725",
"% c #642B2A",
"& c #6B2E2D",
"* c #732F2C",
"= c #643029",
"- c #6D312E",
"; c #74322E",
": c #7A342E",
"> c #7D3A2F",
", c #762F31",
"< c #6E3231",
"1 c #743431",
"2 c #7B3531",
"3 c #763834",
"4 c #7D3A34",
"5 c #7E3C39",
"6 c #7E4037",
"7 c #7E413A",
"8 c gray28",
"9 c gray38",
"0 c #6C6667",
"q c #6D6C6C",
"w c #80342D",
"e c #843B2F",
"r c #813732",
"t c #833C34",
"y c #893E36",
"u c #843E38",
"i c #893E39",
"p c #80402F",
"a c #864136",
"s c #8A4237",
"d c #864239",
"f c #8C443A",
"g c #87483A",
"h c #8D493C",
"j c #914137",
"k c #91463C",
"l c #944A3D",
"z c #994C3E",
"x c #94503E",
"c c #9A523F",
"v c #874740",
"b c #8B4641",
"n c #8E4A41",
"m c #914440",
"M c #954B41",
"N c #9A4D42",
"B c #9D5243",
"V c #9D5942",
"C c #9E5449",
"Z c #9F584B",
"A c #A24F42",
"S c #A15445",
"D c #A45B45",
"F c #A25549",
"G c #A45A4A",
"H c #AA5D4D",
"J c #A65E51",
"K c #AA5E50",
"L c #A66144",
"P c #AC614E",
"I c #B0614F",
"U c #AE6351",
"Y c #AF6658",
"T c #B16553",
"R c #B36A55",
"E c #B56C59",
"W c #B96D5A",
"Q c #B67055",
"! c #B97157",
"~ c #B77259",
"^ c #BC735B",
"/ c #B97461",
/* pixels */
"RRRRRRYTUYWWWRRTPUPHHHHITRWETUUPRUERRRRUTUTTTEEUE/WWEUURTTPIPPn-",
"HMNMBBZBHUGGGUUUPHFVVZGFSSSFHGFGDBlMMBVGKKFGDSVSBBBFCGUKUUZkkf;X",
"RFkMzlllMSSVBzkfsyyfyyiillllfuuyuyfdsfkkllkzNSNlzklkjsyfssssss3X",
"PBkfskllkzNNNzNlzllzMMzNkkkkffkmlNksfbfuusi4t44ufkFSSMkf4:ufsa1X",
"EGkkMlfflmMmhkMMhss:uffffsffkmmbimmmmkbikmlklkyssifkkhkifffssu<X",
"YZffflkkkjMANShissst:>ta2tissbMmbbiuuiirtyiyuyuttutiyiibsasfhs1X",
"RZsdaduafhfifffffgggsfa4sasdbvvvuuufiuitaggfasssfkhmfmiiitaaha3X",
"UVsffsaflNANfkMMng4<-----<131333133331-,<1;34gvvhMMMMMddduaua51X",
"UVlzzMNNMMMhmnh5-%+oXXXXXXXXXXXXXXXXXXXXXXXXXo%1vfmmMmklhutru2<X",
"EGhsaafmANMbd4%oo%%%&&&-%&&-&&-111<<&&%%%%&&&%%oo1fsjffllMMNMi1X",
"PMslkhMNNMMn3++%&;1;<&;;;;;;11;;12212,113221;;;;%oO4ityifffis5<X",
"KMtsffkhMnv<o%-;12;;;;;23>:4;;;:ttturuu2*:,222:251%o5nifffhlkd1X",
"~Fsassfi4u-o%12::::2r4r4turuutr:222:::22ruity2:::2;&+gNMlllcBf3o",
"EHxzxzMNf7+%11**rtiyyuite:::22utiiyyusiiy422::::;344%+sfsfsas4<X",
"TVsuttafg%%&;22:222:;22tdsssfs>tttttrttyiiiytyt2rt2uuo-fflklkd3X",
"WHkhlhf73o&4utr::::r>444u422::;;*1***;11,2rryytttttt:-%kzNSSBh4X",
"RNsasfff-@;>tsyssut:&+XXXXXXXXXXXXXXXXXXXXo-rr2:2r4rru%3lsfkzf2X",
" .kNNCNd%%;>2::rrr:O&kPRWWTIHIHHGHTHPHHDSBd%o;uu::>tyy&=fkhgys1X",
" 9 MMfM5+%;;:;::2;ofTHGDDSSFSzNzzNxBczllkMNDdo-:42rayi2+lfsfh61X",
"9  llMg1X&:ruuafyofDSNjfhkmjkllhslkkyssgsfkfBd+2ififyt3Xxaaa65<X",
"80qbMmd3X&2uiiit;+TBffhguguykzSSSzkkeee>tassdh%%222tu41XBdkf43-X",
"q8qhfhd3X&3uutrtouchgdadgfskzzAczkae6>apagglMgd@1244tu4XGfgsgu<X",
"qq-BNk41X&,22244XPZd454fhkzzzllksstggt4>4uughi2X14tit21XGMhs6:3X",
"b5akgi4<X&;44tt2XUBhgfglzlhsaffsa>att>aahfsui54X&1r412;XBallxg-X",
"ZMdsfi3<X&12:*:;XTBgdrashffssfffapgsfNnnikfii41X<2tytt;XBfffki<X",
"RHzzzk4-X&:trtw*XPMsfkkMkkay>utasskmMMhaimiiu21X&32rr:&XGhjlNk3X",
"IBhlMMu<X%;rrsy2XWDzlANllkkfassajllsisdiiiiliu5X1ufssu4XVfift4-X",
"RGlllkf5X-;::tt4XPNuysysjlklksisjsgsfhkfMNANAm5X<2syyt3XFlssku1X",
"HSllzzt<X1tfit:*XRSlkfklkjjNBllklhfsMnfjzlljsu2X-2yfi4;XTkttr;-X",
"HBiikki3X-:rr2w2XIxstrtrsflhhT!!!QRlhmkfyfikkd3X&4y22r2XHkaas4-X",
"RFkNAAm3X&*:2:**XHzrsyyayslR!PDDScB!HhNSNNlkki1X-2tysy:XHljlu2&X",
"RFllmlu1X&;222:*XTBy:rlllfRPSccccSVBGUfkfsiyt11X-riitw:XHlyssa3X",
"WKANjf4-X,2rr:2;XTBNlljyyz^cBzu2:4lDBQlzNMkNii3X<1222:*XTNsfkg1X",
"YAimkla1X&2iffiuXWFlkllff^LDz4;;:;;NBSRgNNMMNiuX,2riyr2XHzhssr;X",
"UGNNlf41X&riytr4XTNyfsyflRDD3::,22,2DVPhzkklki4X-4rr::*XIMfsst1X",
"YJMMklt,X<2ytrr;XIzyshhhehGB*;2222,:hSheyyfzzi2X,4tyyt2XTFjsa51X",
"KNikfir,X&22:::;XTBMMMbb&;:4x4;;;;;h>12*a:rte41X&,,w:,*XYBsut21X",
"YGNMNNb1X%*24re;XGmifiti#:2*cGSzlSGD;;:#sugtat3X&,rtrr*XUNsar41X",
"GNfkkji1X%;:::>4XHh:2iNN#,2,:DGGDDDu*,:#flflBhdX-2uiur2XFhsut1&X",
"YGimkk41X-4sssu1XTBkklzl:$u,2thBBc4,2r$;4uddsu3X&2rurr2XUlssf5<X",
"RGNMhku1X-;43::;XTCufuuf4#;1*,2,;;;1r:#eiyy:u31X1us:*2*XRZMfu5<X",
"/JMffhu1X-;;;>srXEJFCFCCMu#:r,,2rt4ur#iiyywyfd5X<4r2r54XRZCCFM5X",
"/Gblkki1X%;:>;;=XEGNCMmffu;##4uiiu4#$*truisuu1<X&2tut22XUndfbv3X",
"GMrtykb3o%;:3rt:XTM55ufMNMksr######ryiyytryfmd3X&&tiii2XHMsdu3<X",
"RGllkhi3X&;;:;:;XEBsdfddaffsae:::yfNAAMiyikkfr1X14iitr;XTBkffu<X",
"YBsfkks3X&;:4tr1XEKSCNMsgssghsgfuifkMmjfjzzzld4X&4iiiy4X^HSSNf<X",
"UBssssu1X&;:;;*;XGNdsfMllzuuat44ttfkmijjzNAzNk4X&;::222XRAfkk41X",
"RGlky4:&X->yrer2XRBiffhfklssyuasfllzMNMzNzktt21X-;2ett*XKNshkd1X",
"EHkMzsa<X%*:::r>XRDzzlzlkkklNNNzzSScjyeekzAccg4X;3yupt:XRSkMAb5X",
"UMturta-X3usrte3XWMrrtyilllkhfkjkkccDDGAASclla3X<2re;*&X^HMlku1X",
"EKBzzl3<X&2re:>;XWFmkiiihiirtttwejjkzAADAzjzza4X;4au6>1XTNffiu3X",
"^Vrtusa3X=2r::*;oWHAANkMMMfsjMzSSDzjttejkjAANs3X-hVcx>;XWHSASh5X",
"/Hkkii41X14iytt;XKMysMhsjkkzMNczAczkslllzzzzj4:X-gcLLh:XRVMlkf3X",
"TNiiija3X&2tsuy>XTFMfdslkfllfhjljksklzzAzjyeet5X-oo=Lc>XIBkfms1X",
"EGmflt2-X%*:>::2XTMhfdututagaaeeepalllkklzljht3X&&;%LL-XIMlkf51X",
"TFfkmlu;X1uytuu;XUCkMMmkhffaasklljcczzzcBcclf51X-14-Lc;XRBfff51X",
"TFfisdu<X%;44ru2XFlsffbhzhhhshkhjkjsjsskzzkhgr;X&;r4LL;XHNfMMu3X",
"HMyiss3&X-22r::;XFMyuuskMfahhR!!^!TklxSSSMkNMg5X%;;;LL-XKlfhhu<X",
"TBissd7-X14tr::;XIAfiyrr44fQ!VBVLDD!PfyjfMNSBd3X-:4:LL&XRBffk41X",
"WFkzzld1X&2uaaa4XFbruklllhRDcBBScVDDLUkfkllMMfaX&3>:LL;XUNsui4<X",
"HzislBf4X-;>eet;XTFllllzzz!VSca22rcSS!llkllfht3X;4stLL2XPxssa3<X",
"  sslla1X<;:;-:;+KNimljjh!Pcl2:11*;cDSPsbMhMf4;X-1urLL;XTzakNf3X",
" 9 hgs63X-;;::;;XWKNNftthRSD42,224::DDRhMMkfs3;X-3:;LL&XHluuhi<X",
"9  t444-X;%*;::;XKFititaehDc,**,*2:*hVl>NBN2>;-X&:3;LL-XPBlMMd1X"
};
