/* XPM */
static char *xpm_[] = {
/* columns rows colors chars-per-pixel */
"32 32 124 2 ",
"   c #523B1F",
".  c #473A26",
"X  c #483B26",
"o  c #493B26",
"O  c #4E3E27",
"+  c #4A3E2B",
"@  c #4B3E2B",
"#  c #4D3E2B",
"$  c #4E3E2A",
"%  c #4D3E2C",
"&  c #4F3F2C",
"*  c #553D20",
"=  c #543D23",
"-  c #563E24",
";  c #583F25",
":  c #533F29",
">  c #503E2C",
",  c #513F2D",
"<  c #473E32",
"1  c #423D35",
"2  c #443E38",
"3  c #443F38",
"4  c #463F38",
"5  c #4F402C",
"6  c #5B4122",
"7  c #5C4523",
"8  c #5B4026",
"9  c #5C4225",
"0  c #5D4326",
"q  c #5E4427",
"w  c #5F4427",
"e  c #51412B",
"r  c #51412C",
"t  c #51402D",
"y  c #52402D",
"u  c #56442D",
"i  c #5C4629",
"p  c #5C482B",
"a  c #474138",
"s  c #584632",
"d  c #524838",
"f  c #614427",
"g  c #624528",
"h  c #654828",
"j  c #664D28",
"k  c #674D29",
"l  c #674F2B",
"z  c #684E29",
"x  c #684E2A",
"c  c #694F2A",
"v  c #6A4F2B",
"b  c #69502B",
"n  c #6A502B",
"m  c #6C512B",
"M  c #6B502C",
"N  c #6C502C",
"B  c #6D512C",
"V  c #6C512D",
"C  c #6D512D",
"Z  c #6E522C",
"A  c #6D512E",
"S  c #6E522E",
"D  c #6F532F",
"F  c #70532D",
"G  c #72552E",
"H  c #73562F",
"J  c #644F32",
"K  c #6B5332",
"L  c #6F5230",
"P  c #6C5332",
"I  c #6C5433",
"U  c #6D5433",
"Y  c #6E5433",
"T  c #6E5533",
"R  c #715431",
"E  c #725431",
"W  c #705533",
"Q  c #725432",
"!  c #735532",
"~  c #705633",
"^  c #715633",
"/  c #745630",
"(  c #745533",
")  c #745633",
"_  c #755633",
"`  c #705534",
"'  c #715534",
"]  c #715634",
"[  c #725634",
"{  c #735634",
"}  c #735734",
"|  c #735635",
" . c #745735",
".. c #755735",
"X. c #765734",
"o. c #775735",
"O. c #765736",
"+. c #775736",
"@. c #765831",
"#. c #765934",
"$. c #775835",
"%. c #775A35",
"&. c #775836",
"*. c #755A36",
"=. c #7A5A33",
"-. c #795A35",
";. c #7B5B34",
":. c #7A5B35",
">. c #7B5B35",
",. c #785836",
"<. c #7D5C34",
"1. c #7F5D35",
"2. c #7D5D36",
"3. c #7E5D36",
"4. c #7F5E36",
"5. c #565656",
"6. c #5F5F5F",
"7. c #725F44",
"8. c #686868",
"9. c gray45",
"0. c #777777",
"q. c #805E36",
"w. c #8B8B8B",
"e. c gray55",
/* pixels */
"9.u u X > % 2 $ % + % X 2 . . > > y a X y r w.0.0.w.d + : o.l j ",
"< q.q.j o.Y - D o.K P j ; j c o.,.,.; c q.w.s s s i e.7.,.[ l j ",
"j q.q.j &.Y 0 R o.K [ j i c j o.,.,.g k e.s T F * P p e.o.K l j ",
"j q.q.j &.Y 0 ,.j o.D D 0 H j ( ,.o.f k e.Y Y P * P K e.&.K l j ",
"j q.q.j ,.K 0 ,.j j j ,.0 1.j D ,.,.g k w.Y T R 9 K K e.&.K l j ",
"j q.q.j ,.K 0 o.&.j R ,.0 1.j j ,.,.f j w.Y T R 6 K K e.o.K l j ",
"j q.q.j ,.K 0 T ,.,.&.&.0 1.j j ,.,.g j s w.Y Y 6 K e.s [ K l j ",
"j q.1.j ,.K 0 K ,.,.,.R 0 q.Z j _ ,.g k j s w.e.e.e.s +.[ K l j ",
"j q.,.j ,.K 0 K &.&.,.K 0 q.1.j c ,.g R j 2.s s s s T ,.Y K D j ",
"j q.H c ,.K 0 K K R K K 0 q.q.j j R g &.j 1.Y _ 6 K [ ,.Y K v j ",
"j 1.Z Z &.K 0 K K K K K i q.1.j j j 6 o.j 1.K R 6 K [ ,.K o.D j ",
"j 1.j D &.K 0 K K K K K g q.1.@.j j 9 T M 1.K _ 6 K o.+.K ;.v j ",
"j 1.j R ,.K 0 Y K K K K g 1.q.q.j j 6 K M 1.K &.6 K ,.,.K 1.c j ",
"j q.j _ ,.K 0 [ K K K K g &.q.q.j j 6 K D q.K &.6 K ,.,.K 1.j j ",
"j q.j ,.,.K 0 ,.K K K [ g K 4.q.D j 6 P M 1.K o.6 K ,.,.K q.j j ",
"j @.j ,.,.K 0 ,.K K K ,.g K 4.4.1.j 6 o.j 1.K &.6 K ,.,.K 1.j j ",
"j M j ,.o.K q ,.[ K Y ,.g K ,.q.1.j 6 &.j 2.K o.6 K ,.,.K q.j j ",
"j j j ,.,.K 0 ,.,.[ &.,.g K [ 4.q.D 6 &.j 2.K _ 6 K ,.,.K q.j j ",
"j j j ,.o.K 0 o.,.,.,.,.g K K 4.q.=.6 c j 2.K o.6 K o.&.K 1.j j ",
"0.j j ,.[ K q o.,.,.,.&.g K K 1.q.q.6 j j 2.K o.6 K &.&.K 1.D j ",
"0.8.8.0.8.8.8.8.8.0.8.8.8.8.8.0.8.8.8.8.8.0.8.8.8.8.8.0.8.*.n j ",
"0.8.8.5.8.8.8.8.8.5.8.8.8.8.8.5.8.8.8.8.8.5.8.8.8.8.8.5.6.J D j ",
"9.. % r % + 2 y y y r r 1 $ + + u u a . e r 5 r 1 + 5 r O K Z j ",
"< j o.o.Y K - ,.,.,.,.,.  o.K K 2.1.9 j 1.&.K R * K o.o.[ K j j ",
"j j ,.,.T K 0 o.,.,.,.,.6 ,.K K R q.h j 1.&.P R ; K [ ,.[ K l j ",
"j j ,.,.K K 0 o.,.,.,.,.6 ,.K K K q.h j 1.o.[ R 6 K [ ,.+.K l j ",
"j j o.,.K K 0 D ,.,.o._ 6 ,.[ K K q.h F 1.*.[ D 6 K R &.,.K l j ",
"j j ,.,.K K 0 j ,.,.o.D 6 ,.&.K K 4.j q.q.Y [ P 6 K T o.,.K l j ",
"j j ,.,.K K 0 j ,.,.,.j 6 ,.,.K K ,.j 1.q.T o.D 9 K K ,.,.K l j ",
"j j ,.,.K K 0 j ,.,.,.j 6 ,.,.K K [ h q.q.K +.v 6 K K &.,.T l j ",
"j c &.,.K K 0 j D o.R j 6 ,.o.P K K h q.4.K o.v 6 K K &.+.o.l j ",
"j j j j j j 6 j j j j j 7 j j j j j 0 j j j j j 7 j j j j j j j "
};
