/* XPM */
static char *result[] = {
/* columns rows colors chars-per-pixel */
"64 64 50 1 ",
"  c #2C2217",
". c #35281A",
"X c #382B1D",
"o c #382B1E",
"O c #392C1C",
"+ c #3E2F1E",
"@ c #353535",
"# c #3F3F3F",
"$ c #443320",
"% c #443321",
"& c #493824",
"* c #4F3C27",
"= c #503E25",
"- c #574227",
"; c #5A4427",
": c #5E452A",
"> c #64492A",
", c #614B2D",
"< c #624C2D",
"1 c #674C2F",
"2 c #654F2E",
"3 c #664F2E",
"4 c #664F2F",
"5 c #614E32",
"6 c #635133",
"7 c #635134",
"8 c #675336",
"9 c #6B5130",
"0 c #6D5032",
"q c #685437",
"w c #715333",
"e c #705432",
"r c #745732",
"t c #755635",
"y c #765736",
"u c #785736",
"i c #785836",
"p c #4C4C4C",
"a c #686868",
"s c #6F6F6F",
"d c #7C7266",
"f c #797979",
"g c #805E36",
"h c #857769",
"j c #887B6A",
"k c #8C7D6C",
"l c gray52",
"z c gray55",
"x c gray61",
"c c #A2A2A2",
/* pixels */
"sff4eiiiiigiiii4&&44444444444444X&44iggi4444ccccczzz4444444444==",
"ssffegiggiiigii4&&44iiiiiiiiiii4X&44iggi444ccccczzzzziiiiiiiii:=",
"assfeiggiiiiggi4&&4igggi4eiiggi4X&44iggi44cccccczzzzzzggigigii:=",
"aas44eggi44igie4&*4iggie4ergggi4X&4iigggiccccccczzzzzzzggggiii==",
"dh444egi444igge4&*4iiiie44egggi4X&44iggicccccc==OOzzzzzzgggii4==",
"dh4444e44444igi4&&44iiie44egggi4X&44iggiccccc=44&&=zzzzz>ggiii==",
"dk4444444444iii4&&44iiie44eiggi4X&44igggcccc=444&*4=zzzz>ggii4==",
"dk444444it444ii4&*44iiee444iggg4X*44iggicccc=444&*44zzzz:gii44==",
"dk44444i444444e4**4eiieie44eggi4X*44igiicxxx=444&*44zfff:ggiii==",
"dk4444i4444444e4**4eiiiie4449rg4X*4eigi4xxxx=444&*44ffff:giii4==",
"dk44444i44444ee4**4eiiiie4444ei4X%4iigi4xxxxx4i4&*4fffff:iii44==",
"dk44444444444ee4**44iiiiie444eg4%%44igi4xxxxxxg4&*ffffff=igii4==",
"dk4444444444ege4X*44iiiiie444eg4%%44eiii:xxxxxlllffffff=i54044==",
"dk44444444eegge4X*44iiiiiie44ei4%%44eiiii:xxxlllffffff=i844424==",
"kk4444444eggiie4X*44eeiiige444i4%%4eiiiiii:xllllfffff>44444444==",
"kk4444444egigge4X*44eiiigie444i4%%44iiiiiii:llllffff>444444344==",
"hk444444iigiggi4X*44eiigigi444i4%%44eigigii4====++==4444i444e4==",
"hk444444egggiii4X&4eeiiggi4444i4%%44egggiii444g4**44444iigie44==",
"hk444444eigggii4XX444iggii444i44%%444igiigii4444**444444iiiiee==",
"hh444444egggiii4XX444egggi44i4i4%%444eigiggi4444*&444444iigiig-=",
"hh44444eigii4444XX444eigiie44444%%444eiiiggii444*&44g4444iiiii==",
"hh44444eigggii44X&4444iggge44444%%4444igiggiii44*&444444eiiigi-=",
"hh444444iigi4444X&4444eigie44444%%4444egiiggii44*&44e4444eigig==",
"hk444444igggi444X&4444eiiie44444%%44g44eiiiggi44*&4ei44444eiig;=",
"kk4444444eigiie4X&44444iiiie4444%%44gg44egiggii4*&44ii4444eiig;=",
"kk44444449gigge4X&44444iiiie4444%%44444g4eggggi4*&44iii4444eig>=",
"kk44444444iggie4&*444444iiie4444%*44444444egggi4*&44igii4444ei>=",
"kk444444444iigi4&*444444iiiee444%*4444ii44eiiig4*&4iigiie44eii>=",
"jk44444444444ei4**4444444iiiree4&*44iiigiigggii4*&44igii44444e:=",
"jki4444444444444**44444444iiigr4&*g4444i4iiiii44*&44iggie444ei:=",
"dkii4i4444444444**44i44444iigig4&*ggg44444ii4444*&44iiiiie4444-=",
"dk***iii&&&i&444**44i4444iigggi4&****i*i**ii4444&&4iiiiiiie44e:=",
"dk44444444444444**44ii4444igigi4&&44444444444444&*iiqqiiiiee44-=",
"dj44igigiiiiiii4**44igi4444igig4&&44iiiig4iiiii4&*4iqqi4ii4i44==",
"dj44igggggi44444**4igi4444iiggg4&*4444iiiggggi44&*4iqii44iie44==",
"dj44iigigi444ii4**4igi444444igi4&&44444iiiggi444**44ii44ige444==",
"dj44igigiiii144w$*44i444444iiei4&*444i44igiiii44**4iiiiigi4444-=",
"dj44igiigiiu4444$*44i4444444iei4&*4i4444iigii444**44iiggie44g4:=",
"jj44igggiigi4444$*44444444iiiei4&*4i444iiggi4444*&44iggii4444e:=",
"jj44iigiigiiy474$*444444444iiie4&*444iiiiigii444X&4iigggii444i:=",
"@@@###paaffii444*#paaffi4444i#paaff4iiigi#paaff4X&44i#paaff4ei>=",
"@@@@###paaff4444###paaffi44i###paaffiigg###paaffX*44###paaffig>=",
"@@@@###paaaf4444###paaaf4444###paaafiggg###paaafX*44###paaafig>=",
"@@@@@###paa44444*###paa44i44i###paa44ggii###paa4o*44i###paaiii>=",
"sff44iiiiiii4444**444iiii4444ie4%%44444iigiii44i&*4iigii44iigg>=",
"ssffiigiiii44444**444ii44444<ie4%*4444igiii44444&*44iiii4iiggg>=",
"assfigigi4444444**444ii46444,ie4%*4i4iggii444444&*444iiiiiiigg>=",
"aas4iiiiii44i4i4**44igi444444ii4%*44iiggii444444o*444i4iiigiig>=",
"dh44igi444444ii4%*44igiii44iigi4X%444igii4444444&*444444i4iiii>=",
"dh44iigii444igi4%*4eiggiiiigggg4X%44igggii44i4i4X*4444444444ii:=",
"dd44iiii44i4iii4%%4eiggigi4iggg4X%44iggii44iiii4X*444444444444:=",
"dd44i4444444i444X%44iiggi44iggg4X%44igiii4i4igg4X*444g444i444i:=",
"hh44ii44444i4i44X%44iggi44iiigi4X%44iggi4444iig4X*44i44iiiiiii>=",
"hh44i44444444444X%44iigii44iggg4%%44igii444iigg4X*44iiiiigiiig>=",
"hh44i44444444444X%444ii44i44igg4%%44iggii4i4iii4X*4igiiiiiiggg>=",
"hh44ii4444444444X%44iiii44444ig4%*44igii4444iig4&*44iiigigiigg>=",
"hk44igi44444i444X%44iiiii4i4igg4&*44iggi44iiigi4**444iggggiggg>=",
"hk44igi4444igii4%%444i44444igig4&*44iigi444iiig4**444iiggggggg>=",
"hk44iggi444igii4%*4iiii444igigi4&&44iggii444igg4**44444igggggg>=",
"hk44iggi4444i4i4%*444i444igi4i44&&44igiii44iiig4**44iiiiigigii:=",
"jk44igggi44444i4**44444444i44444&&44igii4444igg4**4444igggii44:=",
"jj44igggii4444i4**i4444444444444&&44igii4i44igg4**4iiiiiii444i==",
"j&==:>>>:>:==::=++:=:=========== O==::>:==:::>>=++:=============",
"&O==:>>>>::::>:=++:....:..::..== O==:>>::===:>>=++:OOO::OOO:OO=="
};
