/* XPM */
static char *xpm_[] = {
/* columns rows colors chars-per-pixel */
"32 32 171 2 ",
"   c gray20",
".  c #3D3E3B",
"X  c #434539",
"o  c #474942",
"O  c #494B45",
"+  c #4D5046",
"@  c #555A45",
"#  c #555947",
"$  c #575C47",
"%  c #5A5F43",
"&  c #51544C",
"*  c #54564F",
"=  c #545750",
"-  c #5D5E5A",
";  c #5F6447",
":  c #5F6547",
">  c #5C7154",
",  c #5C7155",
"<  c #606547",
"1  c #636847",
"2  c #636E4D",
"3  c #697047",
"4  c #6A7147",
"5  c #66714B",
"6  c #65714D",
"7  c #66714C",
"8  c #697148",
"9  c #687149",
"0  c #6A7248",
"q  c #6B7248",
"w  c #6C7549",
"e  c #6C754A",
"r  c #6D784B",
"t  c #6B7B4D",
"y  c #6E784C",
"u  c #6F7A4D",
"i  c #6E7D4E",
"p  c #707E4F",
"a  c #707F4F",
"s  c #607151",
"d  c #617D54",
"f  c #707F50",
"g  c #4D7162",
"h  c #4C7163",
"j  c #497164",
"k  c #646563",
"l  c #646464",
"z  c #686868",
"x  c #807D68",
"c  c #648456",
"v  c #688555",
"b  c #6C8955",
"n  c #708050",
"m  c #718151",
"M  c #718251",
"N  c #738855",
"B  c #738A55",
"V  c #748B56",
"C  c #748C57",
"Z  c #748D57",
"A  c #738F59",
"S  c #748E58",
"D  c #748E59",
"F  c #758E59",
"G  c #758F5B",
"H  c #788D5B",
"J  c #7A8C5D",
"K  c #7B8D5E",
"L  c #6C955B",
"P  c #6F955B",
"I  c #6C975C",
"U  c #6D975C",
"Y  c #6D975D",
"T  c #6E965C",
"R  c #6E975D",
"E  c #6C985D",
"W  c #6C985E",
"Q  c #6C985F",
"!  c #719159",
"~  c #729059",
"^  c #739059",
"/  c #72915A",
"(  c #72905B",
")  c #71935A",
"_  c #70945B",
"`  c #71935F",
"'  c #5F8E6C",
"]  c #7F8B62",
"[  c #6E9563",
"{  c #6D9766",
"}  c #6C9767",
"|  c #6B9960",
" . c #6B9A63",
".. c #6D9960",
"X. c #6F9863",
"o. c #6A9B66",
"O. c #6A9B67",
"+. c #6E9B67",
"@. c #6B9E66",
"#. c #6A9B69",
"$. c #699C69",
"%. c #699B6D",
"&. c #689D6C",
"*. c #689D6D",
"=. c #709360",
"-. c #769362",
";. c #779263",
":. c #739560",
">. c #749461",
",. c #769868",
"<. c #779B6E",
"1. c #679E73",
"2. c #669F73",
"3. c #659D74",
"4. c #669F74",
"5. c #669F75",
"6. c #679F77",
"7. c #689D71",
"8. c #6F9B76",
"9. c #689E77",
"0. c #6C9C76",
"q. c #759775",
"w. c #7B9374",
"e. c #729875",
"r. c #719A76",
"t. c #66A074",
"y. c #65A076",
"u. c #64A077",
"i. c #65A077",
"p. c #65A177",
"a. c #65A277",
"s. c #65A377",
"d. c #66A377",
"f. c #66A477",
"g. c #66A577",
"h. c #66A777",
"j. c #68A773",
"k. c #66A877",
"l. c #66A977",
"z. c #68A57D",
"x. c #67AA78",
"c. c #69AC7C",
"v. c #6AAC7D",
"b. c #838565",
"n. c #808C63",
"m. c #848A67",
"M. c #868A69",
"N. c #808E69",
"B. c #828D6A",
"V. c #89896E",
"C. c #898A6E",
"Z. c #8D8770",
"A. c #858D72",
"S. c #8A8A71",
"D. c #8B8A71",
"F. c #8C8871",
"G. c #8D8871",
"H. c #8C8971",
"J. c #6DAE83",
"K. c #6FAF86",
"L. c #7FAC8F",
"P. c #75B38F",
"I. c #7AB18F",
"U. c #76B491",
"Y. c #77B593",
"T. c #79B594",
"R. c #78B695",
"E. c #79B697",
"W. c #7AB697",
"Q. c #7AB798",
"!. c #7AB799",
/* pixels */
". + n.Z.;.I 6.u.4 4 u.h.l.l.l.l.l.x.h.5.%.O O z l O + I G.Z.V Z ",
"+ + Z.I &.6.u.u.r 9 u.l.l.l.l.l.l.y.u.6.+ O 3   X 1 + x G.G.Z Z ",
"l.c.I I u n n Z Z r l.l.l.l.^ I.A 5.u.I + % q q 8 4 O $ Z.Z.Z Z ",
"!.!.I I 4 r n n Z Z l.c.l.[ W.,.A i I I O < q w 8 4 + + Z.;.Z Z ",
"!.!.I ^ 4 4 u.h.k.x.!.J.x.y.D A B 8 I I O 1 V V Z Z + + ` E Z Z ",
"!.!.Z Z 4 5 h.l.K.!.U.l.6.9.b.u w I I I O 1 V V Z A + + E y.Z Z ",
"!.!.Z ^ > j l.U.!.E.x.5.w.Z.G.Z.I I I I + ; B V M p + + p.p.Z Z ",
"!.!.^ I h j R.!.E.k.6.S.Z.Z.G.] I I I I . ; M v M f . . 6.y.Z Z ",
"!.!.I I j j !.!.l.u.S.Z.Z.Z.Z.I E R I c o @ p v i M o o &.I Z Z ",
"!.!.I u.j j !.l.y.r.S.6.8.Z.I $.y.I I d + * * = - k + + E I Z Z ",
"!.!.y.u.j > l.u.6.9.6.5.I I o.u.&.E I d + & = - k k O + I I Z Z ",
"!.!.5.h.> 4 h.u.6.u.u.I I I u.u.I E I v < 1 4 4 4 4 6 2 I I Z Z ",
"!.!.y.x.4 4 u.u.u.u.I I I I 6.I I R R b 4 t I I I 6.M i I 6.Z Z ",
"!.!.l.l.4 4 u.u.u.I I A P I I I I #.I R I I I I o.u.Z Z y.p.Z Z ",
"!.!.x.l.4 4 u.u.I I Z Z I I I I u. .I R I I I I u.u.Z Z 6.h.Z i ",
"!.!.h.l.4 4 u.I I A Z Z I I I 6.I I C.I I I I u.u.u.Z Z l.l.n n ",
"!.!.h.h.4 4 I I Z Z A ^ I I E I I G.I I I I u.u.u.x.Z Z l.l.v p ",
"!.!.h.u.4 4 I Z Z Z Z I ^ Z D I G.N.I I I u.u.u.l.u.Z Z l.u.y 4 ",
"!.!.u.u.4 4 B D Z Z Z Z J M.>.Z.Z._ D D u.u.6.h.u.u.Z Z l.6.4 4 ",
"l.l.u.6.4 4 A A I Z Z Z m.G.Z.Z.H Z A y.u.u.5.y.s.u.Z Z y.6.4 p ",
"+ + u.u.f M Z u.D I.D V V.Z.Z.n.Z D u.u.( U.Z y.u.u.Z Z y.u.i n ",
"  + u.u.M i 5.} I.<.C f m.Z.J Z A y.u.[ W.,.Z i u.5.Z A u.u.n n ",
". + u.%.f M y.6.D Z C q Z Z Z A 6.u.u.u.H D Z 4 u.6.Z ^ y.y.n 4 ",
"+ + [ Z p A u.7.V y q V Z Z Z u.u.u.u.u.o.e e 1.u.u.y.t.u.e.4 4 ",
"!.R.Z Z Z Z 1.` ^ I Z Z Z Z u.u.u.5.h.l.l.l.p.u.u.l.5.A.Z.Z.4 4 ",
"l.x.Z Z A Z l.+.I ^ Z Z D y.u.6.u.l.h.l.l.x.u.z.J.l.l.Z.Z.Z.4 4 ",
"l.l.Z Z I j.l.x.!.!.!.!.!.!.!.!.!.!.!.!.!.!.!.!.!.l.S.Z.Z.Z.6 j ",
"l.l.Z I I I @.W.!.!.!.Q.!.!.!.!.!.!.!.!.!.!.!.!.L.F.Z.Z.Z.Z.j j ",
"l.x.Z I I I I P Z Z R I I I u.y.x.l.l.h.y.u.q.Z.Z.Z.Z.Z.Z.Z.j j ",
"l.y.I E I I P Z Z R R I I u.u.l.x.s.u.u.6.V.Z.Z.Z.Z.Z.Z.Z.Z.j 5 ",
"6.u.I ^ Z B i n p n q q u v i 4 4 4 4 4 5 g j j j j j j j > 4 4 ",
"u.I I Z N n n n p q q y p p 4 4 4 4 5 h j j j j j j j > 4 4 4 4 "
};
